999
"DXF R12 Output" (www.mydxf.blogspot.com)
 0 
SECTION
 2 
HEADER
 9 
$ACADVER
 1 
AC1009
 9 
$EXTMIN
 10 
 0 
 20 
 0 
 9 
$EXTMAX
 10 
 8.5 
 20 
 11 
 0 
ENDSEC
 0 
SECTION
 2 
ENTITIES
0
POLYLINE
8
Image
62
7
70
1
10
0.000000
20
0.000000
66
1
0
VERTEX
8
Image
10
49.212438
20
353.851210
70
0
0
VERTEX
8
Image
10
49.212438
20
604.514144
70
0
0
VERTEX
8
Image
10
55.099410
20
604.691500
70
0
0
VERTEX
8
Image
10
194.071630
20
604.787099
70
0
0
VERTEX
8
Image
10
327.156880
20
604.705343
70
0
0
VERTEX
8
Image
10
327.223158
20
353.946804
70
0
0
VERTEX
8
Image
10
327.289462
20
103.188266
70
0
0
VERTEX
8
Image
10
188.250945
20
103.188266
70
0
0
VERTEX
8
Image
10
49.212438
20
103.188266
70
0
0
VERTEX
8
Image
10
49.212438
20
353.851210
70
0
0
SEQEND
8
Image
0
POLYLINE
8
Image
62
7
70
0
10
0.000000
20
0.000000
66
1
0
VERTEX
8
Image
10
314.972541
20
154.445216
70
0
0
VERTEX
8
Image
10
315.062017
20
156.507879
70
0
0
VERTEX
8
Image
10
314.962309
20
160.308931
70
0
0
VERTEX
8
Image
10
314.753787
20
163.916507
70
0
0
VERTEX
8
Image
10
314.633837
20
165.044033
70
0
0
VERTEX
8
Image
10
314.516824
20
165.398741
70
0
0
VERTEX
8
Image
10
314.285308
20
164.147861
70
0
0
VERTEX
8
Image
10
314.129243
20
161.539543
70
0
0
VERTEX
8
Image
10
314.082566
20
158.516487
70
0
0
VERTEX
8
Image
10
314.179216
20
156.021390
70
0
0
VERTEX
8
Image
10
314.513639
20
154.143585
70
0
0
VERTEX
8
Image
10
314.726169
20
154.024677
70
0
0
VERTEX
8
Image
10
314.972541
20
154.445216
70
0
0
VERTEX
8
Image
10
314.972541
20
154.445216
70
0
0
SEQEND
8
Image
0
POLYLINE
8
Image
62
7
70
0
10
0.000000
20
0.000000
66
1
0
VERTEX
8
Image
10
307.823456
20
162.895865
70
0
0
VERTEX
8
Image
10
309.449609
20
163.459853
70
0
0
VERTEX
8
Image
10
309.763078
20
163.832629
70
0
0
VERTEX
8
Image
10
309.986342
20
164.439231
70
0
0
VERTEX
8
Image
10
311.969293
20
170.533718
70
0
0
VERTEX
8
Image
10
313.526754
20
174.429858
70
0
0
VERTEX
8
Image
10
314.853770
20
177.403771
70
0
0
VERTEX
8
Image
10
314.853770
20
183.158451
70
0
0
VERTEX
8
Image
10
314.784734
20
187.335102
70
0
0
VERTEX
8
Image
10
314.601993
20
188.913158
70
0
0
VERTEX
8
Image
10
311.999594
20
187.874399
70
0
0
VERTEX
8
Image
10
308.239195
20
186.055741
70
0
0
VERTEX
8
Image
10
305.775239
20
184.624157
70
0
0
VERTEX
8
Image
10
303.584001
20
183.129429
70
0
0
VERTEX
8
Image
10
301.659027
20
181.564494
70
0
0
VERTEX
8
Image
10
299.993866
20
179.922287
70
0
0
VERTEX
8
Image
10
298.582066
20
178.195746
70
0
0
VERTEX
8
Image
10
297.417175
20
176.377806
70
0
0
VERTEX
8
Image
10
296.492741
20
174.461405
70
0
0
VERTEX
8
Image
10
295.802312
20
172.439480
70
0
0
VERTEX
8
Image
10
295.429386
20
170.668754
70
0
0
VERTEX
8
Image
10
295.318063
20
169.019230
70
0
0
VERTEX
8
Image
10
295.461665
20
167.507482
70
0
0
VERTEX
8
Image
10
295.853509
20
166.150087
70
0
0
VERTEX
8
Image
10
296.486916
20
164.963619
70
0
0
VERTEX
8
Image
10
297.355205
20
163.964655
70
0
0
VERTEX
8
Image
10
298.451696
20
163.169769
70
0
0
VERTEX
8
Image
10
299.769708
20
162.595537
70
0
0
VERTEX
8
Image
10
301.339789
20
162.339740
70
0
0
VERTEX
8
Image
10
303.458981
20
162.313981
70
0
0
VERTEX
8
Image
10
305.746973
20
162.504082
70
0
0
VERTEX
8
Image
10
307.823456
20
162.895865
70
0
0
VERTEX
8
Image
10
307.823456
20
162.895865
70
0
0
SEQEND
8
Image
0
POLYLINE
8
Image
62
7
70
0
10
0.000000
20
0.000000
66
1
0
VERTEX
8
Image
10
302.686471
20
187.970475
70
0
0
VERTEX
8
Image
10
305.121389
20
188.881501
70
0
0
VERTEX
8
Image
10
309.277075
20
190.860595
70
0
0
VERTEX
8
Image
10
313.729292
20
192.933338
70
0
0
VERTEX
8
Image
10
314.372997
20
193.206004
70
0
0
VERTEX
8
Image
10
314.712602
20
193.487279
70
0
0
VERTEX
8
Image
10
314.852698
20
193.936427
70
0
0
VERTEX
8
Image
10
314.897876
20
194.712712
70
0
0
VERTEX
8
Image
10
314.964022
20
196.494678
70
0
0
VERTEX
8
Image
10
314.697688
20
196.880766
70
0
0
VERTEX
8
Image
10
313.796209
20
197.327787
70
0
0
VERTEX
8
Image
10
309.694401
20
198.558664
70
0
0
VERTEX
8
Image
10
306.534896
20
199.312784
70
0
0
VERTEX
8
Image
10
303.702228
20
199.802108
70
0
0
VERTEX
8
Image
10
300.888784
20
200.067768
70
0
0
VERTEX
8
Image
10
297.786949
20
200.150898
70
0
0
VERTEX
8
Image
10
293.922695
20
200.049615
70
0
0
VERTEX
8
Image
10
292.730267
20
199.857982
70
0
0
VERTEX
8
Image
10
291.518581
20
199.520899
70
0
0
VERTEX
8
Image
10
289.709097
20
198.812566
70
0
0
VERTEX
8
Image
10
288.246874
20
197.935213
70
0
0
VERTEX
8
Image
10
287.150399
20
196.902644
70
0
0
VERTEX
8
Image
10
286.438164
20
195.728657
70
0
0
VERTEX
8
Image
10
286.065139
20
194.504505
70
0
0
VERTEX
8
Image
10
286.292247
20
193.353813
70
0
0
VERTEX
8
Image
10
286.675138
20
192.510777
70
0
0
VERTEX
8
Image
10
287.260430
20
191.670023
70
0
0
VERTEX
8
Image
10
288.923928
20
190.082810
70
0
0
VERTEX
8
Image
10
291.054160
20
188.767074
70
0
0
VERTEX
8
Image
10
293.422547
20
187.897715
70
0
0
VERTEX
8
Image
10
295.142336
20
187.479568
70
0
0
VERTEX
8
Image
10
296.555977
20
187.405922
70
0
0
VERTEX
8
Image
10
298.820672
20
187.498079
70
0
0
VERTEX
8
Image
10
301.132233
20
187.703707
70
0
0
VERTEX
8
Image
10
302.686471
20
187.970475
70
0
0
VERTEX
8
Image
10
302.686471
20
187.970475
70
0
0
SEQEND
8
Image
0
POLYLINE
8
Image
62
7
70
0
10
0.000000
20
0.000000
66
1
0
VERTEX
8
Image
10
77.650925
20
212.661281
70
0
0
VERTEX
8
Image
10
78.622668
20
213.518750
70
0
0
VERTEX
8
Image
10
79.529934
20
214.651141
70
0
0
VERTEX
8
Image
10
80.299542
20
215.952258
70
0
0
VERTEX
8
Image
10
80.858314
20
217.315905
70
0
0
VERTEX
8
Image
10
81.223772
20
219.035023
70
0
0
VERTEX
8
Image
10
81.417560
20
221.148793
70
0
0
VERTEX
8
Image
10
81.424627
20
223.334983
70
0
0
VERTEX
8
Image
10
81.229921
20
225.271360
70
0
0
VERTEX
8
Image
10
80.668551
20
227.385974
70
0
0
VERTEX
8
Image
10
79.636849
20
230.341250
70
0
0
VERTEX
8
Image
10
76.781092
20
237.125419
70
0
0
VERTEX
8
Image
10
75.448152
20
239.961696
70
0
0
VERTEX
8
Image
10
73.738814
20
239.802073
70
0
0
VERTEX
8
Image
10
72.136329
20
239.820482
70
0
0
VERTEX
8
Image
10
70.435752
20
240.127279
70
0
0
VERTEX
8
Image
10
68.801784
20
240.680009
70
0
0
VERTEX
8
Image
10
67.399125
20
241.436217
70
0
0
VERTEX
8
Image
10
66.403544
20
242.118021
70
0
0
VERTEX
8
Image
10
64.224129
20
240.369233
70
0
0
VERTEX
8
Image
10
62.634374
20
238.964308
70
0
0
VERTEX
8
Image
10
61.872650
20
238.042279
70
0
0
VERTEX
8
Image
10
61.674213
20
226.599196
70
0
0
VERTEX
8
Image
10
61.647834
20
215.734281
70
0
0
VERTEX
8
Image
10
64.662524
20
215.849665
70
0
0
VERTEX
8
Image
10
67.430464
20
215.846619
70
0
0
VERTEX
8
Image
10
68.241592
20
215.665554
70
0
0
VERTEX
8
Image
10
69.094289
20
215.313567
70
0
0
VERTEX
8
Image
10
70.600286
20
214.465314
70
0
0
VERTEX
8
Image
10
72.231154
20
213.340757
70
0
0
VERTEX
8
Image
10
74.347818
20
211.852134
70
0
0
VERTEX
8
Image
10
75.021247
20
211.743210
70
0
0
VERTEX
8
Image
10
75.871029
20
211.860081
70
0
0
VERTEX
8
Image
10
76.784982
20
212.175265
70
0
0
VERTEX
8
Image
10
77.650920
20
212.661281
70
0
0
VERTEX
8
Image
10
77.650925
20
212.661281
70
0
0
SEQEND
8
Image
0
POLYLINE
8
Image
62
7
70
0
10
0.000000
20
0.000000
66
1
0
VERTEX
8
Image
10
97.472457
20
218.915256
70
0
0
VERTEX
8
Image
10
98.360536
20
219.472165
70
0
0
VERTEX
8
Image
10
99.128261
20
220.394163
70
0
0
VERTEX
8
Image
10
99.832961
20
221.770751
70
0
0
VERTEX
8
Image
10
100.531970
20
223.691429
70
0
0
VERTEX
8
Image
10
101.703677
20
226.891916
70
0
0
VERTEX
8
Image
10
102.286810
20
228.035482
70
0
0
VERTEX
8
Image
10
102.922630
20
228.939096
70
0
0
VERTEX
8
Image
10
103.652014
20
229.651130
70
0
0
VERTEX
8
Image
10
104.515838
20
230.219960
70
0
0
VERTEX
8
Image
10
106.810310
20
231.121502
70
0
0
VERTEX
8
Image
10
110.715236
20
232.463149
70
0
0
VERTEX
8
Image
10
111.572232
20
232.987358
70
0
0
VERTEX
8
Image
10
112.110715
20
233.606915
70
0
0
VERTEX
8
Image
10
112.580476
20
234.645158
70
0
0
VERTEX
8
Image
10
112.708977
20
235.821432
70
0
0
VERTEX
8
Image
10
112.512086
20
237.102427
70
0
0
VERTEX
8
Image
10
112.005668
20
238.454833
70
0
0
VERTEX
8
Image
10
111.205589
20
239.845340
70
0
0
VERTEX
8
Image
10
110.127715
20
241.240639
70
0
0
VERTEX
8
Image
10
108.787913
20
242.607419
70
0
0
VERTEX
8
Image
10
107.202049
20
243.912370
70
0
0
VERTEX
8
Image
10
104.832215
20
245.460298
70
0
0
VERTEX
8
Image
10
102.217251
20
246.739572
70
0
0
VERTEX
8
Image
10
99.205862
20
247.813463
70
0
0
VERTEX
8
Image
10
95.646754
20
248.745243
70
0
0
VERTEX
8
Image
10
92.916914
20
249.166539
70
0
0
VERTEX
8
Image
10
88.899888
20
249.146907
70
0
0
VERTEX
8
Image
10
83.795803
20
248.771956
70
0
0
VERTEX
8
Image
10
82.434942
20
248.467064
70
0
0
VERTEX
8
Image
10
81.897572
20
248.088337
70
0
0
VERTEX
8
Image
10
80.975564
20
245.518339
70
0
0
VERTEX
8
Image
10
79.995255
20
243.514146
70
0
0
VERTEX
8
Image
10
79.374900
20
242.219806
70
0
0
VERTEX
8
Image
10
80.640040
20
238.649851
70
0
0
VERTEX
8
Image
10
83.210136
20
232.529004
70
0
0
VERTEX
8
Image
10
84.972417
20
228.895951
70
0
0
VERTEX
8
Image
10
86.779465
20
225.777571
70
0
0
VERTEX
8
Image
10
88.611825
20
223.192433
70
0
0
VERTEX
8
Image
10
90.450046
20
221.159105
70
0
0
VERTEX
8
Image
10
92.274673
20
219.696156
70
0
0
VERTEX
8
Image
10
94.066253
20
218.822152
70
0
0
VERTEX
8
Image
10
94.943571
20
218.611808
70
0
0
VERTEX
8
Image
10
95.805332
20
218.555663
70
0
0
VERTEX
8
Image
10
96.649104
20
218.656039
70
0
0
VERTEX
8
Image
10
97.472457
20
218.915256
70
0
0
VERTEX
8
Image
10
97.472457
20
218.915256
70
0
0
SEQEND
8
Image
0
POLYLINE
8
Image
62
7
70
0
10
0.000000
20
0.000000
66
1
0
VERTEX
8
Image
10
73.950949
20
243.713192
70
0
0
VERTEX
8
Image
10
75.078897
20
244.272849
70
0
0
VERTEX
8
Image
10
76.229806
20
245.231508
70
0
0
VERTEX
8
Image
10
77.190696
20
246.376967
70
0
0
VERTEX
8
Image
10
77.748588
20
247.497020
70
0
0
VERTEX
8
Image
10
77.888561
20
248.312249
70
0
0
VERTEX
8
Image
10
77.874835
20
249.143241
70
0
0
VERTEX
8
Image
10
77.427143
20
250.763162
70
0
0
VERTEX
8
Image
10
76.487222
20
252.178072
70
0
0
VERTEX
8
Image
10
75.858211
20
252.752801
70
0
0
VERTEX
8
Image
10
75.136786
20
253.209261
70
0
0
VERTEX
8
Image
10
74.074983
20
253.591203
70
0
0
VERTEX
8
Image
10
73.004104
20
253.682533
70
0
0
VERTEX
8
Image
10
71.957507
20
253.502627
70
0
0
VERTEX
8
Image
10
70.968553
20
253.070861
70
0
0
VERTEX
8
Image
10
70.070600
20
252.406613
70
0
0
VERTEX
8
Image
10
69.297006
20
251.529258
70
0
0
VERTEX
8
Image
10
68.681131
20
250.458173
70
0
0
VERTEX
8
Image
10
68.256334
20
249.212735
70
0
0
VERTEX
8
Image
10
68.059861
20
247.494336
70
0
0
VERTEX
8
Image
10
68.359258
20
246.047469
70
0
0
VERTEX
8
Image
10
69.153770
20
244.873939
70
0
0
VERTEX
8
Image
10
70.442641
20
243.975553
70
0
0
VERTEX
8
Image
10
71.314018
20
243.609414
70
0
0
VERTEX
8
Image
10
72.103652
20
243.450038
70
0
0
VERTEX
8
Image
10
72.939858
20
243.487829
70
0
0
VERTEX
8
Image
10
73.950949
20
243.713192
70
0
0
VERTEX
8
Image
10
73.950949
20
243.713192
70
0
0
SEQEND
8
Image
0
POLYLINE
8
Image
62
7
70
0
10
0.000000
20
0.000000
66
1
0
VERTEX
8
Image
10
63.328875
20
244.911488
70
0
0
VERTEX
8
Image
10
64.362961
20
245.874868
70
0
0
VERTEX
8
Image
10
64.450820
20
246.275616
70
0
0
VERTEX
8
Image
10
64.364482
20
246.829715
70
0
0
VERTEX
8
Image
10
64.212072
20
248.014103
70
0
0
VERTEX
8
Image
10
64.239122
20
249.211935
70
0
0
VERTEX
8
Image
10
64.437375
20
250.338021
70
0
0
VERTEX
8
Image
10
64.798573
20
251.307174
70
0
0
VERTEX
8
Image
10
65.343862
20
252.376036
70
0
0
VERTEX
8
Image
10
63.715346
20
253.849764
70
0
0
VERTEX
8
Image
10
61.867334
20
255.323491
70
0
0
VERTEX
8
Image
10
61.712315
20
253.652484
70
0
0
VERTEX
8
Image
10
61.647839
20
249.634957
70
0
0
VERTEX
8
Image
10
61.712805
20
245.617429
70
0
0
VERTEX
8
Image
10
61.869001
20
243.946422
70
0
0
VERTEX
8
Image
10
63.328875
20
244.911488
70
0
0
VERTEX
8
Image
10
63.328875
20
244.911488
70
0
0
SEQEND
8
Image
0
POLYLINE
8
Image
62
7
70
0
10
0.000000
20
0.000000
66
1
0
VERTEX
8
Image
10
289.982968
20
252.181753
70
0
0
VERTEX
8
Image
10
292.688274
20
252.822238
70
0
0
VERTEX
8
Image
10
295.468955
20
253.651515
70
0
0
VERTEX
8
Image
10
301.265419
20
255.880379
70
0
0
VERTEX
8
Image
10
307.390311
20
258.876212
70
0
0
VERTEX
8
Image
10
313.861584
20
262.646884
70
0
0
VERTEX
8
Image
10
314.853770
20
263.267622
70
0
0
VERTEX
8
Image
10
314.853770
20
269.217406
70
0
0
VERTEX
8
Image
10
314.850354
20
273.093183
70
0
0
VERTEX
8
Image
10
314.774388
20
274.192452
70
0
0
VERTEX
8
Image
10
314.585185
20
274.843221
70
0
0
VERTEX
8
Image
10
314.234948
20
275.128424
70
0
0
VERTEX
8
Image
10
313.675879
20
275.130995
70
0
0
VERTEX
8
Image
10
311.740051
20
274.619979
70
0
0
VERTEX
8
Image
10
308.108666
20
273.531034
70
0
0
VERTEX
8
Image
10
304.819605
20
272.298018
70
0
0
VERTEX
8
Image
10
301.866598
20
270.918308
70
0
0
VERTEX
8
Image
10
299.243373
20
269.389279
70
0
0
VERTEX
8
Image
10
295.076045
20
266.276285
70
0
0
VERTEX
8
Image
10
293.078868
20
264.561342
70
0
0
VERTEX
8
Image
10
291.570466
20
263.094452
70
0
0
VERTEX
8
Image
10
289.291295
20
260.460861
70
0
0
VERTEX
8
Image
10
286.767491
20
257.300687
70
0
0
VERTEX
8
Image
10
284.433392
20
254.175864
70
0
0
VERTEX
8
Image
10
282.723340
20
251.648327
70
0
0
VERTEX
8
Image
10
282.702706
20
251.467817
70
0
0
VERTEX
8
Image
10
282.998979
20
251.384230
70
0
0
VERTEX
8
Image
10
284.983461
20
251.473729
70
0
0
VERTEX
8
Image
10
289.982968
20
252.181753
70
0
0
VERTEX
8
Image
10
289.982968
20
252.181753
70
0
0
SEQEND
8
Image
0
POLYLINE
8
Image
62
7
70
0
10
0.000000
20
0.000000
66
1
0
VERTEX
8
Image
10
83.373678
20
252.703140
70
0
0
VERTEX
8
Image
10
86.051214
20
252.958790
70
0
0
VERTEX
8
Image
10
90.487386
20
253.166161
70
0
0
VERTEX
8
Image
10
96.175921
20
253.339119
70
0
0
VERTEX
8
Image
10
98.160293
20
254.289871
70
0
0
VERTEX
8
Image
10
101.135874
20
256.025734
70
0
0
VERTEX
8
Image
10
103.782957
20
258.171168
70
0
0
VERTEX
8
Image
10
105.929995
20
260.563791
70
0
0
VERTEX
8
Image
10
106.762388
20
261.802053
70
0
0
VERTEX
8
Image
10
107.405439
20
263.041218
70
0
0
VERTEX
8
Image
10
107.919934
20
264.472445
70
0
0
VERTEX
8
Image
10
108.266873
20
265.960614
70
0
0
VERTEX
8
Image
10
108.411839
20
267.307356
70
0
0
VERTEX
8
Image
10
108.320410
20
268.314305
70
0
0
VERTEX
8
Image
10
107.963303
20
268.968077
70
0
0
VERTEX
8
Image
10
107.215894
20
269.594489
70
0
0
VERTEX
8
Image
10
105.969514
20
270.264181
70
0
0
VERTEX
8
Image
10
104.115495
20
271.047791
70
0
0
VERTEX
8
Image
10
102.379305
20
271.992254
70
0
0
VERTEX
8
Image
10
101.675099
20
272.610169
70
0
0
VERTEX
8
Image
10
101.067320
20
273.343340
70
0
0
VERTEX
8
Image
10
100.102552
20
275.209846
70
0
0
VERTEX
8
Image
10
99.408011
20
277.700572
70
0
0
VERTEX
8
Image
10
99.069012
20
279.137326
70
0
0
VERTEX
8
Image
10
98.713422
20
280.084150
70
0
0
VERTEX
8
Image
10
98.262229
20
280.693438
70
0
0
VERTEX
8
Image
10
97.636424
20
281.117582
70
0
0
VERTEX
8
Image
10
96.605626
20
281.448208
70
0
0
VERTEX
8
Image
10
95.401697
20
281.486646
70
0
0
VERTEX
8
Image
10
94.061564
20
281.248507
70
0
0
VERTEX
8
Image
10
92.622150
20
280.749405
70
0
0
VERTEX
8
Image
10
91.120382
20
280.004951
70
0
0
VERTEX
8
Image
10
89.593184
20
279.030757
70
0
0
VERTEX
8
Image
10
88.077482
20
277.842437
70
0
0
VERTEX
8
Image
10
86.610200
20
276.455603
70
0
0
VERTEX
8
Image
10
84.981969
20
274.770342
70
0
0
VERTEX
8
Image
10
84.550035
20
270.272431
70
0
0
VERTEX
8
Image
10
84.032343
20
266.159469
70
0
0
VERTEX
8
Image
10
83.286577
20
262.759242
70
0
0
VERTEX
8
Image
10
82.196682
20
259.660883
70
0
0
VERTEX
8
Image
10
80.646602
20
256.453525
70
0
0
VERTEX
8
Image
10
79.623047
20
254.540881
70
0
0
VERTEX
8
Image
10
80.165807
20
253.476966
70
0
0
VERTEX
8
Image
10
80.593224
20
252.787064
70
0
0
VERTEX
8
Image
10
81.117741
20
252.464936
70
0
0
VERTEX
8
Image
10
81.968259
20
252.455367
70
0
0
VERTEX
8
Image
10
83.373678
20
252.703140
70
0
0
VERTEX
8
Image
10
83.373678
20
252.703140
70
0
0
SEQEND
8
Image
0
POLYLINE
8
Image
62
7
70
0
10
0.000000
20
0.000000
66
1
0
VERTEX
8
Image
10
69.773887
20
256.938850
70
0
0
VERTEX
8
Image
10
71.966576
20
258.025069
70
0
0
VERTEX
8
Image
10
71.964195
20
259.783117
70
0
0
VERTEX
8
Image
10
71.568778
20
264.809030
70
0
0
VERTEX
8
Image
10
70.781284
20
269.590071
70
0
0
VERTEX
8
Image
10
69.914251
20
272.450543
70
0
0
VERTEX
8
Image
10
68.815108
20
275.249653
70
0
0
VERTEX
8
Image
10
67.497082
20
277.957274
70
0
0
VERTEX
8
Image
10
65.973398
20
280.543278
70
0
0
VERTEX
8
Image
10
63.685751
20
283.529683
70
0
0
VERTEX
8
Image
10
62.661764
20
284.559545
70
0
0
VERTEX
8
Image
10
62.008508
20
284.956787
70
0
0
VERTEX
8
Image
10
61.825899
20
284.475833
70
0
0
VERTEX
8
Image
10
61.715947
20
282.661232
70
0
0
VERTEX
8
Image
10
61.647839
20
272.800653
70
0
0
VERTEX
8
Image
10
61.647839
20
260.644520
70
0
0
VERTEX
8
Image
10
62.904608
20
259.585897
70
0
0
VERTEX
8
Image
10
67.458785
20
255.855012
70
0
0
VERTEX
8
Image
10
69.773887
20
256.938850
70
0
0
VERTEX
8
Image
10
69.773887
20
256.938850
70
0
0
SEQEND
8
Image
0
POLYLINE
8
Image
62
7
70
0
10
0.000000
20
0.000000
66
1
0
VERTEX
8
Image
10
77.428477
20
258.180696
70
0
0
VERTEX
8
Image
10
78.061857
20
259.342370
70
0
0
VERTEX
8
Image
10
78.738485
20
260.980203
70
0
0
VERTEX
8
Image
10
80.063599
20
265.260170
70
0
0
VERTEX
8
Image
10
80.648984
20
268.339222
70
0
0
VERTEX
8
Image
10
80.917762
20
271.663958
70
0
0
VERTEX
8
Image
10
80.860517
20
274.940564
70
0
0
VERTEX
8
Image
10
80.467834
20
277.875223
70
0
0
VERTEX
8
Image
10
79.931293
20
279.966508
70
0
0
VERTEX
8
Image
10
79.292456
20
281.724942
70
0
0
VERTEX
8
Image
10
78.598839
20
283.040896
70
0
0
VERTEX
8
Image
10
77.897958
20
283.804740
70
0
0
VERTEX
8
Image
10
77.233733
20
284.072259
70
0
0
VERTEX
8
Image
10
76.519422
20
284.007136
70
0
0
VERTEX
8
Image
10
75.708445
20
283.594792
70
0
0
VERTEX
8
Image
10
74.754222
20
282.820650
70
0
0
VERTEX
8
Image
10
73.876797
20
281.886897
70
0
0
VERTEX
8
Image
10
73.248753
20
280.954195
70
0
0
VERTEX
8
Image
10
72.904189
20
280.085698
70
0
0
VERTEX
8
Image
10
72.877202
20
279.344558
70
0
0
VERTEX
8
Image
10
74.834822
20
269.426373
70
0
0
VERTEX
8
Image
10
75.305985
20
265.881821
70
0
0
VERTEX
8
Image
10
75.547268
20
262.599524
70
0
0
VERTEX
8
Image
10
75.864210
20
258.115960
70
0
0
VERTEX
8
Image
10
76.084797
20
257.364843
70
0
0
VERTEX
8
Image
10
76.407620
20
257.227721
70
0
0
VERTEX
8
Image
10
76.886989
20
257.542225
70
0
0
VERTEX
8
Image
10
77.428477
20
258.180696
70
0
0
VERTEX
8
Image
10
77.428477
20
258.180696
70
0
0
SEQEND
8
Image
0
POLYLINE
8
Image
62
7
70
0
10
0.000000
20
0.000000
66
1
0
VERTEX
8
Image
10
162.019572
20
273.550085
70
0
0
VERTEX
8
Image
10
164.716440
20
276.011626
70
0
0
VERTEX
8
Image
10
167.242893
20
278.918421
70
0
0
VERTEX
8
Image
10
169.445897
20
282.074294
70
0
0
VERTEX
8
Image
10
171.172419
20
285.283071
70
0
0
VERTEX
8
Image
10
172.007187
20
287.276246
70
0
0
VERTEX
8
Image
10
172.672229
20
289.232557
70
0
0
VERTEX
8
Image
10
173.176533
20
291.221593
70
0
0
VERTEX
8
Image
10
173.529086
20
293.312947
70
0
0
VERTEX
8
Image
10
173.814883
20
298.080971
70
0
0
VERTEX
8
Image
10
173.601516
20
304.093361
70
0
0
VERTEX
8
Image
10
173.434157
20
306.693524
70
0
0
VERTEX
8
Image
10
170.067012
20
303.035029
70
0
0
VERTEX
8
Image
10
165.995232
20
298.336925
70
0
0
VERTEX
8
Image
10
164.596225
20
296.404592
70
0
0
VERTEX
8
Image
10
163.310168
20
294.349484
70
0
0
VERTEX
8
Image
10
162.215017
20
292.282210
70
0
0
VERTEX
8
Image
10
161.288607
20
290.089068
70
0
0
VERTEX
8
Image
10
160.535187
20
287.791173
70
0
0
VERTEX
8
Image
10
159.959005
20
285.409644
70
0
0
VERTEX
8
Image
10
159.564311
20
282.965596
70
0
0
VERTEX
8
Image
10
159.355353
20
280.480145
70
0
0
VERTEX
8
Image
10
159.336379
20
277.974408
70
0
0
VERTEX
8
Image
10
159.511638
20
275.469502
70
0
0
VERTEX
8
Image
10
159.870236
20
272.875669
70
0
0
VERTEX
8
Image
10
160.041323
20
272.388481
70
0
0
VERTEX
8
Image
10
160.249250
20
272.256803
70
0
0
VERTEX
8
Image
10
162.019572
20
273.550085
70
0
0
VERTEX
8
Image
10
162.019572
20
273.550085
70
0
0
SEQEND
8
Image
0
POLYLINE
8
Image
62
7
70
0
10
0.000000
20
0.000000
66
1
0
VERTEX
8
Image
10
199.633305
20
276.423985
70
0
0
VERTEX
8
Image
10
199.226218
20
279.877375
70
0
0
VERTEX
8
Image
10
198.533816
20
283.441485
70
0
0
VERTEX
8
Image
10
197.294856
20
287.273793
70
0
0
VERTEX
8
Image
10
195.667378
20
290.959773
70
0
0
VERTEX
8
Image
10
193.809426
20
294.084901
70
0
0
VERTEX
8
Image
10
192.407860
20
295.791565
70
0
0
VERTEX
8
Image
10
190.566519
20
297.663081
70
0
0
VERTEX
8
Image
10
188.552523
20
299.446233
70
0
0
VERTEX
8
Image
10
186.632991
20
300.887806
70
0
0
VERTEX
8
Image
10
182.425206
20
303.286806
70
0
0
VERTEX
8
Image
10
180.571753
20
304.163806
70
0
0
VERTEX
8
Image
10
179.702657
20
304.410331
70
0
0
VERTEX
8
Image
10
179.983178
20
300.357925
70
0
0
VERTEX
8
Image
10
180.462242
20
297.105096
70
0
0
VERTEX
8
Image
10
181.128671
20
294.113290
70
0
0
VERTEX
8
Image
10
181.972846
20
291.418724
70
0
0
VERTEX
8
Image
10
182.985148
20
289.057612
70
0
0
VERTEX
8
Image
10
184.688608
20
286.269156
70
0
0
VERTEX
8
Image
10
186.930765
20
283.525337
70
0
0
VERTEX
8
Image
10
189.540016
20
281.012096
70
0
0
VERTEX
8
Image
10
192.344763
20
278.915378
70
0
0
VERTEX
8
Image
10
196.287270
20
276.802250
70
0
0
VERTEX
8
Image
10
199.432564
20
275.442806
70
0
0
VERTEX
8
Image
10
199.655718
20
275.669633
70
0
0
VERTEX
8
Image
10
199.633305
20
276.423985
70
0
0
VERTEX
8
Image
10
199.633305
20
276.423985
70
0
0
SEQEND
8
Image
0
POLYLINE
8
Image
62
7
70
0
10
0.000000
20
0.000000
66
1
0
VERTEX
8
Image
10
68.262414
20
295.137041
70
0
0
VERTEX
8
Image
10
75.984013
20
296.129234
70
0
0
VERTEX
8
Image
10
83.608228
20
297.530724
70
0
0
VERTEX
8
Image
10
89.218858
20
298.807972
70
0
0
VERTEX
8
Image
10
94.602356
20
300.231338
70
0
0
VERTEX
8
Image
10
99.916492
20
301.859422
70
0
0
VERTEX
8
Image
10
105.319032
20
303.750822
70
0
0
VERTEX
8
Image
10
110.967744
20
305.964138
70
0
0
VERTEX
8
Image
10
117.020395
20
308.557970
70
0
0
VERTEX
8
Image
10
130.968585
20
315.121577
70
0
0
VERTEX
8
Image
10
138.657318
20
318.808264
70
0
0
VERTEX
8
Image
10
142.838625
20
320.656548
70
0
0
VERTEX
8
Image
10
145.449662
20
321.352338
70
0
0
VERTEX
8
Image
10
148.099989
20
321.784648
70
0
0
VERTEX
8
Image
10
150.772857
20
321.954857
70
0
0
VERTEX
8
Image
10
153.451518
20
321.864346
70
0
0
VERTEX
8
Image
10
156.119224
20
321.514494
70
0
0
VERTEX
8
Image
10
158.759228
20
320.906679
70
0
0
VERTEX
8
Image
10
161.354782
20
320.042282
70
0
0
VERTEX
8
Image
10
163.889137
20
318.922683
70
0
0
VERTEX
8
Image
10
165.595657
20
317.941264
70
0
0
VERTEX
8
Image
10
167.449153
20
316.682505
70
0
0
VERTEX
8
Image
10
169.081423
20
315.413417
70
0
0
VERTEX
8
Image
10
170.124263
20
314.401012
70
0
0
VERTEX
8
Image
10
171.767768
20
312.514257
70
0
0
VERTEX
8
Image
10
172.689374
20
311.772724
70
0
0
VERTEX
8
Image
10
172.522150
20
312.457441
70
0
0
VERTEX
8
Image
10
171.706672
20
313.800848
70
0
0
VERTEX
8
Image
10
170.484196
20
315.448822
70
0
0
VERTEX
8
Image
10
169.095980
20
317.047239
70
0
0
VERTEX
8
Image
10
167.541661
20
318.541153
70
0
0
VERTEX
8
Image
10
165.850552
20
319.906632
70
0
0
VERTEX
8
Image
10
164.006680
20
321.151881
70
0
0
VERTEX
8
Image
10
161.994070
20
322.285106
70
0
0
VERTEX
8
Image
10
159.796750
20
323.314512
70
0
0
VERTEX
8
Image
10
157.398745
20
324.248305
70
0
0
VERTEX
8
Image
10
151.936788
20
325.861874
70
0
0
VERTEX
8
Image
10
150.582040
20
326.279959
70
0
0
VERTEX
8
Image
10
150.018561
20
326.622498
70
0
0
VERTEX
8
Image
10
150.426598
20
327.217687
70
0
0
VERTEX
8
Image
10
151.407622
20
328.243148
70
0
0
VERTEX
8
Image
10
154.870878
20
331.180452
70
0
0
VERTEX
8
Image
10
162.371740
20
337.004364
70
0
0
VERTEX
8
Image
10
172.654017
20
344.945638
70
0
0
VERTEX
8
Image
10
180.710189
20
351.357913
70
0
0
VERTEX
8
Image
10
185.319455
20
354.952908
70
0
0
VERTEX
8
Image
10
191.404864
20
359.643223
70
0
0
VERTEX
8
Image
10
199.647082
20
365.898855
70
0
0
VERTEX
8
Image
10
205.100048
20
369.732858
70
0
0
VERTEX
8
Image
10
206.990428
20
370.877399
70
0
0
VERTEX
8
Image
10
208.435333
20
371.579313
70
0
0
VERTEX
8
Image
10
209.518712
20
371.892861
70
0
0
VERTEX
8
Image
10
210.324509
20
371.872302
70
0
0
VERTEX
8
Image
10
213.433132
20
370.243397
70
0
0
VERTEX
8
Image
10
215.927105
20
368.873570
70
0
0
VERTEX
8
Image
10
217.908561
20
368.167747
70
0
0
VERTEX
8
Image
10
219.726279
20
368.050354
70
0
0
VERTEX
8
Image
10
221.729039
20
368.445820
70
0
0
VERTEX
8
Image
10
223.955584
20
369.049123
70
0
0
VERTEX
8
Image
10
224.399897
20
369.194199
70
0
0
VERTEX
8
Image
10
224.640782
20
369.465116
70
0
0
VERTEX
8
Image
10
224.809256
20
371.096916
70
0
0
VERTEX
8
Image
10
225.286159
20
375.057644
70
0
0
VERTEX
8
Image
10
225.663514
20
377.398433
70
0
0
VERTEX
8
Image
10
225.593727
20
377.752542
70
0
0
VERTEX
8
Image
10
225.358570
20
377.827934
70
0
0
VERTEX
8
Image
10
223.387967
20
378.870840
70
0
0
VERTEX
8
Image
10
222.124838
20
379.819057
70
0
0
VERTEX
8
Image
10
221.043516
20
380.941900
70
0
0
VERTEX
8
Image
10
220.153509
20
382.227755
70
0
0
VERTEX
8
Image
10
219.464325
20
383.665005
70
0
0
VERTEX
8
Image
10
219.043189
20
384.586065
70
0
0
VERTEX
8
Image
10
218.741355
20
384.969161
70
0
0
VERTEX
8
Image
10
217.210737
20
384.293122
70
0
0
VERTEX
8
Image
10
215.036513
20
382.926580
70
0
0
VERTEX
8
Image
10
213.727885
20
381.766631
70
0
0
VERTEX
8
Image
10
212.598004
20
380.321145
70
0
0
VERTEX
8
Image
10
211.642953
20
378.584146
70
0
0
VERTEX
8
Image
10
210.858811
20
376.549654
70
0
0
VERTEX
8
Image
10
209.822804
20
373.607941
70
0
0
VERTEX
8
Image
10
208.894362
20
372.882785
70
0
0
VERTEX
8
Image
10
206.989890
20
371.751706
70
0
0
VERTEX
8
Image
10
201.265455
20
368.583394
70
0
0
VERTEX
8
Image
10
197.511210
20
366.335692
70
0
0
VERTEX
8
Image
10
190.497553
20
361.791525
70
0
0
VERTEX
8
Image
10
184.546643
20
357.731664
70
0
0
VERTEX
8
Image
10
171.338913
20
347.710689
70
0
0
VERTEX
8
Image
10
161.216684
20
339.944061
70
0
0
VERTEX
8
Image
10
151.977291
20
333.171390
70
0
0
VERTEX
8
Image
10
143.413083
20
327.266063
70
0
0
VERTEX
8
Image
10
135.316405
20
322.101469
70
0
0
VERTEX
8
Image
10
127.479606
20
317.550996
70
0
0
VERTEX
8
Image
10
119.695033
20
313.488032
70
0
0
VERTEX
8
Image
10
111.755033
20
309.785966
70
0
0
VERTEX
8
Image
10
103.451953
20
306.318187
70
0
0
VERTEX
8
Image
10
97.301794
20
304.068398
70
0
0
VERTEX
8
Image
10
92.207176
20
302.418921
70
0
0
VERTEX
8
Image
10
88.899888
20
301.542807
70
0
0
VERTEX
8
Image
10
82.973763
20
300.123812
70
0
0
VERTEX
8
Image
10
76.741260
20
298.927001
70
0
0
VERTEX
8
Image
10
70.668027
20
298.031547
70
0
0
VERTEX
8
Image
10
65.219710
20
297.516621
70
0
0
VERTEX
8
Image
10
63.136054
20
297.372628
70
0
0
VERTEX
8
Image
10
62.077729
20
297.161938
70
0
0
VERTEX
8
Image
10
61.824532
20
296.983041
70
0
0
VERTEX
8
Image
10
61.697427
20
296.729221
70
0
0
VERTEX
8
Image
10
61.647839
20
295.919149
70
0
0
VERTEX
8
Image
10
61.647839
20
294.746358
70
0
0
VERTEX
8
Image
10
63.036900
20
294.746358
70
0
0
VERTEX
8
Image
10
68.262414
20
295.136459
70
0
0
VERTEX
8
Image
10
68.262414
20
295.137041
70
0
0
SEQEND
8
Image
0
POLYLINE
8
Image
62
7
70
0
10
0.000000
20
0.000000
66
1
0
VERTEX
8
Image
10
302.613473
20
304.127916
70
0
0
VERTEX
8
Image
10
303.989350
20
304.955105
70
0
0
VERTEX
8
Image
10
305.351377
20
306.037861
70
0
0
VERTEX
8
Image
10
306.805378
20
307.668788
70
0
0
VERTEX
8
Image
10
308.410314
20
309.896404
70
0
0
VERTEX
8
Image
10
309.938396
20
312.378292
70
0
0
VERTEX
8
Image
10
311.161832
20
314.772037
70
0
0
VERTEX
8
Image
10
312.203839
20
316.935082
70
0
0
VERTEX
8
Image
10
313.165916
20
313.098629
70
0
0
VERTEX
8
Image
10
314.255098
20
308.835403
70
0
0
VERTEX
8
Image
10
314.406562
20
308.449778
70
0
0
VERTEX
8
Image
10
314.605532
20
308.256270
70
0
0
VERTEX
8
Image
10
314.780461
20
308.286183
70
0
0
VERTEX
8
Image
10
314.859802
20
308.570820
70
0
0
VERTEX
8
Image
10
314.870650
20
320.835750
70
0
0
VERTEX
8
Image
10
314.305663
20
321.088245
70
0
0
VERTEX
8
Image
10
312.877811
20
321.277736
70
0
0
VERTEX
8
Image
10
310.684051
20
321.667100
70
0
0
VERTEX
8
Image
10
308.955329
20
322.479836
70
0
0
VERTEX
8
Image
10
308.256414
20
323.051089
70
0
0
VERTEX
8
Image
10
307.663029
20
323.735532
70
0
0
VERTEX
8
Image
10
306.778538
20
325.453782
70
0
0
VERTEX
8
Image
10
306.491752
20
326.463814
70
0
0
VERTEX
8
Image
10
306.412679
20
327.356335
70
0
0
VERTEX
8
Image
10
306.544476
20
328.237530
70
0
0
VERTEX
8
Image
10
306.890298
20
329.213585
70
0
0
VERTEX
8
Image
10
307.941529
20
331.045500
70
0
0
VERTEX
8
Image
10
309.301545
20
332.344859
70
0
0
VERTEX
8
Image
10
310.100733
20
332.797140
70
0
0
VERTEX
8
Image
10
310.981180
20
333.119054
70
0
0
VERTEX
8
Image
10
312.991264
20
333.375476
70
0
0
VERTEX
8
Image
10
314.853770
20
333.375476
70
0
0
VERTEX
8
Image
10
314.853770
20
344.091087
70
0
0
VERTEX
8
Image
10
314.836079
20
350.930307
70
0
0
VERTEX
8
Image
10
314.655293
20
354.143800
70
0
0
VERTEX
8
Image
10
314.443873
20
354.710525
70
0
0
VERTEX
8
Image
10
314.119840
20
354.754371
70
0
0
VERTEX
8
Image
10
313.038149
20
353.784827
70
0
0
VERTEX
8
Image
10
312.214628
20
352.798762
70
0
0
VERTEX
8
Image
10
311.468887
20
351.570479
70
0
0
VERTEX
8
Image
10
310.804209
20
350.110893
70
0
0
VERTEX
8
Image
10
310.223875
20
348.430920
70
0
0
VERTEX
8
Image
10
309.329367
20
344.453475
70
0
0
VERTEX
8
Image
10
308.811620
20
339.725468
70
0
0
VERTEX
8
Image
10
308.636069
20
336.947346
70
0
0
VERTEX
8
Image
10
306.356343
20
340.386925
70
0
0
VERTEX
8
Image
10
304.210126
20
343.369631
70
0
0
VERTEX
8
Image
10
302.081919
20
345.824303
70
0
0
VERTEX
8
Image
10
299.987244
20
347.742489
70
0
0
VERTEX
8
Image
10
297.941621
20
349.115734
70
0
0
VERTEX
8
Image
10
295.960574
20
349.935583
70
0
0
VERTEX
8
Image
10
294.059624
20
350.193582
70
0
0
VERTEX
8
Image
10
292.254293
20
349.881276
70
0
0
VERTEX
8
Image
10
290.560103
20
348.990212
70
0
0
VERTEX
8
Image
10
289.671128
20
348.199744
70
0
0
VERTEX
8
Image
10
289.001245
20
347.284172
70
0
0
VERTEX
8
Image
10
288.551928
20
346.258314
70
0
0
VERTEX
8
Image
10
288.324651
20
345.136991
70
0
0
VERTEX
8
Image
10
288.320888
20
343.935020
70
0
0
VERTEX
8
Image
10
288.542111
20
342.667220
70
0
0
VERTEX
8
Image
10
288.989796
20
341.348411
70
0
0
VERTEX
8
Image
10
289.665415
20
339.993411
70
0
0
VERTEX
8
Image
10
290.998373
20
338.268873
70
0
0
VERTEX
8
Image
10
293.195617
20
335.973595
70
0
0
VERTEX
8
Image
10
295.774203
20
333.581569
70
0
0
VERTEX
8
Image
10
298.251187
20
331.566787
70
0
0
VERTEX
8
Image
10
300.830871
20
329.434010
70
0
0
VERTEX
8
Image
10
300.584990
20
329.213723
70
0
0
VERTEX
8
Image
10
299.765858
20
329.018330
70
0
0
VERTEX
8
Image
10
295.918914
20
328.621343
70
0
0
VERTEX
8
Image
10
291.673649
20
328.123353
70
0
0
VERTEX
8
Image
10
288.426678
20
327.346929
70
0
0
VERTEX
8
Image
10
287.111951
20
326.832443
70
0
0
VERTEX
8
Image
10
285.968077
20
326.222114
70
0
0
VERTEX
8
Image
10
284.968816
20
325.507198
70
0
0
VERTEX
8
Image
10
284.087926
20
324.678950
70
0
0
VERTEX
8
Image
10
283.055557
20
323.334422
70
0
0
VERTEX
8
Image
10
282.439072
20
321.894029
70
0
0
VERTEX
8
Image
10
282.140460
20
320.413611
70
0
0
VERTEX
8
Image
10
282.434045
20
318.945278
70
0
0
VERTEX
8
Image
10
282.839656
20
317.901277
70
0
0
VERTEX
8
Image
10
283.404596
20
316.988728
70
0
0
VERTEX
8
Image
10
284.116703
20
316.215002
70
0
0
VERTEX
8
Image
10
284.963819
20
315.587472
70
0
0
VERTEX
8
Image
10
285.933783
20
315.113508
70
0
0
VERTEX
8
Image
10
287.014436
20
314.800483
70
0
0
VERTEX
8
Image
10
288.193620
20
314.655768
70
0
0
VERTEX
8
Image
10
289.459173
20
314.686735
70
0
0
VERTEX
8
Image
10
293.630337
20
315.483338
70
0
0
VERTEX
8
Image
10
295.745903
20
316.064327
70
0
0
VERTEX
8
Image
10
297.149834
20
316.586388
70
0
0
VERTEX
8
Image
10
297.694101
20
316.807560
70
0
0
VERTEX
8
Image
10
297.920432
20
316.779693
70
0
0
VERTEX
8
Image
10
296.987062
20
313.963471
70
0
0
VERTEX
8
Image
10
296.246021
20
311.635565
70
0
0
VERTEX
8
Image
10
295.897463
20
309.815425
70
0
0
VERTEX
8
Image
10
295.925212
20
308.336666
70
0
0
VERTEX
8
Image
10
296.313090
20
307.032905
70
0
0
VERTEX
8
Image
10
296.866958
20
305.952107
70
0
0
VERTEX
8
Image
10
297.480218
20
305.123806
70
0
0
VERTEX
8
Image
10
298.209426
20
304.486243
70
0
0
VERTEX
8
Image
10
299.111134
20
303.977659
70
0
0
VERTEX
8
Image
10
300.010897
20
303.622552
70
0
0
VERTEX
8
Image
10
300.761683
20
303.523525
70
0
0
VERTEX
8
Image
10
301.562792
20
303.689130
70
0
0
VERTEX
8
Image
10
302.613525
20
304.127916
70
0
0
VERTEX
8
Image
10
302.613473
20
304.127916
70
0
0
SEQEND
8
Image
0
POLYLINE
8
Image
62
7
70
0
10
0.000000
20
0.000000
66
1
0
VERTEX
8
Image
10
66.154547
20
305.081208
70
0
0
VERTEX
8
Image
10
68.877276
20
306.220441
70
0
0
VERTEX
8
Image
10
71.454559
20
307.465369
70
0
0
VERTEX
8
Image
10
73.917523
20
308.837212
70
0
0
VERTEX
8
Image
10
76.297295
20
310.357192
70
0
0
VERTEX
8
Image
10
78.625001
20
312.046527
70
0
0
VERTEX
8
Image
10
80.931768
20
313.926439
70
0
0
VERTEX
8
Image
10
85.606991
20
318.342875
70
0
0
VERTEX
8
Image
10
88.405827
20
321.384531
70
0
0
VERTEX
8
Image
10
90.669237
20
324.121447
70
0
0
VERTEX
8
Image
10
92.623565
20
326.885173
70
0
0
VERTEX
8
Image
10
94.174977
20
329.346562
70
0
0
VERTEX
8
Image
10
95.093481
20
331.112026
70
0
0
VERTEX
8
Image
10
95.243522
20
331.610790
70
0
0
VERTEX
8
Image
10
95.149090
20
331.787978
70
0
0
VERTEX
8
Image
10
93.230863
20
331.099665
70
0
0
VERTEX
8
Image
10
87.180098
20
329.124606
70
0
0
VERTEX
8
Image
10
81.593677
20
327.343837
70
0
0
VERTEX
8
Image
10
77.567994
20
325.736224
70
0
0
VERTEX
8
Image
10
74.448118
20
324.198654
70
0
0
VERTEX
8
Image
10
71.477024
20
322.369111
70
0
0
VERTEX
8
Image
10
68.728927
20
320.298204
70
0
0
VERTEX
8
Image
10
66.278042
20
318.036541
70
0
0
VERTEX
8
Image
10
63.367629
20
315.440320
70
0
0
VERTEX
8
Image
10
61.850327
20
314.201940
70
0
0
VERTEX
8
Image
10
61.711852
20
312.509250
70
0
0
VERTEX
8
Image
10
61.651890
20
308.823417
70
0
0
VERTEX
8
Image
10
61.647842
20
303.718209
70
0
0
VERTEX
8
Image
10
62.620864
20
303.900745
70
0
0
VERTEX
8
Image
10
66.154550
20
305.081208
70
0
0
VERTEX
8
Image
10
66.154547
20
305.081208
70
0
0
SEQEND
8
Image
0
POLYLINE
8
Image
62
7
70
0
10
0.000000
20
0.000000
66
1
0
VERTEX
8
Image
10
194.814823
20
309.560625
70
0
0
VERTEX
8
Image
10
197.235124
20
310.229480
70
0
0
VERTEX
8
Image
10
199.831566
20
311.169914
70
0
0
VERTEX
8
Image
10
202.313522
20
312.265413
70
0
0
VERTEX
8
Image
10
204.390367
20
313.399460
70
0
0
VERTEX
8
Image
10
208.335698
20
316.233841
70
0
0
VERTEX
8
Image
10
209.950232
20
317.568744
70
0
0
VERTEX
8
Image
10
210.608068
20
318.284694
70
0
0
VERTEX
8
Image
10
210.297183
20
318.544623
70
0
0
VERTEX
8
Image
10
209.549736
20
318.813225
70
0
0
VERTEX
8
Image
10
207.409328
20
319.369166
70
0
0
VERTEX
8
Image
10
203.784374
20
320.089175
70
0
0
VERTEX
8
Image
10
200.162768
20
320.377953
70
0
0
VERTEX
8
Image
10
196.586855
20
320.244750
70
0
0
VERTEX
8
Image
10
193.098979
20
319.698817
70
0
0
VERTEX
8
Image
10
189.741485
20
318.749404
70
0
0
VERTEX
8
Image
10
186.556716
20
317.405761
70
0
0
VERTEX
8
Image
10
183.587018
20
315.677139
70
0
0
VERTEX
8
Image
10
180.874733
20
313.572788
70
0
0
VERTEX
8
Image
10
179.519564
20
312.281967
70
0
0
VERTEX
8
Image
10
178.907477
20
311.535896
70
0
0
VERTEX
8
Image
10
179.445975
20
311.111003
70
0
0
VERTEX
8
Image
10
180.938288
20
310.527388
70
0
0
VERTEX
8
Image
10
182.990350
20
309.917723
70
0
0
VERTEX
8
Image
10
185.208100
20
309.414681
70
0
0
VERTEX
8
Image
10
187.482105
20
309.139583
70
0
0
VERTEX
8
Image
10
190.030200
20
309.075082
70
0
0
VERTEX
8
Image
10
192.568926
20
309.216866
70
0
0
VERTEX
8
Image
10
194.814823
20
309.560625
70
0
0
VERTEX
8
Image
10
194.814823
20
309.560625
70
0
0
SEQEND
8
Image
0
POLYLINE
8
Image
62
7
70
0
10
0.000000
20
0.000000
66
1
0
VERTEX
8
Image
10
143.800860
20
332.995958
70
0
0
VERTEX
8
Image
10
146.107134
20
334.975975
70
0
0
VERTEX
8
Image
10
149.085316
20
337.859258
70
0
0
VERTEX
8
Image
10
152.006020
20
340.911848
70
0
0
VERTEX
8
Image
10
154.139862
20
343.399785
70
0
0
VERTEX
8
Image
10
157.116372
20
347.606823
70
0
0
VERTEX
8
Image
10
159.604258
20
351.812228
70
0
0
VERTEX
8
Image
10
161.658804
20
356.119610
70
0
0
VERTEX
8
Image
10
163.335293
20
360.632579
70
0
0
VERTEX
8
Image
10
164.780180
20
365.619821
70
0
0
VERTEX
8
Image
10
165.734537
20
370.278980
70
0
0
VERTEX
8
Image
10
166.261125
20
375.007925
70
0
0
VERTEX
8
Image
10
166.422707
20
380.204524
70
0
0
VERTEX
8
Image
10
166.321818
20
383.948918
70
0
0
VERTEX
8
Image
10
166.062397
20
387.569777
70
0
0
VERTEX
8
Image
10
165.709314
20
390.385423
70
0
0
VERTEX
8
Image
10
165.327439
20
391.714175
70
0
0
VERTEX
8
Image
10
164.821311
20
391.532131
70
0
0
VERTEX
8
Image
10
163.816313
20
390.668320
70
0
0
VERTEX
8
Image
10
160.804826
20
387.460002
70
0
0
VERTEX
8
Image
10
157.283221
20
383.218426
70
0
0
VERTEX
8
Image
10
154.241742
20
379.072797
70
0
0
VERTEX
8
Image
10
151.144958
20
373.939764
70
0
0
VERTEX
8
Image
10
149.954440
20
371.532292
70
0
0
VERTEX
8
Image
10
148.982154
20
369.175901
70
0
0
VERTEX
8
Image
10
148.212839
20
366.829378
70
0
0
VERTEX
8
Image
10
147.631234
20
364.451512
70
0
0
VERTEX
8
Image
10
147.222077
20
362.001091
70
0
0
VERTEX
8
Image
10
146.970104
20
359.436902
70
0
0
VERTEX
8
Image
10
146.328328
20
352.656171
70
0
0
VERTEX
8
Image
10
145.353604
20
346.248497
70
0
0
VERTEX
8
Image
10
144.062010
20
340.301535
70
0
0
VERTEX
8
Image
10
142.469624
20
334.902940
70
0
0
VERTEX
8
Image
10
141.373375
20
331.680451
70
0
0
VERTEX
8
Image
10
141.312234
20
331.363118
70
0
0
VERTEX
8
Image
10
141.568218
20
331.407107
70
0
0
VERTEX
8
Image
10
143.800860
20
332.995958
70
0
0
VERTEX
8
Image
10
143.800860
20
332.995958
70
0
0
SEQEND
8
Image
0
POLYLINE
8
Image
62
7
70
0
10
0.000000
20
0.000000
66
1
0
VERTEX
8
Image
10
251.411780
20
357.464171
70
0
0
VERTEX
8
Image
10
252.831032
20
358.120071
70
0
0
VERTEX
8
Image
10
253.773552
20
359.117401
70
0
0
VERTEX
8
Image
10
254.185424
20
360.366721
70
0
0
VERTEX
8
Image
10
254.175518
20
361.057928
70
0
0
VERTEX
8
Image
10
254.012732
20
361.778593
70
0
0
VERTEX
8
Image
10
253.669817
20
362.512265
70
0
0
VERTEX
8
Image
10
253.121067
20
363.309514
70
0
0
VERTEX
8
Image
10
251.548672
20
364.966504
70
0
0
VERTEX
8
Image
10
249.580769
20
366.493087
70
0
0
VERTEX
8
Image
10
247.502577
20
367.632783
70
0
0
VERTEX
8
Image
10
244.969443
20
368.558172
70
0
0
VERTEX
8
Image
10
241.828862
20
369.490129
70
0
0
VERTEX
8
Image
10
238.918449
20
370.287371
70
0
0
VERTEX
8
Image
10
236.140328
20
371.069902
70
0
0
VERTEX
8
Image
10
231.754317
20
372.421841
70
0
0
VERTEX
8
Image
10
228.741010
20
373.327509
70
0
0
VERTEX
8
Image
10
228.632439
20
372.851905
70
0
0
VERTEX
8
Image
10
228.673031
20
371.708420
70
0
0
VERTEX
8
Image
10
228.989509
20
370.121663
70
0
0
VERTEX
8
Image
10
229.822646
20
368.633330
70
0
0
VERTEX
8
Image
10
231.456461
20
366.671394
70
0
0
VERTEX
8
Image
10
233.608798
20
364.694124
70
0
0
VERTEX
8
Image
10
236.136045
20
362.785455
70
0
0
VERTEX
8
Image
10
238.894588
20
361.029324
70
0
0
VERTEX
8
Image
10
241.740816
20
359.509667
70
0
0
VERTEX
8
Image
10
244.531115
20
358.310420
70
0
0
VERTEX
8
Image
10
247.121873
20
357.515519
70
0
0
VERTEX
8
Image
10
249.369478
20
357.208901
70
0
0
VERTEX
8
Image
10
251.411780
20
357.464171
70
0
0
VERTEX
8
Image
10
251.411780
20
357.464171
70
0
0
SEQEND
8
Image
0
POLYLINE
8
Image
62
7
70
0
10
0.000000
20
0.000000
66
1
0
VERTEX
8
Image
10
252.412182
20
373.300363
70
0
0
VERTEX
8
Image
10
253.919741
20
373.906495
70
0
0
VERTEX
8
Image
10
255.090831
20
374.582115
70
0
0
VERTEX
8
Image
10
255.981979
20
375.367263
70
0
0
VERTEX
8
Image
10
256.649714
20
376.301978
70
0
0
VERTEX
8
Image
10
257.058347
20
377.215788
70
0
0
VERTEX
8
Image
10
257.262632
20
378.125231
70
0
0
VERTEX
8
Image
10
257.267116
20
379.016976
70
0
0
VERTEX
8
Image
10
257.076347
20
379.877694
70
0
0
VERTEX
8
Image
10
256.694875
20
380.694056
70
0
0
VERTEX
8
Image
10
256.127246
20
381.452730
70
0
0
VERTEX
8
Image
10
255.378009
20
382.140388
70
0
0
VERTEX
8
Image
10
254.451712
20
382.743700
70
0
0
VERTEX
8
Image
10
253.616137
20
383.162867
70
0
0
VERTEX
8
Image
10
252.830319
20
383.386991
70
0
0
VERTEX
8
Image
10
250.030935
20
383.479241
70
0
0
VERTEX
8
Image
10
247.634856
20
383.371420
70
0
0
VERTEX
8
Image
10
245.352166
20
383.002430
70
0
0
VERTEX
8
Image
10
242.629149
20
382.248025
70
0
0
VERTEX
8
Image
10
238.912091
20
380.983959
70
0
0
VERTEX
8
Image
10
232.370020
20
378.662481
70
0
0
VERTEX
8
Image
10
230.454687
20
377.901402
70
0
0
VERTEX
8
Image
10
229.658044
20
377.423651
70
0
0
VERTEX
8
Image
10
229.887648
20
377.156498
70
0
0
VERTEX
8
Image
10
230.546840
20
376.798373
70
0
0
VERTEX
8
Image
10
232.976254
20
375.869259
70
0
0
VERTEX
8
Image
10
236.590831
20
374.756401
70
0
0
VERTEX
8
Image
10
241.035113
20
373.579895
70
0
0
VERTEX
8
Image
10
244.077818
20
372.825807
70
0
0
VERTEX
8
Image
10
245.876685
20
372.612365
70
0
0
VERTEX
8
Image
10
248.199161
20
372.639312
70
0
0
VERTEX
8
Image
10
250.544556
20
372.878146
70
0
0
VERTEX
8
Image
10
252.412182
20
373.300363
70
0
0
VERTEX
8
Image
10
252.412182
20
373.300363
70
0
0
SEQEND
8
Image
0
POLYLINE
8
Image
62
7
70
0
10
0.000000
20
0.000000
66
1
0
VERTEX
8
Image
10
233.097623
20
383.000055
70
0
0
VERTEX
8
Image
10
238.804333
20
385.013958
70
0
0
VERTEX
8
Image
10
242.633554
20
386.703096
70
0
0
VERTEX
8
Image
10
244.109909
20
387.566275
70
0
0
VERTEX
8
Image
10
245.435855
20
388.516738
70
0
0
VERTEX
8
Image
10
248.061808
20
390.904155
70
0
0
VERTEX
8
Image
10
250.131866
20
393.110060
70
0
0
VERTEX
8
Image
10
251.472828
20
394.899626
70
0
0
VERTEX
8
Image
10
252.195874
20
396.452918
70
0
0
VERTEX
8
Image
10
252.412182
20
397.950000
70
0
0
VERTEX
8
Image
10
252.301943
20
398.870671
70
0
0
VERTEX
8
Image
10
251.985505
20
399.670822
70
0
0
VERTEX
8
Image
10
251.484288
20
400.337612
70
0
0
VERTEX
8
Image
10
250.819714
20
400.858194
70
0
0
VERTEX
8
Image
10
250.013202
20
401.219725
70
0
0
VERTEX
8
Image
10
249.086173
20
401.409360
70
0
0
VERTEX
8
Image
10
248.060048
20
401.414256
70
0
0
VERTEX
8
Image
10
246.956245
20
401.221569
70
0
0
VERTEX
8
Image
10
245.447492
20
400.732157
70
0
0
VERTEX
8
Image
10
244.028512
20
400.050230
70
0
0
VERTEX
8
Image
10
242.586255
20
399.111758
70
0
0
VERTEX
8
Image
10
241.007670
20
397.852713
70
0
0
VERTEX
8
Image
10
238.182990
20
395.115138
70
0
0
VERTEX
8
Image
10
234.693405
20
391.293158
70
0
0
VERTEX
8
Image
10
231.207089
20
387.149729
70
0
0
VERTEX
8
Image
10
228.392218
20
383.447809
70
0
0
VERTEX
8
Image
10
227.235885
20
381.794165
70
0
0
VERTEX
8
Image
10
228.380817
20
381.797605
70
0
0
VERTEX
8
Image
10
230.224095
20
382.145329
70
0
0
VERTEX
8
Image
10
233.097623
20
383.000081
70
0
0
VERTEX
8
Image
10
233.097623
20
383.000055
70
0
0
SEQEND
8
Image
0
POLYLINE
8
Image
62
7
70
0
10
0.000000
20
0.000000
66
1
0
VERTEX
8
Image
10
224.664746
20
385.299890
70
0
0
VERTEX
8
Image
10
227.137634
20
388.276449
70
0
0
VERTEX
8
Image
10
230.081928
20
391.803819
70
0
0
VERTEX
8
Image
10
232.672877
20
395.277712
70
0
0
VERTEX
8
Image
10
234.954321
20
398.679622
70
0
0
VERTEX
8
Image
10
236.491795
20
401.523775
70
0
0
VERTEX
8
Image
10
237.400230
20
404.063129
70
0
0
VERTEX
8
Image
10
237.794556
20
406.550641
70
0
0
VERTEX
8
Image
10
237.747271
20
408.362929
70
0
0
VERTEX
8
Image
10
237.310208
20
409.636006
70
0
0
VERTEX
8
Image
10
236.942106
20
410.075745
70
0
0
VERTEX
8
Image
10
236.472476
20
410.387168
70
0
0
VERTEX
8
Image
10
235.223182
20
410.633712
70
0
0
VERTEX
8
Image
10
233.962075
20
410.398297
70
0
0
VERTEX
8
Image
10
232.624746
20
409.716725
70
0
0
VERTEX
8
Image
10
231.242665
20
408.626007
70
0
0
VERTEX
8
Image
10
229.847301
20
407.163154
70
0
0
VERTEX
8
Image
10
228.470122
20
405.365176
70
0
0
VERTEX
8
Image
10
227.142598
20
403.269084
70
0
0
VERTEX
8
Image
10
225.896197
20
400.911890
70
0
0
VERTEX
8
Image
10
224.762388
20
398.330602
70
0
0
VERTEX
8
Image
10
223.736090
20
395.269971
70
0
0
VERTEX
8
Image
10
223.047655
20
392.173396
70
0
0
VERTEX
8
Image
10
222.731135
20
389.245010
70
0
0
VERTEX
8
Image
10
222.820579
20
386.688950
70
0
0
VERTEX
8
Image
10
223.089737
20
384.964554
70
0
0
VERTEX
8
Image
10
223.394713
20
384.227624
70
0
0
VERTEX
8
Image
10
223.603806
20
384.196938
70
0
0
VERTEX
8
Image
10
223.873663
20
384.374092
70
0
0
VERTEX
8
Image
10
224.664746
20
385.299890
70
0
0
VERTEX
8
Image
10
224.664746
20
385.299890
70
0
0
SEQEND
8
Image
0
POLYLINE
8
Image
62
7
70
0
10
0.000000
20
0.000000
66
1
0
VERTEX
8
Image
10
314.793472
20
404.883106
70
0
0
VERTEX
8
Image
10
314.865465
20
409.848086
70
0
0
VERTEX
8
Image
10
313.735140
20
409.670418
70
0
0
VERTEX
8
Image
10
311.843218
20
409.150423
70
0
0
VERTEX
8
Image
10
310.174848
20
408.258832
70
0
0
VERTEX
8
Image
10
308.838012
20
407.070383
70
0
0
VERTEX
8
Image
10
307.940692
20
405.659816
70
0
0
VERTEX
8
Image
10
307.585044
20
404.658004
70
0
0
VERTEX
8
Image
10
307.473535
20
403.819989
70
0
0
VERTEX
8
Image
10
307.607418
20
403.056373
70
0
0
VERTEX
8
Image
10
307.987947
20
402.277758
70
0
0
VERTEX
8
Image
10
308.945675
20
401.223075
70
0
0
VERTEX
8
Image
10
310.296688
20
400.445001
70
0
0
VERTEX
8
Image
10
311.945204
20
399.983132
70
0
0
VERTEX
8
Image
10
313.795438
20
399.877064
70
0
0
VERTEX
8
Image
10
314.721478
20
399.918101
70
0
0
VERTEX
8
Image
10
314.793472
20
404.883106
70
0
0
SEQEND
8
Image
0
POLYLINE
8
Image
62
7
70
0
10
0.000000
20
0.000000
66
1
0
VERTEX
8
Image
10
68.077338
20
404.289461
70
0
0
VERTEX
8
Image
10
68.707966
20
405.089823
70
0
0
VERTEX
8
Image
10
69.168541
20
406.289329
70
0
0
VERTEX
8
Image
10
69.457208
20
407.772963
70
0
0
VERTEX
8
Image
10
69.572112
20
409.425709
70
0
0
VERTEX
8
Image
10
69.511397
20
411.132550
70
0
0
VERTEX
8
Image
10
69.273209
20
412.778469
70
0
0
VERTEX
8
Image
10
68.855691
20
414.248452
70
0
0
VERTEX
8
Image
10
68.256990
20
415.427480
70
0
0
VERTEX
8
Image
10
64.890857
20
419.124935
70
0
0
VERTEX
8
Image
10
62.882346
20
421.134317
70
0
0
VERTEX
8
Image
10
61.861519
20
422.010781
70
0
0
VERTEX
8
Image
10
61.710608
20
419.487572
70
0
0
VERTEX
8
Image
10
61.647839
20
413.421147
70
0
0
VERTEX
8
Image
10
61.655612
20
407.960309
70
0
0
VERTEX
8
Image
10
61.838127
20
405.310911
70
0
0
VERTEX
8
Image
10
62.069535
20
404.696628
70
0
0
VERTEX
8
Image
10
62.434176
20
404.372557
70
0
0
VERTEX
8
Image
10
63.682554
20
404.044854
70
0
0
VERTEX
8
Image
10
65.050944
20
403.816125
70
0
0
VERTEX
8
Image
10
66.300518
20
403.784045
70
0
0
VERTEX
8
Image
10
67.339806
20
403.943521
70
0
0
VERTEX
8
Image
10
68.077338
20
404.289461
70
0
0
VERTEX
8
Image
10
68.077338
20
404.289461
70
0
0
SEQEND
8
Image
0
POLYLINE
8
Image
62
7
70
0
10
0.000000
20
0.000000
66
1
0
VERTEX
8
Image
10
252.676765
20
406.539158
70
0
0
VERTEX
8
Image
10
257.836134
20
408.512180
70
0
0
VERTEX
8
Image
10
263.029797
20
410.486757
70
0
0
VERTEX
8
Image
10
268.443474
20
412.166064
70
0
0
VERTEX
8
Image
10
274.142798
20
413.568304
70
0
0
VERTEX
8
Image
10
280.193397
20
414.711677
70
0
0
VERTEX
8
Image
10
287.252309
20
415.584945
70
0
0
VERTEX
8
Image
10
294.588392
20
415.994537
70
0
0
VERTEX
8
Image
10
301.672282
20
415.927865
70
0
0
VERTEX
8
Image
10
307.974612
20
415.372341
70
0
0
VERTEX
8
Image
10
313.663147
20
414.747475
70
0
0
VERTEX
8
Image
10
314.782938
20
414.837030
70
0
0
VERTEX
8
Image
10
314.986201
20
415.019369
70
0
0
VERTEX
8
Image
10
315.072527
20
415.344612
70
0
0
VERTEX
8
Image
10
315.050686
20
415.928141
70
0
0
VERTEX
8
Image
10
314.740218
20
416.366878
70
0
0
VERTEX
8
Image
10
314.061718
20
416.724787
70
0
0
VERTEX
8
Image
10
312.935781
20
417.065831
70
0
0
VERTEX
8
Image
10
309.687928
20
417.751887
70
0
0
VERTEX
8
Image
10
305.992042
20
418.274611
70
0
0
VERTEX
8
Image
10
301.977038
20
418.630942
70
0
0
VERTEX
8
Image
10
297.771832
20
418.817817
70
0
0
VERTEX
8
Image
10
293.505340
20
418.832173
70
0
0
VERTEX
8
Image
10
289.306478
20
418.670951
70
0
0
VERTEX
8
Image
10
285.304161
20
418.331087
70
0
0
VERTEX
8
Image
10
281.627305
20
417.809520
70
0
0
VERTEX
8
Image
10
276.886110
20
416.976031
70
0
0
VERTEX
8
Image
10
270.052167
20
415.526533
70
0
0
VERTEX
8
Image
10
263.158357
20
413.616918
70
0
0
VERTEX
8
Image
10
256.796692
20
411.430137
70
0
0
VERTEX
8
Image
10
251.559182
20
409.149137
70
0
0
VERTEX
8
Image
10
248.371180
20
407.226948
70
0
0
VERTEX
8
Image
10
246.188954
20
405.597692
70
0
0
VERTEX
8
Image
10
246.260896
20
405.438011
70
0
0
VERTEX
8
Image
10
246.691537
20
405.378988
70
0
0
VERTEX
8
Image
10
248.333824
20
405.520093
70
0
0
VERTEX
8
Image
10
250.525629
20
405.935364
70
0
0
VERTEX
8
Image
10
252.676765
20
406.539158
70
0
0
VERTEX
8
Image
10
252.676765
20
406.539158
70
0
0
SEQEND
8
Image
0
POLYLINE
8
Image
62
7
70
0
10
0.000000
20
0.000000
66
1
0
VERTEX
8
Image
10
82.530973
20
414.989542
70
0
0
VERTEX
8
Image
10
83.107896
20
415.388695
70
0
0
VERTEX
8
Image
10
83.443813
20
415.804775
70
0
0
VERTEX
8
Image
10
83.438892
20
419.195750
70
0
0
VERTEX
8
Image
10
83.383631
20
421.784374
70
0
0
VERTEX
8
Image
10
83.499408
20
422.482693
70
0
0
VERTEX
8
Image
10
83.731029
20
423.050751
70
0
0
VERTEX
8
Image
10
84.319030
20
423.945281
70
0
0
VERTEX
8
Image
10
85.152692
20
424.794733
70
0
0
VERTEX
8
Image
10
86.281216
20
425.641641
70
0
0
VERTEX
8
Image
10
87.753804
20
426.528536
70
0
0
VERTEX
8
Image
10
89.386579
20
427.549975
70
0
0
VERTEX
8
Image
10
90.478920
20
428.528072
70
0
0
VERTEX
8
Image
10
91.090537
20
429.532289
70
0
0
VERTEX
8
Image
10
91.281140
20
430.632086
70
0
0
VERTEX
8
Image
10
91.197147
20
431.591440
70
0
0
VERTEX
8
Image
10
90.932348
20
432.436453
70
0
0
VERTEX
8
Image
10
90.467513
20
433.209774
70
0
0
VERTEX
8
Image
10
89.783410
20
433.954058
70
0
0
VERTEX
8
Image
10
88.900850
20
434.649557
70
0
0
VERTEX
8
Image
10
87.819678
20
435.265611
70
0
0
VERTEX
8
Image
10
84.936097
20
436.292558
70
0
0
VERTEX
8
Image
10
80.881859
20
437.101259
70
0
0
VERTEX
8
Image
10
75.406160
20
437.758073
70
0
0
VERTEX
8
Image
10
67.678114
20
438.561003
70
0
0
VERTEX
8
Image
10
62.981766
20
438.944093
70
0
0
VERTEX
8
Image
10
61.647839
20
438.944093
70
0
0
VERTEX
8
Image
10
61.647839
20
433.830074
70
0
0
VERTEX
8
Image
10
61.647839
20
428.716082
70
0
0
VERTEX
8
Image
10
62.507734
20
427.414413
70
0
0
VERTEX
8
Image
10
64.213489
20
425.313706
70
0
0
VERTEX
8
Image
10
66.727085
20
422.728254
70
0
0
VERTEX
8
Image
10
69.429571
20
420.257980
70
0
0
VERTEX
8
Image
10
71.701993
20
418.502807
70
0
0
VERTEX
8
Image
10
73.744348
20
417.259122
70
0
0
VERTEX
8
Image
10
75.627452
20
416.283727
70
0
0
VERTEX
8
Image
10
77.432981
20
415.538523
70
0
0
VERTEX
8
Image
10
79.242609
20
414.985414
70
0
0
VERTEX
8
Image
10
81.221905
20
414.645405
70
0
0
VERTEX
8
Image
10
81.893854
20
414.731908
70
0
0
VERTEX
8
Image
10
82.530973
20
414.989648
70
0
0
VERTEX
8
Image
10
82.530973
20
414.989542
70
0
0
SEQEND
8
Image
0
POLYLINE
8
Image
62
7
70
0
10
0.000000
20
0.000000
66
1
0
VERTEX
8
Image
10
287.072555
20
422.968810
70
0
0
VERTEX
8
Image
10
288.757621
20
423.672755
70
0
0
VERTEX
8
Image
10
290.799994
20
424.722231
70
0
0
VERTEX
8
Image
10
292.868629
20
425.935066
70
0
0
VERTEX
8
Image
10
294.632485
20
427.129086
70
0
0
VERTEX
8
Image
10
297.374473
20
429.389813
70
0
0
VERTEX
8
Image
10
300.024824
20
431.993768
70
0
0
VERTEX
8
Image
10
302.575200
20
434.929029
70
0
0
VERTEX
8
Image
10
305.017262
20
438.183672
70
0
0
VERTEX
8
Image
10
307.342673
20
441.745774
70
0
0
VERTEX
8
Image
10
309.543095
20
445.603414
70
0
0
VERTEX
8
Image
10
311.610189
20
449.744669
70
0
0
VERTEX
8
Image
10
313.535617
20
454.157616
70
0
0
VERTEX
8
Image
10
314.721478
20
457.068028
70
0
0
VERTEX
8
Image
10
314.804319
20
461.926960
70
0
0
VERTEX
8
Image
10
314.752117
20
467.137759
70
0
0
VERTEX
8
Image
10
314.319159
20
467.225365
70
0
0
VERTEX
8
Image
10
313.314285
20
467.005084
70
0
0
VERTEX
8
Image
10
310.152537
20
465.870092
70
0
0
VERTEX
8
Image
10
306.394361
20
464.191248
70
0
0
VERTEX
8
Image
10
303.167245
20
462.427020
70
0
0
VERTEX
8
Image
10
301.447461
20
461.154907
70
0
0
VERTEX
8
Image
10
299.656576
20
459.542072
70
0
0
VERTEX
8
Image
10
298.011685
20
457.800470
70
0
0
VERTEX
8
Image
10
296.729887
20
456.142057
70
0
0
VERTEX
8
Image
10
295.580687
20
454.131230
70
0
0
VERTEX
8
Image
10
294.450670
20
451.559846
70
0
0
VERTEX
8
Image
10
293.303757
20
448.336065
70
0
0
VERTEX
8
Image
10
292.103865
20
444.368044
70
0
0
VERTEX
8
Image
10
289.964887
20
437.274647
70
0
0
VERTEX
8
Image
10
288.026406
20
432.233134
70
0
0
VERTEX
8
Image
10
286.981556
20
430.152422
70
0
0
VERTEX
8
Image
10
285.805873
20
428.189387
70
0
0
VERTEX
8
Image
10
282.820733
20
424.089292
70
0
0
VERTEX
8
Image
10
281.136688
20
421.684841
70
0
0
VERTEX
8
Image
10
283.585252
20
422.075316
70
0
0
VERTEX
8
Image
10
287.072555
20
422.968810
70
0
0
VERTEX
8
Image
10
287.072555
20
422.968810
70
0
0
SEQEND
8
Image
0
POLYLINE
8
Image
62
7
70
0
10
0.000000
20
0.000000
66
1
0
VERTEX
8
Image
10
85.234575
20
441.664403
70
0
0
VERTEX
8
Image
10
86.362088
20
442.670112
70
0
0
VERTEX
8
Image
10
87.213275
20
443.750905
70
0
0
VERTEX
8
Image
10
87.777677
20
444.890375
70
0
0
VERTEX
8
Image
10
88.044840
20
446.072118
70
0
0
VERTEX
8
Image
10
88.019229
20
447.346985
70
0
0
VERTEX
8
Image
10
87.758334
20
447.773573
70
0
0
VERTEX
8
Image
10
87.250200
20
448.287813
70
0
0
VERTEX
8
Image
10
86.170608
20
449.061178
70
0
0
VERTEX
8
Image
10
84.760422
20
449.630336
70
0
0
VERTEX
8
Image
10
82.958506
20
450.013411
70
0
0
VERTEX
8
Image
10
80.703726
20
450.228526
70
0
0
VERTEX
8
Image
10
78.372887
20
450.265632
70
0
0
VERTEX
8
Image
10
76.070016
20
450.092417
70
0
0
VERTEX
8
Image
10
73.562415
20
449.680582
70
0
0
VERTEX
8
Image
10
70.617391
20
449.001827
70
0
0
VERTEX
8
Image
10
65.314359
20
447.402151
70
0
0
VERTEX
8
Image
10
63.140019
20
446.603407
70
0
0
VERTEX
8
Image
10
61.999896
20
446.050634
70
0
0
VERTEX
8
Image
10
61.739832
20
445.443251
70
0
0
VERTEX
8
Image
10
61.647642
20
444.465051
70
0
0
VERTEX
8
Image
10
61.726248
20
443.527922
70
0
0
VERTEX
8
Image
10
61.978570
20
443.043754
70
0
0
VERTEX
8
Image
10
70.643664
20
442.120624
70
0
0
VERTEX
8
Image
10
80.830109
20
441.090840
70
0
0
VERTEX
8
Image
10
82.635182
20
440.895112
70
0
0
VERTEX
8
Image
10
83.722413
20
440.893097
70
0
0
VERTEX
8
Image
10
84.464609
20
441.133345
70
0
0
VERTEX
8
Image
10
85.234577
20
441.664403
70
0
0
VERTEX
8
Image
10
85.234575
20
441.664403
70
0
0
SEQEND
8
Image
0
POLYLINE
8
Image
62
7
70
0
10
0.000000
20
0.000000
66
1
0
VERTEX
8
Image
10
81.981823
20
470.444932
70
0
0
VERTEX
8
Image
10
84.069224
20
471.147478
70
0
0
VERTEX
8
Image
10
86.154112
20
472.039253
70
0
0
VERTEX
8
Image
10
87.737648
20
472.884108
70
0
0
VERTEX
8
Image
10
88.185521
20
473.215143
70
0
0
VERTEX
8
Image
10
88.320991
20
473.445891
70
0
0
VERTEX
8
Image
10
87.654588
20
474.268548
70
0
0
VERTEX
8
Image
10
86.191149
20
475.590537
70
0
0
VERTEX
8
Image
10
84.416004
20
477.002198
70
0
0
VERTEX
8
Image
10
82.814479
20
478.093871
70
0
0
VERTEX
8
Image
10
81.059236
20
478.983049
70
0
0
VERTEX
8
Image
10
79.254205
20
479.701543
70
0
0
VERTEX
8
Image
10
78.120363
20
480.027472
70
0
0
VERTEX
8
Image
10
76.970452
20
480.186491
70
0
0
VERTEX
8
Image
10
72.573484
20
480.137510
70
0
0
VERTEX
8
Image
10
67.733248
20
480.098473
70
0
0
VERTEX
8
Image
10
68.773059
20
481.159827
70
0
0
VERTEX
8
Image
10
70.068220
20
482.481652
70
0
0
VERTEX
8
Image
10
71.502085
20
484.219329
70
0
0
VERTEX
8
Image
10
74.587718
20
488.685697
70
0
0
VERTEX
8
Image
10
76.800619
20
492.178732
70
0
0
VERTEX
8
Image
10
76.996870
20
492.609980
70
0
0
VERTEX
8
Image
10
76.797131
20
492.790091
70
0
0
VERTEX
8
Image
10
75.043557
20
492.419685
70
0
0
VERTEX
8
Image
10
72.866184
20
491.640607
70
0
0
VERTEX
8
Image
10
71.266739
20
490.736317
70
0
0
VERTEX
8
Image
10
69.928393
20
489.473052
70
0
0
VERTEX
8
Image
10
68.534313
20
487.617049
70
0
0
VERTEX
8
Image
10
67.074221
20
485.648079
70
0
0
VERTEX
8
Image
10
65.612203
20
483.986598
70
0
0
VERTEX
8
Image
10
64.201844
20
482.687829
70
0
0
VERTEX
8
Image
10
62.896726
20
481.806994
70
0
0
VERTEX
8
Image
10
61.647839
20
481.145989
70
0
0
VERTEX
8
Image
10
61.647839
20
478.969625
70
0
0
VERTEX
8
Image
10
61.647839
20
476.793260
70
0
0
VERTEX
8
Image
10
64.614023
20
474.692833
70
0
0
VERTEX
8
Image
10
67.513212
20
472.786216
70
0
0
VERTEX
8
Image
10
70.165171
20
471.358592
70
0
0
VERTEX
8
Image
10
72.640370
20
470.376843
70
0
0
VERTEX
8
Image
10
75.009281
20
469.807856
70
0
0
VERTEX
8
Image
10
76.440347
20
469.728729
70
0
0
VERTEX
8
Image
10
78.292026
20
469.827955
70
0
0
VERTEX
8
Image
10
80.245467
20
470.076401
70
0
0
VERTEX
8
Image
10
81.981823
20
470.444932
70
0
0
VERTEX
8
Image
10
81.981823
20
470.444932
70
0
0
SEQEND
8
Image
0
POLYLINE
8
Image
62
7
70
0
10
0.000000
20
0.000000
66
1
0
VERTEX
8
Image
10
337.144755
20
353.946804
70
0
0
VERTEX
8
Image
10
337.211034
20
604.705343
70
0
0
VERTEX
8
Image
10
476.060620
20
604.705343
70
0
0
VERTEX
8
Image
10
591.702656
20
604.638888
70
0
0
VERTEX
8
Image
10
610.648488
20
604.518960
70
0
0
VERTEX
8
Image
10
614.170649
20
604.426570
70
0
0
VERTEX
8
Image
10
615.161084
20
604.308468
70
0
0
VERTEX
8
Image
10
615.346709
20
537.833753
70
0
0
VERTEX
8
Image
10
615.416010
20
353.549930
70
0
0
VERTEX
8
Image
10
615.420058
20
103.188266
70
0
0
VERTEX
8
Image
10
476.249268
20
103.188266
70
0
0
VERTEX
8
Image
10
337.078451
20
103.188266
70
0
0
VERTEX
8
Image
10
337.144755
20
353.946804
70
0
0
SEQEND
8
Image
0
POLYLINE
8
Image
62
7
70
0
10
0.000000
20
0.000000
66
1
0
VERTEX
8
Image
10
360.511959
20
148.331047
70
0
0
VERTEX
8
Image
10
361.499362
20
149.296783
70
0
0
VERTEX
8
Image
10
362.441608
20
150.619355
70
0
0
VERTEX
8
Image
10
363.312014
20
152.227505
70
0
0
VERTEX
8
Image
10
364.083895
20
154.049979
70
0
0
VERTEX
8
Image
10
364.730568
20
156.015519
70
0
0
VERTEX
8
Image
10
365.225347
20
158.052871
70
0
0
VERTEX
8
Image
10
365.541549
20
160.090778
70
0
0
VERTEX
8
Image
10
365.652489
20
162.057983
70
0
0
VERTEX
8
Image
10
365.446314
20
164.884558
70
0
0
VERTEX
8
Image
10
364.842865
20
167.843305
70
0
0
VERTEX
8
Image
10
363.861773
20
170.893748
70
0
0
VERTEX
8
Image
10
362.522674
20
173.995413
70
0
0
VERTEX
8
Image
10
360.845201
20
177.107823
70
0
0
VERTEX
8
Image
10
358.848987
20
180.190502
70
0
0
VERTEX
8
Image
10
356.553667
20
183.202976
70
0
0
VERTEX
8
Image
10
353.978875
20
186.104768
70
0
0
VERTEX
8
Image
10
350.614385
20
189.442324
70
0
0
VERTEX
8
Image
10
350.434627
20
184.349101
70
0
0
VERTEX
8
Image
10
350.283888
20
178.508564
70
0
0
VERTEX
8
Image
10
349.929432
20
171.618611
70
0
0
VERTEX
8
Image
10
349.578232
20
164.826081
70
0
0
VERTEX
8
Image
10
349.754517
20
161.035291
70
0
0
VERTEX
8
Image
10
350.477768
20
156.492688
70
0
0
VERTEX
8
Image
10
350.966908
20
154.591034
70
0
0
VERTEX
8
Image
10
351.542691
20
152.931752
70
0
0
VERTEX
8
Image
10
352.206343
20
151.511796
70
0
0
VERTEX
8
Image
10
352.959091
20
150.328122
70
0
0
VERTEX
8
Image
10
353.802159
20
149.377683
70
0
0
VERTEX
8
Image
10
354.736773
20
148.657437
70
0
0
VERTEX
8
Image
10
356.396040
20
147.829181
70
0
0
VERTEX
8
Image
10
357.898706
20
147.499426
70
0
0
VERTEX
8
Image
10
359.264201
20
147.667080
70
0
0
VERTEX
8
Image
10
360.511959
20
148.331047
70
0
0
VERTEX
8
Image
10
360.511959
20
148.331047
70
0
0
SEQEND
8
Image
0
POLYLINE
8
Image
62
7
70
0
10
0.000000
20
0.000000
66
1
0
VERTEX
8
Image
10
384.027064
20
163.323061
70
0
0
VERTEX
8
Image
10
384.781425
20
163.850497
70
0
0
VERTEX
8
Image
10
385.380533
20
164.513862
70
0
0
VERTEX
8
Image
10
385.827528
20
165.301303
70
0
0
VERTEX
8
Image
10
386.125554
20
166.200972
70
0
0
VERTEX
8
Image
10
386.277749
20
167.201018
70
0
0
VERTEX
8
Image
10
386.287257
20
168.289589
70
0
0
VERTEX
8
Image
10
385.890773
20
170.684911
70
0
0
VERTEX
8
Image
10
384.961233
20
173.292133
70
0
0
VERTEX
8
Image
10
383.523765
20
176.016454
70
0
0
VERTEX
8
Image
10
381.603501
20
178.763071
70
0
0
VERTEX
8
Image
10
379.225570
20
181.437180
70
0
0
VERTEX
8
Image
10
377.106619
20
183.412880
70
0
0
VERTEX
8
Image
10
374.922927
20
185.129803
70
0
0
VERTEX
8
Image
10
372.607590
20
186.618470
70
0
0
VERTEX
8
Image
10
370.093703
20
187.909400
70
0
0
VERTEX
8
Image
10
367.314363
20
189.033112
70
0
0
VERTEX
8
Image
10
364.202666
20
190.020128
70
0
0
VERTEX
8
Image
10
360.691708
20
190.900967
70
0
0
VERTEX
8
Image
10
356.714584
20
191.706149
70
0
0
VERTEX
8
Image
10
354.118231
20
192.017934
70
0
0
VERTEX
8
Image
10
354.441479
20
191.464433
70
0
0
VERTEX
8
Image
10
355.414608
20
190.329630
70
0
0
VERTEX
8
Image
10
358.696200
20
186.572083
70
0
0
VERTEX
8
Image
10
361.724850
20
182.693681
70
0
0
VERTEX
8
Image
10
364.271779
20
179.004921
70
0
0
VERTEX
8
Image
10
366.108207
20
175.816300
70
0
0
VERTEX
8
Image
10
368.034688
20
171.375644
70
0
0
VERTEX
8
Image
10
369.002732
20
169.226386
70
0
0
VERTEX
8
Image
10
370.038091
20
167.598477
70
0
0
VERTEX
8
Image
10
371.314819
20
166.269306
70
0
0
VERTEX
8
Image
10
373.006970
20
165.016260
70
0
0
VERTEX
8
Image
10
374.434118
20
164.183669
70
0
0
VERTEX
8
Image
10
375.915685
20
163.517951
70
0
0
VERTEX
8
Image
10
377.417369
20
163.024374
70
0
0
VERTEX
8
Image
10
378.904873
20
162.708209
70
0
0
VERTEX
8
Image
10
380.343894
20
162.574726
70
0
0
VERTEX
8
Image
10
381.700133
20
162.629193
70
0
0
VERTEX
8
Image
10
382.939290
20
162.876882
70
0
0
VERTEX
8
Image
10
384.027064
20
163.323061
70
0
0
VERTEX
8
Image
10
384.027064
20
163.323061
70
0
0
SEQEND
8
Image
0
POLYLINE
8
Image
62
7
70
0
10
0.000000
20
0.000000
66
1
0
VERTEX
8
Image
10
354.664648
20
196.086215
70
0
0
VERTEX
8
Image
10
354.846288
20
196.976179
70
0
0
VERTEX
8
Image
10
354.923886
20
198.773240
70
0
0
VERTEX
8
Image
10
354.795638
20
200.826237
70
0
0
VERTEX
8
Image
10
354.433264
20
202.778676
70
0
0
VERTEX
8
Image
10
353.879248
20
204.462025
70
0
0
VERTEX
8
Image
10
353.176078
20
205.707749
70
0
0
VERTEX
8
Image
10
352.467582
20
206.400720
70
0
0
VERTEX
8
Image
10
351.486599
20
207.138168
70
0
0
VERTEX
8
Image
10
350.521140
20
207.724252
70
0
0
VERTEX
8
Image
10
349.859212
20
207.963134
70
0
0
VERTEX
8
Image
10
349.689857
20
207.692858
70
0
0
VERTEX
8
Image
10
349.584066
20
206.738955
70
0
0
VERTEX
8
Image
10
349.514143
20
201.921831
70
0
0
VERTEX
8
Image
10
349.651673
20
195.742998
70
0
0
VERTEX
8
Image
10
350.492495
20
195.663428
70
0
0
VERTEX
8
Image
10
352.140500
20
195.730546
70
0
0
VERTEX
8
Image
10
353.797335
20
195.889694
70
0
0
VERTEX
8
Image
10
354.664648
20
196.086215
70
0
0
VERTEX
8
Image
10
354.664648
20
196.086215
70
0
0
SEQEND
8
Image
0
POLYLINE
8
Image
62
7
70
0
10
0.000000
20
0.000000
66
1
0
VERTEX
8
Image
10
351.209538
20
215.768333
70
0
0
VERTEX
8
Image
10
352.070121
20
221.324576
70
0
0
VERTEX
8
Image
10
352.723952
20
224.508002
70
0
0
VERTEX
8
Image
10
354.180699
20
230.188106
70
0
0
VERTEX
8
Image
10
355.927208
20
235.684467
70
0
0
VERTEX
8
Image
10
357.931587
20
241.432884
70
0
0
VERTEX
8
Image
10
359.160548
20
244.607880
70
0
0
VERTEX
8
Image
10
361.756666
20
250.384011
70
0
0
VERTEX
8
Image
10
365.339593
20
257.543607
70
0
0
VERTEX
8
Image
10
368.025588
20
262.341828
70
0
0
VERTEX
8
Image
10
371.081319
20
267.340814
70
0
0
VERTEX
8
Image
10
374.297282
20
272.210902
70
0
0
VERTEX
8
Image
10
377.463977
20
276.622423
70
0
0
VERTEX
8
Image
10
381.701156
20
282.152844
70
0
0
VERTEX
8
Image
10
385.092768
20
286.287094
70
0
0
VERTEX
8
Image
10
388.558620
20
290.089770
70
0
0
VERTEX
8
Image
10
393.018520
20
294.625470
70
0
0
VERTEX
8
Image
10
397.948935
20
299.456590
70
0
0
VERTEX
8
Image
10
402.325568
20
303.474928
70
0
0
VERTEX
8
Image
10
407.080636
20
307.501784
70
0
0
VERTEX
8
Image
10
413.146355
20
312.358458
70
0
0
VERTEX
8
Image
10
420.025513
20
317.506767
70
0
0
VERTEX
8
Image
10
434.543106
20
328.394840
70
0
0
VERTEX
8
Image
10
438.807944
20
331.804949
70
0
0
VERTEX
8
Image
10
441.963571
20
334.547923
70
0
0
VERTEX
8
Image
10
445.066954
20
337.582197
70
0
0
VERTEX
8
Image
10
448.197245
20
340.979611
70
0
0
VERTEX
8
Image
10
450.996534
20
344.332705
70
0
0
VERTEX
8
Image
10
453.106907
20
347.234016
70
0
0
VERTEX
8
Image
10
453.600778
20
347.995698
70
0
0
VERTEX
8
Image
10
452.820417
20
347.584139
70
0
0
VERTEX
8
Image
10
450.264118
20
345.710931
70
0
0
VERTEX
8
Image
10
439.604655
20
337.032357
70
0
0
VERTEX
8
Image
10
435.541797
20
333.767376
70
0
0
VERTEX
8
Image
10
432.342274
20
331.258812
70
0
0
VERTEX
8
Image
10
413.940104
20
316.983025
70
0
0
VERTEX
8
Image
10
402.897919
20
308.151068
70
0
0
VERTEX
8
Image
10
398.282945
20
304.182222
70
0
0
VERTEX
8
Image
10
394.113586
20
300.360998
70
0
0
VERTEX
8
Image
10
390.270998
20
296.574546
70
0
0
VERTEX
8
Image
10
386.636335
20
292.710018
70
0
0
VERTEX
8
Image
10
383.090749
20
288.654562
70
0
0
VERTEX
8
Image
10
379.515395
20
284.295330
70
0
0
VERTEX
8
Image
10
375.375698
20
278.868037
70
0
0
VERTEX
8
Image
10
371.487781
20
273.279624
70
0
0
VERTEX
8
Image
10
367.858458
20
267.542620
70
0
0
VERTEX
8
Image
10
364.494541
20
261.669554
70
0
0
VERTEX
8
Image
10
361.402846
20
255.672956
70
0
0
VERTEX
8
Image
10
358.590187
20
249.565355
70
0
0
VERTEX
8
Image
10
356.063376
20
243.359282
70
0
0
VERTEX
8
Image
10
353.829227
20
237.067264
70
0
0
VERTEX
8
Image
10
351.186771
20
228.589618
70
0
0
VERTEX
8
Image
10
349.781213
20
223.176657
70
0
0
VERTEX
8
Image
10
349.592264
20
220.683309
70
0
0
VERTEX
8
Image
10
349.552676
20
217.157053
70
0
0
VERTEX
8
Image
10
349.651097
20
213.905736
70
0
0
VERTEX
8
Image
10
349.876172
20
212.237208
70
0
0
VERTEX
8
Image
10
350.220614
20
212.034269
70
0
0
VERTEX
8
Image
10
350.551646
20
212.539236
70
0
0
VERTEX
8
Image
10
351.209538
20
215.768333
70
0
0
VERTEX
8
Image
10
351.209538
20
215.768333
70
0
0
SEQEND
8
Image
0
POLYLINE
8
Image
62
7
70
0
10
0.000000
20
0.000000
66
1
0
VERTEX
8
Image
10
416.909757
20
235.016746
70
0
0
VERTEX
8
Image
10
418.533582
20
241.113532
70
0
0
VERTEX
8
Image
10
419.200577
20
244.821333
70
0
0
VERTEX
8
Image
10
419.548311
20
248.888432
70
0
0
VERTEX
8
Image
10
419.561261
20
252.964377
70
0
0
VERTEX
8
Image
10
419.223905
20
256.698714
70
0
0
VERTEX
8
Image
10
418.542493
20
260.089475
70
0
0
VERTEX
8
Image
10
417.484669
20
263.267040
70
0
0
VERTEX
8
Image
10
415.897594
20
266.608117
70
0
0
VERTEX
8
Image
10
413.628425
20
270.489415
70
0
0
VERTEX
8
Image
10
411.176182
20
274.583835
70
0
0
VERTEX
8
Image
10
409.417031
20
277.946290
70
0
0
VERTEX
8
Image
10
408.130855
20
281.043712
70
0
0
VERTEX
8
Image
10
407.097537
20
284.343034
70
0
0
VERTEX
8
Image
10
406.324593
20
287.436586
70
0
0
VERTEX
8
Image
10
405.838102
20
290.224734
70
0
0
VERTEX
8
Image
10
405.580936
20
293.146043
70
0
0
VERTEX
8
Image
10
405.495964
20
296.639079
70
0
0
VERTEX
8
Image
10
405.414756
20
300.084426
70
0
0
VERTEX
8
Image
10
405.251198
20
301.437371
70
0
0
VERTEX
8
Image
10
404.666669
20
300.464431
70
0
0
VERTEX
8
Image
10
403.659397
20
298.367193
70
0
0
VERTEX
8
Image
10
401.761031
20
293.820979
70
0
0
VERTEX
8
Image
10
400.739895
20
290.431218
70
0
0
VERTEX
8
Image
10
400.025868
20
287.053086
70
0
0
VERTEX
8
Image
10
399.619310
20
283.664191
70
0
0
VERTEX
8
Image
10
399.520578
20
280.242140
70
0
0
VERTEX
8
Image
10
399.730033
20
276.764539
70
0
0
VERTEX
8
Image
10
400.248035
20
273.208998
70
0
0
VERTEX
8
Image
10
401.074941
20
269.553122
70
0
0
VERTEX
8
Image
10
402.211113
20
265.774519
70
0
0
VERTEX
8
Image
10
404.135445
20
260.779278
70
0
0
VERTEX
8
Image
10
407.336244
20
253.868285
70
0
0
VERTEX
8
Image
10
413.628051
20
240.722154
70
0
0
VERTEX
8
Image
10
414.862484
20
237.922815
70
0
0
VERTEX
8
Image
10
415.666217
20
235.810495
70
0
0
VERTEX
8
Image
10
416.435941
20
234.156851
70
0
0
VERTEX
8
Image
10
416.909757
20
235.016746
70
0
0
VERTEX
8
Image
10
416.909757
20
235.016746
70
0
0
SEQEND
8
Image
0
POLYLINE
8
Image
62
7
70
0
10
0.000000
20
0.000000
66
1
0
VERTEX
8
Image
10
352.374894
20
268.968089
70
0
0
VERTEX
8
Image
10
358.245382
20
272.694053
70
0
0
VERTEX
8
Image
10
364.125501
20
276.580483
70
0
0
VERTEX
8
Image
10
368.806662
20
279.842530
70
0
0
VERTEX
8
Image
10
368.878115
20
280.026102
70
0
0
VERTEX
8
Image
10
368.498020
20
280.085639
70
0
0
VERTEX
8
Image
10
366.543578
20
279.833269
70
0
0
VERTEX
8
Image
10
361.023504
20
279.009093
70
0
0
VERTEX
8
Image
10
351.101641
20
277.594500
70
0
0
VERTEX
8
Image
10
349.911018
20
277.411515
70
0
0
VERTEX
8
Image
10
349.839024
20
272.452938
70
0
0
VERTEX
8
Image
10
349.921654
20
267.494335
70
0
0
VERTEX
8
Image
10
352.374894
20
268.968116
70
0
0
VERTEX
8
Image
10
352.374894
20
268.968089
70
0
0
SEQEND
8
Image
0
POLYLINE
8
Image
62
7
70
0
10
0.000000
20
0.000000
66
1
0
VERTEX
8
Image
10
464.549593
20
298.574874
70
0
0
VERTEX
8
Image
10
466.277285
20
301.448633
70
0
0
VERTEX
8
Image
10
467.880412
20
304.622114
70
0
0
VERTEX
8
Image
10
469.225703
20
307.807873
70
0
0
VERTEX
8
Image
10
470.179892
20
310.718466
70
0
0
VERTEX
8
Image
10
470.608117
20
312.965575
70
0
0
VERTEX
8
Image
10
470.853620
20
315.614075
70
0
0
VERTEX
8
Image
10
470.896291
20
318.292227
70
0
0
VERTEX
8
Image
10
470.716017
20
320.628290
70
0
0
VERTEX
8
Image
10
470.315991
20
322.947486
70
0
0
VERTEX
8
Image
10
469.819312
20
324.546156
70
0
0
VERTEX
8
Image
10
469.045862
20
325.833577
70
0
0
VERTEX
8
Image
10
467.815526
20
327.219026
70
0
0
VERTEX
8
Image
10
465.450209
20
329.866718
70
0
0
VERTEX
8
Image
10
463.574528
20
332.410959
70
0
0
VERTEX
8
Image
10
462.187147
20
334.853788
70
0
0
VERTEX
8
Image
10
461.286729
20
337.197245
70
0
0
VERTEX
8
Image
10
460.956040
20
339.095337
70
0
0
VERTEX
8
Image
10
460.981664
20
341.959739
70
0
0
VERTEX
8
Image
10
461.264902
20
344.951552
70
0
0
VERTEX
8
Image
10
461.877159
20
347.479185
70
0
0
VERTEX
8
Image
10
462.916829
20
349.833414
70
0
0
VERTEX
8
Image
10
464.482309
20
352.305014
70
0
0
VERTEX
8
Image
10
466.928615
20
355.131436
70
0
0
VERTEX
8
Image
10
470.770478
20
358.713710
70
0
0
VERTEX
8
Image
10
475.898309
20
362.956235
70
0
0
VERTEX
8
Image
10
482.202517
20
367.763408
70
0
0
VERTEX
8
Image
10
487.229594
20
371.482439
70
0
0
VERTEX
8
Image
10
496.194984
20
377.883485
70
0
0
VERTEX
8
Image
10
505.465535
20
384.049156
70
0
0
VERTEX
8
Image
10
514.812375
20
389.832563
70
0
0
VERTEX
8
Image
10
524.006631
20
395.086815
70
0
0
VERTEX
8
Image
10
529.708920
20
398.042699
70
0
0
VERTEX
8
Image
10
535.570640
20
400.771479
70
0
0
VERTEX
8
Image
10
541.547908
20
403.258007
70
0
0
VERTEX
8
Image
10
547.596842
20
405.487133
70
0
0
VERTEX
8
Image
10
553.673558
20
407.443709
70
0
0
VERTEX
8
Image
10
559.734173
20
409.112587
70
0
0
VERTEX
8
Image
10
565.734805
20
410.478618
70
0
0
VERTEX
8
Image
10
571.631572
20
411.526653
70
0
0
VERTEX
8
Image
10
577.247148
20
412.300823
70
0
0
VERTEX
8
Image
10
582.228445
20
412.769793
70
0
0
VERTEX
8
Image
10
587.550230
20
412.999681
70
0
0
VERTEX
8
Image
10
594.187272
20
413.056604
70
0
0
VERTEX
8
Image
10
602.720074
20
413.048138
70
0
0
VERTEX
8
Image
10
602.720074
20
453.414291
70
0
0
VERTEX
8
Image
10
602.720074
20
493.780407
70
0
0
VERTEX
8
Image
10
601.727888
20
493.621562
70
0
0
VERTEX
8
Image
10
599.089736
20
492.948998
70
0
0
VERTEX
8
Image
10
595.503559
20
491.708109
70
0
0
VERTEX
8
Image
10
591.553013
20
490.118119
70
0
0
VERTEX
8
Image
10
587.821749
20
488.398257
70
0
0
VERTEX
8
Image
10
582.331319
20
485.458617
70
0
0
VERTEX
8
Image
10
577.738663
20
482.488881
70
0
0
VERTEX
8
Image
10
573.474282
20
479.078835
70
0
0
VERTEX
8
Image
10
568.968676
20
474.818267
70
0
0
VERTEX
8
Image
10
566.271733
20
472.019768
70
0
0
VERTEX
8
Image
10
563.805579
20
469.232121
70
0
0
VERTEX
8
Image
10
561.490609
20
466.339006
70
0
0
VERTEX
8
Image
10
559.247215
20
463.224099
70
0
0
VERTEX
8
Image
10
556.995792
20
459.771080
70
0
0
VERTEX
8
Image
10
554.656734
20
455.863626
70
0
0
VERTEX
8
Image
10
549.397286
20
446.220126
70
0
0
VERTEX
8
Image
10
546.472866
20
440.867650
70
0
0
VERTEX
8
Image
10
543.147479
20
435.163698
70
0
0
VERTEX
8
Image
10
539.772442
20
429.694130
70
0
0
VERTEX
8
Image
10
536.699075
20
425.044807
70
0
0
VERTEX
8
Image
10
532.895244
20
419.996329
70
0
0
VERTEX
8
Image
10
527.508679
20
413.250676
70
0
0
VERTEX
8
Image
10
522.700775
20
407.312808
70
0
0
VERTEX
8
Image
10
521.336195
20
405.410738
70
0
0
VERTEX
8
Image
10
525.559340
20
407.622681
70
0
0
VERTEX
8
Image
10
532.737871
20
411.793935
70
0
0
VERTEX
8
Image
10
536.189522
20
414.012289
70
0
0
VERTEX
8
Image
10
538.915093
20
416.164671
70
0
0
VERTEX
8
Image
10
541.694228
20
418.950479
70
0
0
VERTEX
8
Image
10
545.306568
20
423.069113
70
0
0
VERTEX
8
Image
10
550.465858
20
428.848459
70
0
0
VERTEX
8
Image
10
552.322503
20
430.599003
70
0
0
VERTEX
8
Image
10
554.273551
20
432.175478
70
0
0
VERTEX
8
Image
10
556.031812
20
433.440763
70
0
0
VERTEX
8
Image
10
557.818326
20
434.548138
70
0
0
VERTEX
8
Image
10
559.731941
20
435.535532
70
0
0
VERTEX
8
Image
10
561.871505
20
436.440873
70
0
0
VERTEX
8
Image
10
567.223877
20
438.157118
70
0
0
VERTEX
8
Image
10
574.666233
20
440.000308
70
0
0
VERTEX
8
Image
10
582.422358
20
441.642529
70
0
0
VERTEX
8
Image
10
584.989377
20
442.020119
70
0
0
VERTEX
8
Image
10
587.330392
20
442.215371
70
0
0
VERTEX
8
Image
10
588.926435
20
442.286392
70
0
0
VERTEX
8
Image
10
589.361812
20
442.242198
70
0
0
VERTEX
8
Image
10
589.578957
20
442.104788
70
0
0
VERTEX
8
Image
10
589.595520
20
441.844104
70
0
0
VERTEX
8
Image
10
589.429149
20
441.430088
70
0
0
VERTEX
8
Image
10
588.618197
20
440.021819
70
0
0
VERTEX
8
Image
10
587.178754
20
438.109711
70
0
0
VERTEX
8
Image
10
584.937216
20
435.758325
70
0
0
VERTEX
8
Image
10
582.174665
20
433.241140
70
0
0
VERTEX
8
Image
10
579.172187
20
430.831634
70
0
0
VERTEX
8
Image
10
573.696184
20
426.979832
70
0
0
VERTEX
8
Image
10
571.177132
20
425.467702
70
0
0
VERTEX
8
Image
10
568.579560
20
424.124224
70
0
0
VERTEX
8
Image
10
565.735106
20
422.868998
70
0
0
VERTEX
8
Image
10
562.475404
20
421.621626
70
0
0
VERTEX
8
Image
10
554.036802
20
418.828853
70
0
0
VERTEX
8
Image
10
547.169818
20
416.476369
70
0
0
VERTEX
8
Image
10
542.145939
20
414.345600
70
0
0
VERTEX
8
Image
10
538.641676
20
412.250112
70
0
0
VERTEX
8
Image
10
533.203404
20
408.713792
70
0
0
VERTEX
8
Image
10
525.833957
20
403.819082
70
0
0
VERTEX
8
Image
10
518.979555
20
399.462436
70
0
0
VERTEX
8
Image
10
505.720956
20
390.875500
70
0
0
VERTEX
8
Image
10
502.751032
20
388.648363
70
0
0
VERTEX
8
Image
10
496.172606
20
383.366185
70
0
0
VERTEX
8
Image
10
481.408769
20
371.744086
70
0
0
VERTEX
8
Image
10
475.738960
20
367.370820
70
0
0
VERTEX
8
Image
10
471.236002
20
363.708224
70
0
0
VERTEX
8
Image
10
467.652245
20
360.547336
70
0
0
VERTEX
8
Image
10
464.740040
20
357.679197
70
0
0
VERTEX
8
Image
10
462.855605
20
355.572122
70
0
0
VERTEX
8
Image
10
461.235939
20
353.445370
70
0
0
VERTEX
8
Image
10
459.725546
20
351.075557
70
0
0
VERTEX
8
Image
10
458.168935
20
348.239299
70
0
0
VERTEX
8
Image
10
456.926545
20
345.626571
70
0
0
VERTEX
8
Image
10
455.892615
20
342.974987
70
0
0
VERTEX
8
Image
10
455.065764
20
340.277142
70
0
0
VERTEX
8
Image
10
454.444609
20
337.525632
70
0
0
VERTEX
8
Image
10
454.027769
20
334.713053
70
0
0
VERTEX
8
Image
10
453.813862
20
331.832001
70
0
0
VERTEX
8
Image
10
453.801505
20
328.875072
70
0
0
VERTEX
8
Image
10
453.989318
20
325.834861
70
0
0
VERTEX
8
Image
10
454.410613
20
322.301553
70
0
0
VERTEX
8
Image
10
455.023017
20
319.178253
70
0
0
VERTEX
8
Image
10
455.936947
20
316.009824
70
0
0
VERTEX
8
Image
10
457.262818
20
312.341128
70
0
0
VERTEX
8
Image
10
459.984954
20
304.932804
70
0
0
VERTEX
8
Image
10
462.716244
20
297.590625
70
0
0
VERTEX
8
Image
10
463.212126
20
296.866409
70
0
0
VERTEX
8
Image
10
464.549593
20
298.574874
70
0
0
VERTEX
8
Image
10
464.549593
20
298.574874
70
0
0
SEQEND
8
Image
0
POLYLINE
8
Image
62
7
70
0
10
0.000000
20
0.000000
66
1
0
VERTEX
8
Image
10
359.522974
20
300.811579
70
0
0
VERTEX
8
Image
10
360.638515
20
301.208474
70
0
0
VERTEX
8
Image
10
361.577802
20
301.926823
70
0
0
VERTEX
8
Image
10
362.328131
20
302.953504
70
0
0
VERTEX
8
Image
10
362.876802
20
304.275394
70
0
0
VERTEX
8
Image
10
363.204530
20
306.234955
70
0
0
VERTEX
8
Image
10
362.979427
20
308.246702
70
0
0
VERTEX
8
Image
10
362.176306
20
310.412988
70
0
0
VERTEX
8
Image
10
360.769980
20
312.836162
70
0
0
VERTEX
8
Image
10
359.561021
20
314.380986
70
0
0
VERTEX
8
Image
10
357.883730
20
316.198698
70
0
0
VERTEX
8
Image
10
356.111100
20
317.907969
70
0
0
VERTEX
8
Image
10
354.616123
20
319.127470
70
0
0
VERTEX
8
Image
10
352.119641
20
320.437605
70
0
0
VERTEX
8
Image
10
349.993144
20
321.204658
70
0
0
VERTEX
8
Image
10
349.843423
20
319.125614
70
0
0
VERTEX
8
Image
10
349.784547
20
314.127063
70
0
0
VERTEX
8
Image
10
349.829158
20
309.380321
70
0
0
VERTEX
8
Image
10
350.089191
20
306.654660
70
0
0
VERTEX
8
Image
10
350.363796
20
305.752137
70
0
0
VERTEX
8
Image
10
350.768824
20
304.997767
70
0
0
VERTEX
8
Image
10
352.072237
20
303.457330
70
0
0
VERTEX
8
Image
10
353.763247
20
301.970755
70
0
0
VERTEX
8
Image
10
355.547723
20
301.041720
70
0
0
VERTEX
8
Image
10
357.457141
20
300.659052
70
0
0
VERTEX
8
Image
10
359.522974
20
300.811579
70
0
0
VERTEX
8
Image
10
359.522974
20
300.811579
70
0
0
SEQEND
8
Image
0
POLYLINE
8
Image
62
7
70
0
10
0.000000
20
0.000000
66
1
0
VERTEX
8
Image
10
371.017412
20
321.198229
70
0
0
VERTEX
8
Image
10
371.958062
20
321.742009
70
0
0
VERTEX
8
Image
10
372.687423
20
322.362004
70
0
0
VERTEX
8
Image
10
373.159079
20
323.009234
70
0
0
VERTEX
8
Image
10
373.326613
20
323.634721
70
0
0
VERTEX
8
Image
10
373.081481
20
324.579763
70
0
0
VERTEX
8
Image
10
372.397173
20
325.570519
70
0
0
VERTEX
8
Image
10
371.350319
20
326.521056
70
0
0
VERTEX
8
Image
10
370.017553
20
327.345444
70
0
0
VERTEX
8
Image
10
368.791745
20
327.835158
70
0
0
VERTEX
8
Image
10
367.299179
20
328.222562
70
0
0
VERTEX
8
Image
10
363.812384
20
328.672239
70
0
0
VERTEX
8
Image
10
360.154402
20
328.658073
70
0
0
VERTEX
8
Image
10
358.447851
20
328.465674
70
0
0
VERTEX
8
Image
10
356.922467
20
328.143665
70
0
0
VERTEX
8
Image
10
352.483138
20
326.643334
70
0
0
VERTEX
8
Image
10
351.090536
20
325.965590
70
0
0
VERTEX
8
Image
10
350.572475
20
325.472091
70
0
0
VERTEX
8
Image
10
351.615580
20
324.811605
70
0
0
VERTEX
8
Image
10
354.068523
20
323.605769
70
0
0
VERTEX
8
Image
10
359.145679
20
321.458102
70
0
0
VERTEX
8
Image
10
360.941623
20
320.937556
70
0
0
VERTEX
8
Image
10
362.563985
20
320.634759
70
0
0
VERTEX
8
Image
10
364.335711
20
320.508930
70
0
0
VERTEX
8
Image
10
366.579746
20
320.519282
70
0
0
VERTEX
8
Image
10
369.395707
20
320.696434
70
0
0
VERTEX
8
Image
10
371.017412
20
321.198229
70
0
0
VERTEX
8
Image
10
371.017412
20
321.198229
70
0
0
SEQEND
8
Image
0
POLYLINE
8
Image
62
7
70
0
10
0.000000
20
0.000000
66
1
0
VERTEX
8
Image
10
353.164912
20
331.511356
70
0
0
VERTEX
8
Image
10
357.259215
20
333.392511
70
0
0
VERTEX
8
Image
10
360.232741
20
334.954812
70
0
0
VERTEX
8
Image
10
362.452538
20
336.411643
70
0
0
VERTEX
8
Image
10
364.285653
20
337.976389
70
0
0
VERTEX
8
Image
10
365.356435
20
339.119688
70
0
0
VERTEX
8
Image
10
366.113654
20
340.198394
70
0
0
VERTEX
8
Image
10
366.563468
20
341.223238
70
0
0
VERTEX
8
Image
10
366.712038
20
342.204955
70
0
0
VERTEX
8
Image
10
366.609114
20
342.843200
70
0
0
VERTEX
8
Image
10
366.311156
20
343.400654
70
0
0
VERTEX
8
Image
10
365.834383
20
343.869976
70
0
0
VERTEX
8
Image
10
365.195015
20
344.243825
70
0
0
VERTEX
8
Image
10
363.493370
20
344.675744
70
0
0
VERTEX
8
Image
10
361.335976
20
344.637690
70
0
0
VERTEX
8
Image
10
359.988841
20
344.304370
70
0
0
VERTEX
8
Image
10
358.278461
20
343.605644
70
0
0
VERTEX
8
Image
10
356.248806
20
342.561994
70
0
0
VERTEX
8
Image
10
353.943845
20
341.193904
70
0
0
VERTEX
8
Image
10
352.442726
20
340.335801
70
0
0
VERTEX
8
Image
10
351.715950
20
340.081306
70
0
0
VERTEX
8
Image
10
351.584769
20
340.649570
70
0
0
VERTEX
8
Image
10
351.583860
20
341.747537
70
0
0
VERTEX
8
Image
10
351.915022
20
344.305267
70
0
0
VERTEX
8
Image
10
352.135430
20
346.232853
70
0
0
VERTEX
8
Image
10
351.987366
20
348.334288
70
0
0
VERTEX
8
Image
10
351.513774
20
350.326745
70
0
0
VERTEX
8
Image
10
350.757604
20
351.927401
70
0
0
VERTEX
8
Image
10
350.072992
20
352.696130
70
0
0
VERTEX
8
Image
10
349.858486
20
352.752291
70
0
0
VERTEX
8
Image
10
349.778726
20
352.557744
70
0
0
VERTEX
8
Image
10
349.778726
20
341.312966
70
0
0
VERTEX
8
Image
10
349.840526
20
333.464773
70
0
0
VERTEX
8
Image
10
349.989122
20
330.200480
70
0
0
VERTEX
8
Image
10
353.164912
20
331.511356
70
0
0
VERTEX
8
Image
10
353.164912
20
331.511356
70
0
0
SEQEND
8
Image
0
POLYLINE
8
Image
62
7
70
0
10
0.000000
20
0.000000
66
1
0
VERTEX
8
Image
10
478.948385
20
376.335421
70
0
0
VERTEX
8
Image
10
481.218707
20
380.143733
70
0
0
VERTEX
8
Image
10
483.057723
20
384.020769
70
0
0
VERTEX
8
Image
10
484.468726
20
387.984056
70
0
0
VERTEX
8
Image
10
485.455010
20
392.051119
70
0
0
VERTEX
8
Image
10
486.019867
20
396.239485
70
0
0
VERTEX
8
Image
10
486.166592
20
400.566681
70
0
0
VERTEX
8
Image
10
485.898477
20
405.050235
70
0
0
VERTEX
8
Image
10
485.218817
20
409.707672
70
0
0
VERTEX
8
Image
10
484.157079
20
413.904026
70
0
0
VERTEX
8
Image
10
482.596991
20
418.644905
70
0
0
VERTEX
8
Image
10
481.046775
20
422.522110
70
0
0
VERTEX
8
Image
10
480.434189
20
423.696774
70
0
0
VERTEX
8
Image
10
480.014654
20
424.127445
70
0
0
VERTEX
8
Image
10
479.320548
20
423.076591
70
0
0
VERTEX
8
Image
10
478.095492
20
420.585899
70
0
0
VERTEX
8
Image
10
476.800391
20
417.648172
70
0
0
VERTEX
8
Image
10
475.896155
20
415.256215
70
0
0
VERTEX
8
Image
10
474.984072
20
411.801825
70
0
0
VERTEX
8
Image
10
474.333316
20
408.272024
70
0
0
VERTEX
8
Image
10
473.991746
20
404.995102
70
0
0
VERTEX
8
Image
10
474.007218
20
402.299348
70
0
0
VERTEX
8
Image
10
474.544675
20
398.113575
70
0
0
VERTEX
8
Image
10
475.060602
20
395.284935
70
0
0
VERTEX
8
Image
10
475.432712
20
393.548767
70
0
0
VERTEX
8
Image
10
476.390449
20
388.673323
70
0
0
VERTEX
8
Image
10
476.854344
20
385.759384
70
0
0
VERTEX
8
Image
10
477.108660
20
382.553720
70
0
0
VERTEX
8
Image
10
477.146540
20
379.209968
70
0
0
VERTEX
8
Image
10
476.961128
20
375.881767
70
0
0
VERTEX
8
Image
10
476.861099
20
374.096883
70
0
0
VERTEX
8
Image
10
476.919423
20
373.760790
70
0
0
VERTEX
8
Image
10
477.052753
20
373.730310
70
0
0
VERTEX
8
Image
10
478.948385
20
376.335421
70
0
0
VERTEX
8
Image
10
478.948385
20
376.335421
70
0
0
SEQEND
8
Image
0
POLYLINE
8
Image
62
7
70
0
10
0.000000
20
0.000000
66
1
0
VERTEX
8
Image
10
505.628670
20
377.394917
70
0
0
VERTEX
8
Image
10
509.189984
20
378.221289
70
0
0
VERTEX
8
Image
10
512.761854
20
379.020621
70
0
0
VERTEX
8
Image
10
519.374828
20
380.243206
70
0
0
VERTEX
8
Image
10
527.710794
20
381.440470
70
0
0
VERTEX
8
Image
10
532.839418
20
381.804210
70
0
0
VERTEX
8
Image
10
539.387569
20
381.925501
70
0
0
VERTEX
8
Image
10
545.918158
20
381.804336
70
0
0
VERTEX
8
Image
10
550.994098
20
381.440709
70
0
0
VERTEX
8
Image
10
564.620122
20
379.540765
70
0
0
VERTEX
8
Image
10
567.129105
20
379.202598
70
0
0
VERTEX
8
Image
10
568.213933
20
379.264123
70
0
0
VERTEX
8
Image
10
568.266001
20
379.475420
70
0
0
VERTEX
8
Image
10
568.014485
20
379.823419
70
0
0
VERTEX
8
Image
10
566.670640
20
380.978561
70
0
0
VERTEX
8
Image
10
564.321803
20
382.598598
70
0
0
VERTEX
8
Image
10
561.563798
20
384.075626
70
0
0
VERTEX
8
Image
10
558.472735
20
385.387110
70
0
0
VERTEX
8
Image
10
555.124724
20
386.510512
70
0
0
VERTEX
8
Image
10
551.595877
20
387.423298
70
0
0
VERTEX
8
Image
10
547.962303
20
388.102929
70
0
0
VERTEX
8
Image
10
544.300112
20
388.526869
70
0
0
VERTEX
8
Image
10
540.685415
20
388.672582
70
0
0
VERTEX
8
Image
10
536.761431
20
388.508243
70
0
0
VERTEX
8
Image
10
532.658269
20
388.026690
70
0
0
VERTEX
8
Image
10
528.426715
20
387.242147
70
0
0
VERTEX
8
Image
10
524.117555
20
386.168833
70
0
0
VERTEX
8
Image
10
519.781575
20
384.820972
70
0
0
VERTEX
8
Image
10
515.469560
20
383.212785
70
0
0
VERTEX
8
Image
10
511.232298
20
381.358493
70
0
0
VERTEX
8
Image
10
507.120574
20
379.272319
70
0
0
VERTEX
8
Image
10
504.621030
20
377.870913
70
0
0
VERTEX
8
Image
10
503.590250
20
377.155119
70
0
0
VERTEX
8
Image
10
503.601715
20
377.024213
70
0
0
VERTEX
8
Image
10
503.951655
20
377.028574
70
0
0
VERTEX
8
Image
10
505.628670
20
377.394917
70
0
0
VERTEX
8
Image
10
505.628670
20
377.394917
70
0
0
SEQEND
8
Image
0
POLYLINE
8
Image
62
7
70
0
10
0.000000
20
0.000000
66
1
0
VERTEX
8
Image
10
364.096291
20
380.361210
70
0
0
VERTEX
8
Image
10
365.289147
20
381.856094
70
0
0
VERTEX
8
Image
10
365.705650
20
382.741981
70
0
0
VERTEX
8
Image
10
366.012219
20
383.763526
70
0
0
VERTEX
8
Image
10
366.325603
20
386.343665
70
0
0
VERTEX
8
Image
10
366.289393
20
389.856670
70
0
0
VERTEX
8
Image
10
366.103312
20
393.818139
70
0
0
VERTEX
8
Image
10
368.061332
20
391.891446
70
0
0
VERTEX
8
Image
10
369.684232
20
390.400485
70
0
0
VERTEX
8
Image
10
371.195967
20
389.235165
70
0
0
VERTEX
8
Image
10
372.605673
20
388.392886
70
0
0
VERTEX
8
Image
10
373.922484
20
387.871048
70
0
0
VERTEX
8
Image
10
375.155536
20
387.667049
70
0
0
VERTEX
8
Image
10
376.313964
20
387.778288
70
0
0
VERTEX
8
Image
10
377.406903
20
388.202166
70
0
0
VERTEX
8
Image
10
378.443489
20
388.936080
70
0
0
VERTEX
8
Image
10
379.298511
20
389.957038
70
0
0
VERTEX
8
Image
10
379.759854
20
391.153081
70
0
0
VERTEX
8
Image
10
379.834914
20
392.501099
70
0
0
VERTEX
8
Image
10
379.531091
20
393.977977
70
0
0
VERTEX
8
Image
10
378.855781
20
395.560604
70
0
0
VERTEX
8
Image
10
377.816381
20
397.225867
70
0
0
VERTEX
8
Image
10
376.420288
20
398.950653
70
0
0
VERTEX
8
Image
10
374.674902
20
400.711850
70
0
0
VERTEX
8
Image
10
371.277887
20
403.986077
70
0
0
VERTEX
8
Image
10
369.887034
20
405.602402
70
0
0
VERTEX
8
Image
10
369.961963
20
405.776948
70
0
0
VERTEX
8
Image
10
370.430206
20
406.019762
70
0
0
VERTEX
8
Image
10
374.007385
20
407.318619
70
0
0
VERTEX
8
Image
10
377.796208
20
408.785436
70
0
0
VERTEX
8
Image
10
380.463690
20
410.159655
70
0
0
VERTEX
8
Image
10
382.276031
20
411.609057
70
0
0
VERTEX
8
Image
10
383.499432
20
413.301423
70
0
0
VERTEX
8
Image
10
383.983380
20
414.441963
70
0
0
VERTEX
8
Image
10
384.224354
20
415.601364
70
0
0
VERTEX
8
Image
10
384.233299
20
416.743586
70
0
0
VERTEX
8
Image
10
384.021164
20
417.832589
70
0
0
VERTEX
8
Image
10
383.598893
20
418.832333
70
0
0
VERTEX
8
Image
10
382.977433
20
419.706780
70
0
0
VERTEX
8
Image
10
382.167731
20
420.419889
70
0
0
VERTEX
8
Image
10
381.180733
20
420.935622
70
0
0
VERTEX
8
Image
10
379.554239
20
421.217810
70
0
0
VERTEX
8
Image
10
377.528290
20
421.031874
70
0
0
VERTEX
8
Image
10
375.223746
20
420.400619
70
0
0
VERTEX
8
Image
10
372.761464
20
419.346854
70
0
0
VERTEX
8
Image
10
370.301768
20
418.306619
70
0
0
VERTEX
8
Image
10
369.952926
20
418.580933
70
0
0
VERTEX
8
Image
10
369.738963
20
419.275661
70
0
0
VERTEX
8
Image
10
369.691019
20
420.198483
70
0
0
VERTEX
8
Image
10
369.840229
20
421.157077
70
0
0
VERTEX
8
Image
10
370.707083
20
423.730571
70
0
0
VERTEX
8
Image
10
371.197183
20
425.750289
70
0
0
VERTEX
8
Image
10
371.367803
20
428.016911
70
0
0
VERTEX
8
Image
10
371.216978
20
430.101154
70
0
0
VERTEX
8
Image
10
370.742748
20
431.573737
70
0
0
VERTEX
8
Image
10
370.039142
20
432.432175
70
0
0
VERTEX
8
Image
10
369.201625
20
432.990255
70
0
0
VERTEX
8
Image
10
368.269563
20
433.230229
70
0
0
VERTEX
8
Image
10
367.282320
20
433.134353
70
0
0
VERTEX
8
Image
10
366.213410
20
432.680909
70
0
0
VERTEX
8
Image
10
365.043842
20
431.910329
70
0
0
VERTEX
8
Image
10
363.899059
20
430.918160
70
0
0
VERTEX
8
Image
10
362.904503
20
429.799946
70
0
0
VERTEX
8
Image
10
361.855886
20
428.202116
70
0
0
VERTEX
8
Image
10
360.739209
20
426.134704
70
0
0
VERTEX
8
Image
10
359.703237
20
423.895346
70
0
0
VERTEX
8
Image
10
358.896732
20
421.781679
70
0
0
VERTEX
8
Image
10
358.168388
20
419.568204
70
0
0
VERTEX
8
Image
10
357.014092
20
421.886480
70
0
0
VERTEX
8
Image
10
355.298535
20
424.827653
70
0
0
VERTEX
8
Image
10
353.275987
20
427.603146
70
0
0
VERTEX
8
Image
10
351.386815
20
429.668045
70
0
0
VERTEX
8
Image
10
350.629858
20
430.263737
70
0
0
VERTEX
8
Image
10
350.071381
20
430.477437
70
0
0
VERTEX
8
Image
10
349.938031
20
430.001797
70
0
0
VERTEX
8
Image
10
349.847167
20
428.506925
70
0
0
VERTEX
8
Image
10
349.778726
20
422.051791
70
0
0
VERTEX
8
Image
10
349.785248
20
416.691176
70
0
0
VERTEX
8
Image
10
349.979134
20
414.034950
70
0
0
VERTEX
8
Image
10
350.228052
20
413.350434
70
0
0
VERTEX
8
Image
10
350.621866
20
412.897359
70
0
0
VERTEX
8
Image
10
351.974924
20
412.092649
70
0
0
VERTEX
8
Image
10
353.245107
20
411.361474
70
0
0
VERTEX
8
Image
10
355.104967
20
412.218749
70
0
0
VERTEX
8
Image
10
356.658531
20
412.808728
70
0
0
VERTEX
8
Image
10
358.059251
20
413.056631
70
0
0
VERTEX
8
Image
10
359.379391
20
412.966654
70
0
0
VERTEX
8
Image
10
360.691214
20
412.542996
70
0
0
VERTEX
8
Image
10
361.872786
20
411.855283
70
0
0
VERTEX
8
Image
10
362.959434
20
410.916356
70
0
0
VERTEX
8
Image
10
363.856044
20
409.823645
70
0
0
VERTEX
8
Image
10
364.467501
20
408.674581
70
0
0
VERTEX
8
Image
10
364.801607
20
407.405363
70
0
0
VERTEX
8
Image
10
364.620589
20
406.012876
70
0
0
VERTEX
8
Image
10
364.180027
20
404.682593
70
0
0
VERTEX
8
Image
10
363.505438
20
403.532136
70
0
0
VERTEX
8
Image
10
362.621398
20
402.594428
70
0
0
VERTEX
8
Image
10
361.552484
20
401.902394
70
0
0
VERTEX
8
Image
10
359.842757
20
401.299435
70
0
0
VERTEX
8
Image
10
358.172390
20
401.170061
70
0
0
VERTEX
8
Image
10
356.527413
20
401.515181
70
0
0
VERTEX
8
Image
10
354.893856
20
402.335701
70
0
0
VERTEX
8
Image
10
353.988577
20
403.091802
70
0
0
VERTEX
8
Image
10
353.245173
20
404.075182
70
0
0
VERTEX
8
Image
10
352.672525
20
405.271139
70
0
0
VERTEX
8
Image
10
352.279512
20
406.664967
70
0
0
VERTEX
8
Image
10
351.985851
20
408.120174
70
0
0
VERTEX
8
Image
10
350.948447
20
408.120174
70
0
0
VERTEX
8
Image
10
349.911017
20
408.120174
70
0
0
VERTEX
8
Image
10
349.841009
20
400.123364
70
0
0
VERTEX
8
Image
10
349.851013
20
393.546522
70
0
0
VERTEX
8
Image
10
349.959026
20
392.470605
70
0
0
VERTEX
8
Image
10
350.159805
20
392.275753
70
0
0
VERTEX
8
Image
10
351.178820
20
393.432609
70
0
0
VERTEX
8
Image
10
353.642220
20
397.139979
70
0
0
VERTEX
8
Image
10
354.408928
20
398.330602
70
0
0
VERTEX
8
Image
10
354.473540
20
396.610813
70
0
0
VERTEX
8
Image
10
354.889639
20
390.583169
70
0
0
VERTEX
8
Image
10
355.489988
20
386.424367
70
0
0
VERTEX
8
Image
10
356.008581
20
384.751451
70
0
0
VERTEX
8
Image
10
356.610769
20
383.305653
70
0
0
VERTEX
8
Image
10
357.294941
20
382.088716
70
0
0
VERTEX
8
Image
10
358.059489
20
381.102380
70
0
0
VERTEX
8
Image
10
358.902803
20
380.348386
70
0
0
VERTEX
8
Image
10
359.823274
20
379.828477
70
0
0
VERTEX
8
Image
10
360.819291
20
379.544393
70
0
0
VERTEX
8
Image
10
361.889246
20
379.497876
70
0
0
VERTEX
8
Image
10
363.165994
20
379.727524
70
0
0
VERTEX
8
Image
10
364.096291
20
380.361210
70
0
0
VERTEX
8
Image
10
364.096291
20
380.361210
70
0
0
SEQEND
8
Image
0
POLYLINE
8
Image
62
7
70
0
10
0.000000
20
0.000000
66
1
0
VERTEX
8
Image
10
602.657024
20
395.747002
70
0
0
VERTEX
8
Image
10
602.587783
20
405.995678
70
0
0
VERTEX
8
Image
10
600.867993
20
406.463805
70
0
0
VERTEX
8
Image
10
595.444042
20
407.511527
70
0
0
VERTEX
8
Image
10
590.802644
20
407.971588
70
0
0
VERTEX
8
Image
10
585.326520
20
408.126874
70
0
0
VERTEX
8
Image
10
579.948225
20
407.976934
70
0
0
VERTEX
8
Image
10
575.600317
20
407.521316
70
0
0
VERTEX
8
Image
10
571.005189
20
406.596706
70
0
0
VERTEX
8
Image
10
566.426000
20
405.458270
70
0
0
VERTEX
8
Image
10
562.531371
20
404.288163
70
0
0
VERTEX
8
Image
10
559.989920
20
403.268541
70
0
0
VERTEX
8
Image
10
559.652169
20
403.021854
70
0
0
VERTEX
8
Image
10
560.038176
20
402.859265
70
0
0
VERTEX
8
Image
10
564.487831
20
402.543611
70
0
0
VERTEX
8
Image
10
569.922856
20
402.122972
70
0
0
VERTEX
8
Image
10
574.389161
20
401.471289
70
0
0
VERTEX
8
Image
10
578.501930
20
400.470028
70
0
0
VERTEX
8
Image
10
582.876349
20
399.000659
70
0
0
VERTEX
8
Image
10
585.100963
20
398.070329
70
0
0
VERTEX
8
Image
10
587.458855
20
396.888191
70
0
0
VERTEX
8
Image
10
592.339937
20
393.926390
70
0
0
VERTEX
8
Image
10
597.050517
20
390.431046
70
0
0
VERTEX
8
Image
10
599.195282
20
388.581979
70
0
0
VERTEX
8
Image
10
601.121516
20
386.717949
70
0
0
VERTEX
8
Image
10
602.513699
20
385.498380
70
0
0
VERTEX
8
Image
10
602.643494
20
388.508924
70
0
0
VERTEX
8
Image
10
602.657024
20
395.747055
70
0
0
VERTEX
8
Image
10
602.657024
20
395.747002
70
0
0
SEQEND
8
Image
0
POLYLINE
8
Image
62
7
70
0
10
0.000000
20
0.000000
66
1
0
VERTEX
8
Image
10
556.178416
20
422.801302
70
0
0
VERTEX
8
Image
10
560.217021
20
424.714078
70
0
0
VERTEX
8
Image
10
563.928009
20
426.790086
70
0
0
VERTEX
8
Image
10
567.165739
20
428.940741
70
0
0
VERTEX
8
Image
10
569.784570
20
431.077458
70
0
0
VERTEX
8
Image
10
570.922122
20
432.221765
70
0
0
VERTEX
8
Image
10
571.345061
20
432.928987
70
0
0
VERTEX
8
Image
10
571.292263
20
433.146333
70
0
0
VERTEX
8
Image
10
571.065265
20
433.287579
70
0
0
VERTEX
8
Image
10
570.094609
20
433.385998
70
0
0
VERTEX
8
Image
10
568.842082
20
433.283914
70
0
0
VERTEX
8
Image
10
567.378858
20
432.996183
70
0
0
VERTEX
8
Image
10
564.054533
20
431.952269
70
0
0
VERTEX
8
Image
10
560.590066
20
430.431242
70
0
0
VERTEX
8
Image
10
557.453891
20
428.610090
70
0
0
VERTEX
8
Image
10
555.394783
20
426.932532
70
0
0
VERTEX
8
Image
10
552.668399
20
424.433290
70
0
0
VERTEX
8
Image
10
550.322488
20
422.108772
70
0
0
VERTEX
8
Image
10
549.404800
20
420.955386
70
0
0
VERTEX
8
Image
10
550.205188
20
420.949964
70
0
0
VERTEX
8
Image
10
551.945998
20
421.349846
70
0
0
VERTEX
8
Image
10
554.109612
20
422.013977
70
0
0
VERTEX
8
Image
10
556.178416
20
422.801302
70
0
0
VERTEX
8
Image
10
556.178416
20
422.801302
70
0
0
SEQEND
8
Image
0
POLYLINE
8
Image
62
7
70
0
10
0.000000
20
0.000000
66
1
0
VERTEX
8
Image
10
545.018570
20
453.791626
70
0
0
VERTEX
8
Image
10
545.783112
20
457.379083
70
0
0
VERTEX
8
Image
10
546.298918
20
460.797843
70
0
0
VERTEX
8
Image
10
546.564831
20
464.080668
70
0
0
VERTEX
8
Image
10
546.579689
20
467.260318
70
0
0
VERTEX
8
Image
10
546.342333
20
470.369554
70
0
0
VERTEX
8
Image
10
545.851604
20
473.441138
70
0
0
VERTEX
8
Image
10
545.106343
20
476.507830
70
0
0
VERTEX
8
Image
10
544.105388
20
479.602391
70
0
0
VERTEX
8
Image
10
542.915449
20
482.513109
70
0
0
VERTEX
8
Image
10
541.468134
20
485.327188
70
0
0
VERTEX
8
Image
10
539.682211
20
488.187186
70
0
0
VERTEX
8
Image
10
537.476446
20
491.235666
70
0
0
VERTEX
8
Image
10
532.353871
20
498.115049
70
0
0
VERTEX
8
Image
10
529.376740
20
502.429091
70
0
0
VERTEX
8
Image
10
528.984155
20
503.000215
70
0
0
VERTEX
8
Image
10
528.673188
20
503.237762
70
0
0
VERTEX
8
Image
10
528.270467
20
502.279628
70
0
0
VERTEX
8
Image
10
527.639353
20
499.966158
70
0
0
VERTEX
8
Image
10
526.530568
20
494.638815
70
0
0
VERTEX
8
Image
10
526.304192
20
491.699133
70
0
0
VERTEX
8
Image
10
526.453164
20
488.658190
70
0
0
VERTEX
8
Image
10
526.979366
20
485.498709
70
0
0
VERTEX
8
Image
10
527.884677
20
482.203414
70
0
0
VERTEX
8
Image
10
528.730945
20
480.004014
70
0
0
VERTEX
8
Image
10
530.007976
20
477.498024
70
0
0
VERTEX
8
Image
10
531.961529
20
474.247538
70
0
0
VERTEX
8
Image
10
534.837363
20
469.814651
70
0
0
VERTEX
8
Image
10
538.234545
20
464.476771
70
0
0
VERTEX
8
Image
10
540.601988
20
460.211830
70
0
0
VERTEX
8
Image
10
542.188120
20
456.519848
70
0
0
VERTEX
8
Image
10
543.241366
20
452.900846
70
0
0
VERTEX
8
Image
10
544.010482
20
450.321162
70
0
0
VERTEX
8
Image
10
545.018570
20
453.791626
70
0
0
VERTEX
8
Image
10
545.018570
20
453.791626
70
0
0
SEQEND
8
Image
0
POLYLINE
8
Image
62
7
70
0
10
0.000000
20
0.000000
66
1
0
VERTEX
8
Image
10
564.268121
20
476.891987
70
0
0
VERTEX
8
Image
10
568.302240
20
480.571408
70
0
0
VERTEX
8
Image
10
572.616945
20
484.085657
70
0
0
VERTEX
8
Image
10
576.946274
20
487.229867
70
0
0
VERTEX
8
Image
10
581.024268
20
489.799171
70
0
0
VERTEX
8
Image
10
585.839757
20
492.318637
70
0
0
VERTEX
8
Image
10
591.078604
20
494.660911
70
0
0
VERTEX
8
Image
10
596.185069
20
496.596206
70
0
0
VERTEX
8
Image
10
600.603410
20
497.894736
70
0
0
VERTEX
8
Image
10
602.587783
20
498.355772
70
0
0
VERTEX
8
Image
10
602.654669
20
545.379002
70
0
0
VERTEX
8
Image
10
602.721529
20
592.402233
70
0
0
VERTEX
8
Image
10
581.686466
20
592.402233
70
0
0
VERTEX
8
Image
10
560.651377
20
592.266203
70
0
0
VERTEX
8
Image
10
561.800276
20
590.719649
70
0
0
VERTEX
8
Image
10
562.716500
20
589.373352
70
0
0
VERTEX
8
Image
10
563.606230
20
587.662867
70
0
0
VERTEX
8
Image
10
564.395199
20
585.748558
70
0
0
VERTEX
8
Image
10
565.009138
20
583.790795
70
0
0
VERTEX
8
Image
10
565.489357
20
582.184395
70
0
0
VERTEX
8
Image
10
567.513919
20
584.086551
70
0
0
VERTEX
8
Image
10
569.204433
20
585.675912
70
0
0
VERTEX
8
Image
10
570.543236
20
586.708658
70
0
0
VERTEX
8
Image
10
572.333306
20
587.489343
70
0
0
VERTEX
8
Image
10
574.093533
20
587.725324
70
0
0
VERTEX
8
Image
10
575.812173
20
587.416845
70
0
0
VERTEX
8
Image
10
577.477480
20
586.564151
70
0
0
VERTEX
8
Image
10
578.123930
20
586.043788
70
0
0
VERTEX
8
Image
10
578.691271
20
585.361903
70
0
0
VERTEX
8
Image
10
580.101932
20
582.771880
70
0
0
VERTEX
8
Image
10
581.098702
20
580.831507
70
0
0
VERTEX
8
Image
10
581.975616
20
579.729388
70
0
0
VERTEX
8
Image
10
583.237677
20
579.043351
70
0
0
VERTEX
8
Image
10
585.389887
20
578.351219
70
0
0
VERTEX
8
Image
10
587.348101
20
577.672910
70
0
0
VERTEX
8
Image
10
588.765170
20
576.957532
70
0
0
VERTEX
8
Image
10
589.764264
20
576.126235
70
0
0
VERTEX
8
Image
10
590.468558
20
575.100166
70
0
0
VERTEX
8
Image
10
590.853594
20
573.704277
70
0
0
VERTEX
8
Image
10
590.800557
20
571.940736
70
0
0
VERTEX
8
Image
10
590.345074
20
569.892786
70
0
0
VERTEX
8
Image
10
589.522773
20
567.643667
70
0
0
VERTEX
8
Image
10
588.369283
20
565.276620
70
0
0
VERTEX
8
Image
10
586.920232
20
562.874886
70
0
0
VERTEX
8
Image
10
585.211248
20
560.521706
70
0
0
VERTEX
8
Image
10
583.277960
20
558.300321
70
0
0
VERTEX
8
Image
10
580.680328
20
555.814933
70
0
0
VERTEX
8
Image
10
577.811916
20
553.489677
70
0
0
VERTEX
8
Image
10
574.781466
20
551.405830
70
0
0
VERTEX
8
Image
10
571.697717
20
549.644668
70
0
0
VERTEX
8
Image
10
570.440948
20
549.001707
70
0
0
VERTEX
8
Image
10
570.435656
20
547.484811
70
0
0
VERTEX
8
Image
10
570.131965
20
543.960777
70
0
0
VERTEX
8
Image
10
569.363275
20
540.630595
70
0
0
VERTEX
8
Image
10
568.703171
20
539.135679
70
0
0
VERTEX
8
Image
10
567.700116
20
537.447605
70
0
0
VERTEX
8
Image
10
566.515486
20
535.811578
70
0
0
VERTEX
8
Image
10
565.310657
20
534.472799
70
0
0
VERTEX
8
Image
10
564.662941
20
533.715397
70
0
0
VERTEX
8
Image
10
564.382808
20
532.687110
70
0
0
VERTEX
8
Image
10
564.423929
20
530.828317
70
0
0
VERTEX
8
Image
10
564.739978
20
527.579398
70
0
0
VERTEX
8
Image
10
565.218080
20
522.209491
70
0
0
VERTEX
8
Image
10
565.498117
20
516.942993
70
0
0
VERTEX
8
Image
10
565.578248
20
511.737014
70
0
0
VERTEX
8
Image
10
565.456631
20
506.548667
70
0
0
VERTEX
8
Image
10
565.131423
20
501.335063
70
0
0
VERTEX
8
Image
10
564.600783
20
496.053314
70
0
0
VERTEX
8
Image
10
563.862868
20
490.660531
70
0
0
VERTEX
8
Image
10
562.915837
20
485.113827
70
0
0
VERTEX
8
Image
10
561.965091
20
480.292126
70
0
0
VERTEX
8
Image
10
561.053675
20
476.383204
70
0
0
VERTEX
8
Image
10
560.446957
20
473.839259
70
0
0
VERTEX
8
Image
10
560.408078
20
473.432045
70
0
0
VERTEX
8
Image
10
560.497760
20
473.339883
70
0
0
VERTEX
8
Image
10
564.268068
20
476.891987
70
0
0
VERTEX
8
Image
10
564.268121
20
476.891987
70
0
0
SEQEND
8
Image
0
POLYLINE
8
Image
62
7
70
0
10
0.000000
20
0.000000
66
1
0
VERTEX
8
Image
10
562.312905
20
537.587258
70
0
0
VERTEX
8
Image
10
563.870368
20
539.089764
70
0
0
VERTEX
8
Image
10
565.010785
20
540.806408
70
0
0
VERTEX
8
Image
10
565.754775
20
542.777534
70
0
0
VERTEX
8
Image
10
566.122953
20
545.043487
70
0
0
VERTEX
8
Image
10
566.290805
20
547.220151
70
0
0
VERTEX
8
Image
10
564.635044
20
547.027979
70
0
0
VERTEX
8
Image
10
561.566829
20
546.479847
70
0
0
VERTEX
8
Image
10
558.679103
20
545.600851
70
0
0
VERTEX
8
Image
10
556.159844
20
544.461172
70
0
0
VERTEX
8
Image
10
554.197033
20
543.130994
70
0
0
VERTEX
8
Image
10
553.171166
20
542.244194
70
0
0
VERTEX
8
Image
10
553.633128
20
541.327935
70
0
0
VERTEX
8
Image
10
554.508465
20
539.973327
70
0
0
VERTEX
8
Image
10
555.653996
20
538.824259
70
0
0
VERTEX
8
Image
10
557.042013
20
537.903374
70
0
0
VERTEX
8
Image
10
558.644806
20
537.233315
70
0
0
VERTEX
8
Image
10
559.813768
20
536.938347
70
0
0
VERTEX
8
Image
10
560.748919
20
536.892661
70
0
0
VERTEX
8
Image
10
561.549038
20
537.105787
70
0
0
VERTEX
8
Image
10
562.312905
20
537.587258
70
0
0
VERTEX
8
Image
10
562.312905
20
537.587258
70
0
0
SEQEND
8
Image
0
POLYLINE
8
Image
62
7
70
0
10
0.000000
20
0.000000
66
1
0
VERTEX
8
Image
10
544.908689
20
544.219015
70
0
0
VERTEX
8
Image
10
548.821474
20
545.284316
70
0
0
VERTEX
8
Image
10
552.887407
20
546.930424
70
0
0
VERTEX
8
Image
10
555.359452
20
548.179534
70
0
0
VERTEX
8
Image
10
553.999840
20
549.112655
70
0
0
VERTEX
8
Image
10
550.170242
20
551.578063
70
0
0
VERTEX
8
Image
10
546.231604
20
554.578929
70
0
0
VERTEX
8
Image
10
542.632342
20
557.939733
70
0
0
VERTEX
8
Image
10
538.598384
20
562.535683
70
0
0
VERTEX
8
Image
10
536.771286
20
564.605071
70
0
0
VERTEX
8
Image
10
535.639473
20
565.635218
70
0
0
VERTEX
8
Image
10
533.200557
20
566.364207
70
0
0
VERTEX
8
Image
10
529.653547
20
567.002503
70
0
0
VERTEX
8
Image
10
527.877093
20
567.143570
70
0
0
VERTEX
8
Image
10
526.274326
20
567.075534
70
0
0
VERTEX
8
Image
10
524.943805
20
566.809617
70
0
0
VERTEX
8
Image
10
523.984089
20
566.357040
70
0
0
VERTEX
8
Image
10
523.723178
20
566.104805
70
0
0
VERTEX
8
Image
10
523.661182
20
565.707236
70
0
0
VERTEX
8
Image
10
524.209752
20
563.524306
70
0
0
VERTEX
8
Image
10
524.876587
20
561.082221
70
0
0
VERTEX
8
Image
10
525.207289
20
559.410450
70
0
0
VERTEX
8
Image
10
525.245267
20
558.165519
70
0
0
VERTEX
8
Image
10
525.033928
20
557.003954
70
0
0
VERTEX
8
Image
10
524.671152
20
555.885601
70
0
0
VERTEX
8
Image
10
524.124510
20
554.861767
70
0
0
VERTEX
8
Image
10
521.826388
20
552.098627
70
0
0
VERTEX
8
Image
10
520.170178
20
550.037568
70
0
0
VERTEX
8
Image
10
520.687755
20
548.768779
70
0
0
VERTEX
8
Image
10
521.215456
20
547.924310
70
0
0
VERTEX
8
Image
10
521.898298
20
547.172609
70
0
0
VERTEX
8
Image
10
522.753621
20
546.505259
70
0
0
VERTEX
8
Image
10
523.798765
20
545.913841
70
0
0
VERTEX
8
Image
10
526.527871
20
544.925133
70
0
0
VERTEX
8
Image
10
530.224332
20
544.139145
70
0
0
VERTEX
8
Image
10
534.258426
20
543.610787
70
0
0
VERTEX
8
Image
10
538.823280
20
543.596329
70
0
0
VERTEX
8
Image
10
542.196908
20
543.795535
70
0
0
VERTEX
8
Image
10
544.908689
20
544.219015
70
0
0
VERTEX
8
Image
10
544.908689
20
544.219015
70
0
0
SEQEND
8
Image
0
POLYLINE
8
Image
62
7
70
0
10
0.000000
20
0.000000
66
1
0
VERTEX
8
Image
10
558.927830
20
551.987180
70
0
0
VERTEX
8
Image
10
560.407458
20
556.286654
70
0
0
VERTEX
8
Image
10
561.181734
20
559.197067
70
0
0
VERTEX
8
Image
10
562.196937
20
563.946055
70
0
0
VERTEX
8
Image
10
562.715439
20
568.697078
70
0
0
VERTEX
8
Image
10
562.734072
20
573.394444
70
0
0
VERTEX
8
Image
10
562.249670
20
577.982460
70
0
0
VERTEX
8
Image
10
561.132928
20
583.162617
70
0
0
VERTEX
8
Image
10
560.474417
20
585.328641
70
0
0
VERTEX
8
Image
10
559.825190
20
586.931278
70
0
0
VERTEX
8
Image
10
558.740100
20
588.581710
70
0
0
VERTEX
8
Image
10
557.364145
20
589.896232
70
0
0
VERTEX
8
Image
10
555.842696
20
590.765287
70
0
0
VERTEX
8
Image
10
554.321123
20
591.079318
70
0
0
VERTEX
8
Image
10
553.336181
20
590.891027
70
0
0
VERTEX
8
Image
10
552.377225
20
590.294859
70
0
0
VERTEX
8
Image
10
551.388751
20
589.243867
70
0
0
VERTEX
8
Image
10
550.315257
20
587.691105
70
0
0
VERTEX
8
Image
10
549.303379
20
586.185447
70
0
0
VERTEX
8
Image
10
548.386195
20
585.080390
70
0
0
VERTEX
8
Image
10
547.524376
20
584.335029
70
0
0
VERTEX
8
Image
10
546.678590
20
583.908455
70
0
0
VERTEX
8
Image
10
545.107989
20
583.725463
70
0
0
VERTEX
8
Image
10
542.161603
20
583.791178
70
0
0
VERTEX
8
Image
10
538.928729
20
583.866024
70
0
0
VERTEX
8
Image
10
538.238617
20
583.703981
70
0
0
VERTEX
8
Image
10
537.656971
20
583.360262
70
0
0
VERTEX
8
Image
10
536.617360
20
582.536399
70
0
0
VERTEX
8
Image
10
536.008483
20
581.665450
70
0
0
VERTEX
8
Image
10
535.724623
20
580.507117
70
0
0
VERTEX
8
Image
10
535.660057
20
578.821100
70
0
0
VERTEX
8
Image
10
535.797131
20
576.572793
70
0
0
VERTEX
8
Image
10
536.274604
20
574.807464
70
0
0
VERTEX
8
Image
10
537.752726
20
571.525106
70
0
0
VERTEX
8
Image
10
539.693191
20
568.161600
70
0
0
VERTEX
8
Image
10
542.010421
20
564.815515
70
0
0
VERTEX
8
Image
10
544.618841
20
561.585419
70
0
0
VERTEX
8
Image
10
547.432873
20
558.569880
70
0
0
VERTEX
8
Image
10
550.366939
20
555.867469
70
0
0
VERTEX
8
Image
10
553.335464
20
553.576754
70
0
0
VERTEX
8
Image
10
556.252870
20
551.796304
70
0
0
VERTEX
8
Image
10
558.260631
20
550.862702
70
0
0
VERTEX
8
Image
10
558.545981
20
551.193017
70
0
0
VERTEX
8
Image
10
558.927830
20
551.987180
70
0
0
VERTEX
8
Image
10
558.927830
20
551.987180
70
0
0
SEQEND
8
Image
0
POLYLINE
8
Image
62
7
70
0
10
0.000000
20
0.000000
66
1
0
VERTEX
8
Image
10
565.699488
20
551.545186
70
0
0
VERTEX
8
Image
10
568.434543
20
552.650083
70
0
0
VERTEX
8
Image
10
571.518714
20
554.128176
70
0
0
VERTEX
8
Image
10
574.433061
20
555.714370
70
0
0
VERTEX
8
Image
10
576.658649
20
557.143564
70
0
0
VERTEX
8
Image
10
579.699166
20
559.731302
70
0
0
VERTEX
8
Image
10
582.457716
20
562.724202
70
0
0
VERTEX
8
Image
10
584.721845
20
565.862901
70
0
0
VERTEX
8
Image
10
585.602109
20
567.405876
70
0
0
VERTEX
8
Image
10
586.279098
20
568.888041
70
0
0
VERTEX
8
Image
10
587.166741
20
571.579399
70
0
0
VERTEX
8
Image
10
587.265290
20
572.521630
70
0
0
VERTEX
8
Image
10
587.105516
20
573.256345
70
0
0
VERTEX
8
Image
10
586.666316
20
573.829632
70
0
0
VERTEX
8
Image
10
585.926584
20
574.287580
70
0
0
VERTEX
8
Image
10
583.461104
20
575.041807
70
0
0
VERTEX
8
Image
10
581.037494
20
575.706432
70
0
0
VERTEX
8
Image
10
580.177688
20
576.082704
70
0
0
VERTEX
8
Image
10
579.475002
20
576.552454
70
0
0
VERTEX
8
Image
10
578.871277
20
577.163812
70
0
0
VERTEX
8
Image
10
578.308353
20
577.964907
70
0
0
VERTEX
8
Image
10
577.072271
20
580.328824
70
0
0
VERTEX
8
Image
10
575.645544
20
583.046319
70
0
0
VERTEX
8
Image
10
575.166697
20
583.630677
70
0
0
VERTEX
8
Image
10
574.692665
20
583.927960
70
0
0
VERTEX
8
Image
10
574.065727
20
584.080349
70
0
0
VERTEX
8
Image
10
573.416746
20
584.019088
70
0
0
VERTEX
8
Image
10
572.735977
20
583.735937
70
0
0
VERTEX
8
Image
10
572.013672
20
583.222653
70
0
0
VERTEX
8
Image
10
570.405479
20
581.472729
70
0
0
VERTEX
8
Image
10
568.514202
20
578.703387
70
0
0
VERTEX
8
Image
10
566.818622
20
575.984733
70
0
0
VERTEX
8
Image
10
566.652225
20
571.427355
70
0
0
VERTEX
8
Image
10
566.337771
20
566.754377
70
0
0
VERTEX
8
Image
10
565.725517
20
562.403978
70
0
0
VERTEX
8
Image
10
564.774500
20
558.150684
70
0
0
VERTEX
8
Image
10
563.443760
20
553.769022
70
0
0
VERTEX
8
Image
10
562.869428
20
551.884669
70
0
0
VERTEX
8
Image
10
562.809221
20
551.331382
70
0
0
VERTEX
8
Image
10
562.931044
20
551.007067
70
0
0
VERTEX
8
Image
10
563.257939
20
550.889007
70
0
0
VERTEX
8
Image
10
563.812950
20
550.954484
70
0
0
VERTEX
8
Image
10
565.699488
20
551.545186
70
0
0
VERTEX
8
Image
10
565.699488
20
551.545186
70
0
0
SEQEND
8
Image
0
POLYLINE
8
Image
62
7
70
1
10
0.000000
20
0.000000
66
1
0
VERTEX
8
Image
10
625.209629
20
353.839357
70
0
0
VERTEX
8
Image
10
625.209629
20
604.490432
70
0
0
VERTEX
8
Image
10
629.220443
20
604.664033
70
0
0
VERTEX
8
Image
10
673.827312
20
604.787975
70
0
0
VERTEX
8
Image
10
767.143129
20
604.831407
70
0
0
VERTEX
8
Image
10
859.760506
20
604.792998
70
0
0
VERTEX
8
Image
10
902.272057
20
604.671415
70
0
0
VERTEX
8
Image
10
903.242124
20
604.511006
70
0
0
VERTEX
8
Image
10
903.330389
20
483.958334
70
0
0
VERTEX
8
Image
10
903.330389
20
233.296969
70
0
0
VERTEX
8
Image
10
903.242150
20
103.188266
70
0
0
VERTEX
8
Image
10
764.225876
20
103.188266
70
0
0
VERTEX
8
Image
10
625.209629
20
103.188266
70
0
0
VERTEX
8
Image
10
625.209629
20
353.839357
70
0
0
SEQEND
8
Image
0
POLYLINE
8
Image
62
7
70
0
10
0.000000
20
0.000000
66
1
0
VERTEX
8
Image
10
884.297028
20
214.283890
70
0
0
VERTEX
8
Image
10
888.932734
20
215.525498
70
0
0
VERTEX
8
Image
10
890.850961
20
216.002621
70
0
0
VERTEX
8
Image
10
890.850961
20
227.857871
70
0
0
VERTEX
8
Image
10
890.749441
20
239.713094
70
0
0
VERTEX
8
Image
10
888.503944
20
237.492214
70
0
0
VERTEX
8
Image
10
885.176132
20
233.770851
70
0
0
VERTEX
8
Image
10
883.790044
20
231.841431
70
0
0
VERTEX
8
Image
10
882.348692
20
229.415649
70
0
0
VERTEX
8
Image
10
881.065891
20
226.882722
70
0
0
VERTEX
8
Image
10
880.155458
20
224.631863
70
0
0
VERTEX
8
Image
10
879.553097
20
222.509276
70
0
0
VERTEX
8
Image
10
879.160331
20
220.478251
70
0
0
VERTEX
8
Image
10
878.972861
20
218.597797
70
0
0
VERTEX
8
Image
10
878.986391
20
216.926922
70
0
0
VERTEX
8
Image
10
879.196625
20
215.524633
70
0
0
VERTEX
8
Image
10
879.599265
20
214.449941
70
0
0
VERTEX
8
Image
10
880.190016
20
213.761853
70
0
0
VERTEX
8
Image
10
880.964579
20
213.519377
70
0
0
VERTEX
8
Image
10
884.297028
20
214.283890
70
0
0
VERTEX
8
Image
10
884.297028
20
214.283890
70
0
0
SEQEND
8
Image
0
POLYLINE
8
Image
62
7
70
0
10
0.000000
20
0.000000
66
1
0
VERTEX
8
Image
10
874.049941
20
237.329995
70
0
0
VERTEX
8
Image
10
878.422003
20
238.385350
70
0
0
VERTEX
8
Image
10
883.087672
20
239.987599
70
0
0
VERTEX
8
Image
10
887.338685
20
242.098631
70
0
0
VERTEX
8
Image
10
889.283019
20
243.255849
70
0
0
VERTEX
8
Image
10
890.451203
20
244.113638
70
0
0
VERTEX
8
Image
10
890.653001
20
244.529959
70
0
0
VERTEX
8
Image
10
890.774936
20
245.455627
70
0
0
VERTEX
8
Image
10
890.850961
20
249.867737
70
0
0
VERTEX
8
Image
10
890.850961
20
255.222103
70
0
0
VERTEX
8
Image
10
888.121761
20
256.844685
70
0
0
VERTEX
8
Image
10
884.606604
20
258.815753
70
0
0
VERTEX
8
Image
10
881.185559
20
260.506669
70
0
0
VERTEX
8
Image
10
877.929283
20
261.895464
70
0
0
VERTEX
8
Image
10
874.908430
20
262.960170
70
0
0
VERTEX
8
Image
10
872.193655
20
263.678819
70
0
0
VERTEX
8
Image
10
869.855613
20
264.029442
70
0
0
VERTEX
8
Image
10
867.964960
20
263.990072
70
0
0
VERTEX
8
Image
10
866.592351
20
263.538740
70
0
0
VERTEX
8
Image
10
866.008659
20
263.115057
70
0
0
VERTEX
8
Image
10
865.589192
20
262.638295
70
0
0
VERTEX
8
Image
10
865.333560
20
262.081727
70
0
0
VERTEX
8
Image
10
865.241374
20
261.418627
70
0
0
VERTEX
8
Image
10
865.545774
20
259.665921
70
0
0
VERTEX
8
Image
10
866.499271
20
257.166365
70
0
0
VERTEX
8
Image
10
867.381672
20
254.792552
70
0
0
VERTEX
8
Image
10
867.567657
20
252.753782
70
0
0
VERTEX
8
Image
10
867.478291
20
251.276552
70
0
0
VERTEX
8
Image
10
867.130761
20
249.997882
70
0
0
VERTEX
8
Image
10
866.405917
20
248.622924
70
0
0
VERTEX
8
Image
10
865.184611
20
246.856835
70
0
0
VERTEX
8
Image
10
863.243081
20
243.938594
70
0
0
VERTEX
8
Image
10
862.895972
20
243.019772
70
0
0
VERTEX
8
Image
10
862.806142
20
242.147337
70
0
0
VERTEX
8
Image
10
862.889577
20
241.237856
70
0
0
VERTEX
8
Image
10
863.142215
20
240.417755
70
0
0
VERTEX
8
Image
10
863.567553
20
239.679721
70
0
0
VERTEX
8
Image
10
864.169088
20
239.016447
70
0
0
VERTEX
8
Image
10
865.688245
20
238.003488
70
0
0
VERTEX
8
Image
10
867.435365
20
237.314676
70
0
0
VERTEX
8
Image
10
868.714667
20
237.153936
70
0
0
VERTEX
8
Image
10
870.509926
20
237.103532
70
0
0
VERTEX
8
Image
10
874.049941
20
237.330021
70
0
0
VERTEX
8
Image
10
874.049941
20
237.329995
70
0
0
SEQEND
8
Image
0
POLYLINE
8
Image
62
7
70
0
10
0.000000
20
0.000000
66
1
0
VERTEX
8
Image
10
890.850961
20
272.230239
70
0
0
VERTEX
8
Image
10
890.850961
20
284.639076
70
0
0
VERTEX
8
Image
10
888.809703
20
285.093232
70
0
0
VERTEX
8
Image
10
886.243433
20
285.463928
70
0
0
VERTEX
8
Image
10
883.964878
20
285.381281
70
0
0
VERTEX
8
Image
10
881.990712
20
284.858291
70
0
0
VERTEX
8
Image
10
880.337607
20
283.907960
70
0
0
VERTEX
8
Image
10
879.022236
20
282.543290
70
0
0
VERTEX
8
Image
10
878.061271
20
280.777282
70
0
0
VERTEX
8
Image
10
877.471387
20
278.622937
70
0
0
VERTEX
8
Image
10
877.269254
20
276.093257
70
0
0
VERTEX
8
Image
10
877.358675
20
274.185103
70
0
0
VERTEX
8
Image
10
877.653194
20
272.442477
70
0
0
VERTEX
8
Image
10
878.186239
20
270.725714
70
0
0
VERTEX
8
Image
10
878.991240
20
268.895144
70
0
0
VERTEX
8
Image
10
880.077460
20
267.030447
70
0
0
VERTEX
8
Image
10
881.459098
20
265.481831
70
0
0
VERTEX
8
Image
10
883.447260
20
263.966424
70
0
0
VERTEX
8
Image
10
886.353050
20
262.201353
70
0
0
VERTEX
8
Image
10
890.652524
20
259.838282
70
0
0
VERTEX
8
Image
10
890.792670
20
263.471463
70
0
0
VERTEX
8
Image
10
890.850961
20
272.230239
70
0
0
VERTEX
8
Image
10
890.850961
20
272.230239
70
0
0
SEQEND
8
Image
0
POLYLINE
8
Image
62
7
70
0
10
0.000000
20
0.000000
66
1
0
VERTEX
8
Image
10
757.330155
20
282.509394
70
0
0
VERTEX
8
Image
10
757.662472
20
290.513030
70
0
0
VERTEX
8
Image
10
757.695366
20
295.596444
70
0
0
VERTEX
8
Image
10
757.463184
20
299.987754
70
0
0
VERTEX
8
Image
10
756.919154
20
304.205758
70
0
0
VERTEX
8
Image
10
756.016501
20
308.769257
70
0
0
VERTEX
8
Image
10
755.131765
20
312.102439
70
0
0
VERTEX
8
Image
10
753.952747
20
315.646176
70
0
0
VERTEX
8
Image
10
752.603638
20
319.058741
70
0
0
VERTEX
8
Image
10
751.208631
20
321.998407
70
0
0
VERTEX
8
Image
10
749.076506
20
325.498487
70
0
0
VERTEX
8
Image
10
746.467241
20
328.945315
70
0
0
VERTEX
8
Image
10
743.535639
20
332.152971
70
0
0
VERTEX
8
Image
10
740.436504
20
334.935537
70
0
0
VERTEX
8
Image
10
737.980133
20
336.711436
70
0
0
VERTEX
8
Image
10
735.338622
20
338.358583
70
0
0
VERTEX
8
Image
10
733.228362
20
339.462254
70
0
0
VERTEX
8
Image
10
732.596323
20
339.680686
70
0
0
VERTEX
8
Image
10
732.365744
20
339.607729
70
0
0
VERTEX
8
Image
10
733.271914
20
337.684369
70
0
0
VERTEX
8
Image
10
734.629096
20
334.822501
70
0
0
VERTEX
8
Image
10
735.782454
20
332.034651
70
0
0
VERTEX
8
Image
10
736.744360
20
329.270801
70
0
0
VERTEX
8
Image
10
737.527186
20
326.480932
70
0
0
VERTEX
8
Image
10
738.143304
20
323.615028
70
0
0
VERTEX
8
Image
10
738.605085
20
320.623069
70
0
0
VERTEX
8
Image
10
739.115124
20
314.060917
70
0
0
VERTEX
8
Image
10
739.349353
20
310.105146
70
0
0
VERTEX
8
Image
10
739.673474
20
307.096457
70
0
0
VERTEX
8
Image
10
740.287754
20
304.237261
70
0
0
VERTEX
8
Image
10
741.181238
20
301.447135
70
0
0
VERTEX
8
Image
10
742.380601
20
298.682208
70
0
0
VERTEX
8
Image
10
743.912520
20
295.898607
70
0
0
VERTEX
8
Image
10
745.803671
20
293.052460
70
0
0
VERTEX
8
Image
10
748.080730
20
290.099894
70
0
0
VERTEX
8
Image
10
750.770375
20
286.997037
70
0
0
VERTEX
8
Image
10
753.899281
20
283.700018
70
0
0
VERTEX
8
Image
10
756.997575
20
280.723459
70
0
0
VERTEX
8
Image
10
757.330155
20
282.509394
70
0
0
VERTEX
8
Image
10
757.330155
20
282.509394
70
0
0
SEQEND
8
Image
0
POLYLINE
8
Image
62
7
70
1
10
0.000000
20
0.000000
66
1
0
VERTEX
8
Image
10
890.850961
20
296.069273
70
0
0
VERTEX
8
Image
10
890.850961
20
297.392188
70
0
0
VERTEX
8
Image
10
888.403568
20
297.399861
70
0
0
VERTEX
8
Image
10
882.373642
20
297.678834
70
0
0
VERTEX
8
Image
10
876.851557
20
298.314101
70
0
0
VERTEX
8
Image
10
873.536950
20
299.153028
70
0
0
VERTEX
8
Image
10
872.467774
20
299.612878
70
0
0
VERTEX
8
Image
10
872.065568
20
300.002670
70
0
0
VERTEX
8
Image
10
872.322746
20
300.296133
70
0
0
VERTEX
8
Image
10
873.129135
20
300.585020
70
0
0
VERTEX
8
Image
10
876.598695
20
301.204538
70
0
0
VERTEX
8
Image
10
887.361667
20
302.849503
70
0
0
VERTEX
8
Image
10
889.817341
20
303.212961
70
0
0
VERTEX
8
Image
10
890.410487
20
303.312722
70
0
0
VERTEX
8
Image
10
890.733301
20
303.552580
70
0
0
VERTEX
8
Image
10
890.791165
20
308.565264
70
0
0
VERTEX
8
Image
10
890.718670
20
313.238328
70
0
0
VERTEX
8
Image
10
887.675965
20
311.249432
70
0
0
VERTEX
8
Image
10
884.561403
20
309.360262
70
0
0
VERTEX
8
Image
10
881.227247
20
307.586181
70
0
0
VERTEX
8
Image
10
878.009758
20
306.094783
70
0
0
VERTEX
8
Image
10
875.245194
20
305.053665
70
0
0
VERTEX
8
Image
10
871.877470
20
304.149199
70
0
0
VERTEX
8
Image
10
868.399397
20
303.544917
70
0
0
VERTEX
8
Image
10
864.539684
20
303.205940
70
0
0
VERTEX
8
Image
10
860.027041
20
303.097391
70
0
0
VERTEX
8
Image
10
855.768517
20
303.165053
70
0
0
VERTEX
8
Image
10
852.400509
20
303.495496
70
0
0
VERTEX
8
Image
10
848.810877
20
304.264426
70
0
0
VERTEX
8
Image
10
843.887479
20
305.647548
70
0
0
VERTEX
8
Image
10
840.183317
20
306.787133
70
0
0
VERTEX
8
Image
10
833.436450
20
309.167296
70
0
0
VERTEX
8
Image
10
829.996871
20
310.512885
70
0
0
VERTEX
8
Image
10
824.100618
20
312.967994
70
0
0
VERTEX
8
Image
10
817.588967
20
315.932276
70
0
0
VERTEX
8
Image
10
811.228931
20
319.043684
70
0
0
VERTEX
8
Image
10
805.787527
20
321.940172
70
0
0
VERTEX
8
Image
10
799.081981
20
325.961745
70
0
0
VERTEX
8
Image
10
791.941184
20
330.529357
70
0
0
VERTEX
8
Image
10
787.921881
20
333.044856
70
0
0
VERTEX
8
Image
10
784.116277
20
335.130716
70
0
0
VERTEX
8
Image
10
780.985941
20
336.553454
70
0
0
VERTEX
8
Image
10
779.818237
20
336.943188
70
0
0
VERTEX
8
Image
10
778.992439
20
337.079585
70
0
0
VERTEX
8
Image
10
778.582766
20
337.006501
70
0
0
VERTEX
8
Image
10
778.510585
20
336.767407
70
0
0
VERTEX
8
Image
10
779.519121
20
335.672139
70
0
0
VERTEX
8
Image
10
782.298893
20
333.555678
70
0
0
VERTEX
8
Image
10
787.130747
20
330.179922
70
0
0
VERTEX
8
Image
10
794.628557
20
325.138432
70
0
0
VERTEX
8
Image
10
801.087924
20
321.044936
70
0
0
VERTEX
8
Image
10
807.018833
20
317.588691
70
0
0
VERTEX
8
Image
10
812.931267
20
314.458956
70
0
0
VERTEX
8
Image
10
821.697875
20
310.344898
70
0
0
VERTEX
8
Image
10
832.907284
20
305.774574
70
0
0
VERTEX
8
Image
10
840.753222
20
303.061329
70
0
0
VERTEX
8
Image
10
848.517681
20
300.723685
70
0
0
VERTEX
8
Image
10
856.013129
20
298.868928
70
0
0
VERTEX
8
Image
10
861.205732
20
297.758688
70
0
0
VERTEX
8
Image
10
868.396448
20
296.502018
70
0
0
VERTEX
8
Image
10
875.090717
20
295.584018
70
0
0
VERTEX
8
Image
10
881.245079
20
295.009736
70
0
0
VERTEX
8
Image
10
886.816070
20
294.784220
70
0
0
VERTEX
8
Image
10
890.850961
20
294.746358
70
0
0
VERTEX
8
Image
10
890.850961
20
296.069273
70
0
0
SEQEND
8
Image
0
POLYLINE
8
Image
62
7
70
0
10
0.000000
20
0.000000
66
1
0
VERTEX
8
Image
10
824.549213
20
329.103783
70
0
0
VERTEX
8
Image
10
824.269091
20
330.029494
70
0
0
VERTEX
8
Image
10
823.305362
20
331.906177
70
0
0
VERTEX
8
Image
10
821.965426
20
334.179988
70
0
0
VERTEX
8
Image
10
820.556682
20
336.297081
70
0
0
VERTEX
8
Image
10
818.584996
20
338.757049
70
0
0
VERTEX
8
Image
10
816.448932
20
340.904230
70
0
0
VERTEX
8
Image
10
814.137085
20
342.744740
70
0
0
VERTEX
8
Image
10
811.638045
20
344.284693
70
0
0
VERTEX
8
Image
10
808.940408
20
345.530203
70
0
0
VERTEX
8
Image
10
806.032764
20
346.487386
70
0
0
VERTEX
8
Image
10
802.903709
20
347.162355
70
0
0
VERTEX
8
Image
10
799.541833
20
347.561226
70
0
0
VERTEX
8
Image
10
797.188579
20
347.578159
70
0
0
VERTEX
8
Image
10
798.846714
20
344.392209
70
0
0
VERTEX
8
Image
10
801.289033
20
340.387031
70
0
0
VERTEX
8
Image
10
802.691215
20
338.677102
70
0
0
VERTEX
8
Image
10
804.502897
20
336.803866
70
0
0
VERTEX
8
Image
10
806.394509
20
335.086826
70
0
0
VERTEX
8
Image
10
808.036482
20
333.845481
70
0
0
VERTEX
8
Image
10
811.057209
20
332.133738
70
0
0
VERTEX
8
Image
10
814.142879
20
330.857479
70
0
0
VERTEX
8
Image
10
817.543737
20
329.931760
70
0
0
VERTEX
8
Image
10
821.510027
20
329.271635
70
0
0
VERTEX
8
Image
10
824.226580
20
328.912172
70
0
0
VERTEX
8
Image
10
824.549213
20
329.103889
70
0
0
VERTEX
8
Image
10
824.549213
20
329.103783
70
0
0
SEQEND
8
Image
0
POLYLINE
8
Image
62
7
70
0
10
0.000000
20
0.000000
66
1
0
VERTEX
8
Image
10
760.543834
20
341.057511
70
0
0
VERTEX
8
Image
10
768.481324
20
341.728705
70
0
0
VERTEX
8
Image
10
774.587251
20
342.845704
70
0
0
VERTEX
8
Image
10
780.628432
20
344.297575
70
0
0
VERTEX
8
Image
10
786.337800
20
346.012345
70
0
0
VERTEX
8
Image
10
791.448292
20
347.918042
70
0
0
VERTEX
8
Image
10
793.121098
20
348.727815
70
0
0
VERTEX
8
Image
10
793.396993
20
349.025289
70
0
0
VERTEX
8
Image
10
793.432665
20
349.347267
70
0
0
VERTEX
8
Image
10
793.254312
20
349.753094
70
0
0
VERTEX
8
Image
10
792.619389
20
349.806494
70
0
0
VERTEX
8
Image
10
788.416250
20
348.633554
70
0
0
VERTEX
8
Image
10
781.508017
20
346.791296
70
0
0
VERTEX
8
Image
10
778.059114
20
346.104395
70
0
0
VERTEX
8
Image
10
774.519137
20
345.561216
70
0
0
VERTEX
8
Image
10
766.882325
20
344.868743
70
0
0
VERTEX
8
Image
10
758.030295
20
344.639303
70
0
0
VERTEX
8
Image
10
751.517668
20
344.707443
70
0
0
VERTEX
8
Image
10
746.402183
20
345.036026
70
0
0
VERTEX
8
Image
10
741.412220
20
345.757128
70
0
0
VERTEX
8
Image
10
735.276157
20
347.002823
70
0
0
VERTEX
8
Image
10
731.883328
20
347.826614
70
0
0
VERTEX
8
Image
10
728.374588
20
348.843215
70
0
0
VERTEX
8
Image
10
721.129595
20
351.407416
70
0
0
VERTEX
8
Image
10
713.781619
20
354.600564
70
0
0
VERTEX
8
Image
10
706.571098
20
358.327796
70
0
0
VERTEX
8
Image
10
703.467910
20
360.220435
70
0
0
VERTEX
8
Image
10
699.581476
20
362.791258
70
0
0
VERTEX
8
Image
10
695.716652
20
365.492812
70
0
0
VERTEX
8
Image
10
692.678294
20
367.777642
70
0
0
VERTEX
8
Image
10
688.796240
20
371.102727
70
0
0
VERTEX
8
Image
10
684.318999
20
375.254960
70
0
0
VERTEX
8
Image
10
679.856492
20
379.651117
70
0
0
VERTEX
8
Image
10
676.018640
20
383.707973
70
0
0
VERTEX
8
Image
10
672.846727
20
387.680310
70
0
0
VERTEX
8
Image
10
670.089864
20
391.669593
70
0
0
VERTEX
8
Image
10
669.471319
20
392.815766
70
0
0
VERTEX
8
Image
10
669.188652
20
393.658844
70
0
0
VERTEX
8
Image
10
669.219887
20
394.331280
70
0
0
VERTEX
8
Image
10
669.543051
20
394.965530
70
0
0
VERTEX
8
Image
10
669.907504
20
395.353933
70
0
0
VERTEX
8
Image
10
670.677050
20
395.364617
70
0
0
VERTEX
8
Image
10
676.009565
20
393.780304
70
0
0
VERTEX
8
Image
10
683.481280
20
391.331820
70
0
0
VERTEX
8
Image
10
690.067749
20
388.981880
70
0
0
VERTEX
8
Image
10
695.908973
20
386.678056
70
0
0
VERTEX
8
Image
10
701.144950
20
384.367923
70
0
0
VERTEX
8
Image
10
710.710459
20
379.660349
70
0
0
VERTEX
8
Image
10
719.798052
20
374.977105
70
0
0
VERTEX
8
Image
10
726.497938
20
371.166818
70
0
0
VERTEX
8
Image
10
734.225369
20
366.514143
70
0
0
VERTEX
8
Image
10
742.342258
20
361.411933
70
0
0
VERTEX
8
Image
10
750.210518
20
356.253042
70
0
0
VERTEX
8
Image
10
756.110191
20
352.423232
70
0
0
VERTEX
8
Image
10
760.297163
20
350.073299
70
0
0
VERTEX
8
Image
10
761.917686
20
349.371448
70
0
0
VERTEX
8
Image
10
763.313196
20
348.941360
70
0
0
VERTEX
8
Image
10
764.551411
20
348.750298
70
0
0
VERTEX
8
Image
10
765.700053
20
348.765528
70
0
0
VERTEX
8
Image
10
766.168123
20
348.863087
70
0
0
VERTEX
8
Image
10
766.034225
20
349.199087
70
0
0
VERTEX
8
Image
10
762.961963
20
351.631703
70
0
0
VERTEX
8
Image
10
752.733887
20
359.086799
70
0
0
VERTEX
8
Image
10
742.174074
20
366.215647
70
0
0
VERTEX
8
Image
10
731.759159
20
372.708697
70
0
0
VERTEX
8
Image
10
721.965780
20
378.256399
70
0
0
VERTEX
8
Image
10
710.322815
20
384.138420
70
0
0
VERTEX
8
Image
10
699.822035
20
389.130708
70
0
0
VERTEX
8
Image
10
687.651217
20
394.106958
70
0
0
VERTEX
8
Image
10
684.878096
20
395.170846
70
0
0
VERTEX
8
Image
10
674.562012
20
398.660227
70
0
0
VERTEX
8
Image
10
664.500204
20
401.709195
70
0
0
VERTEX
8
Image
10
661.986666
20
402.381633
70
0
0
VERTEX
8
Image
10
654.129269
20
404.238222
70
0
0
VERTEX
8
Image
10
645.185646
20
405.987873
70
0
0
VERTEX
8
Image
10
640.745467
20
406.755507
70
0
0
VERTEX
8
Image
10
639.263421
20
406.944876
70
0
0
VERTEX
8
Image
10
638.914926
20
406.920126
70
0
0
VERTEX
8
Image
10
638.828348
20
406.814999
70
0
0
VERTEX
8
Image
10
639.441633
20
406.361351
70
0
0
VERTEX
8
Image
10
641.104664
20
405.579409
70
0
0
VERTEX
8
Image
10
644.002822
20
404.140463
70
0
0
VERTEX
8
Image
10
647.983700
20
401.947783
70
0
0
VERTEX
8
Image
10
652.124990
20
399.525431
70
0
0
VERTEX
8
Image
10
655.504382
20
397.397471
70
0
0
VERTEX
8
Image
10
658.008126
20
395.591653
70
0
0
VERTEX
8
Image
10
660.555332
20
393.486637
70
0
0
VERTEX
8
Image
10
663.285189
20
390.960268
70
0
0
VERTEX
8
Image
10
666.336887
20
387.890395
70
0
0
VERTEX
8
Image
10
676.839561
20
377.169994
70
0
0
VERTEX
8
Image
10
684.691641
20
369.707114
70
0
0
VERTEX
8
Image
10
688.102750
20
366.769043
70
0
0
VERTEX
8
Image
10
691.426059
20
364.131511
70
0
0
VERTEX
8
Image
10
698.575743
20
359.072941
70
0
0
VERTEX
8
Image
10
704.633975
20
355.309692
70
0
0
VERTEX
8
Image
10
710.941103
20
351.935181
70
0
0
VERTEX
8
Image
10
717.434253
20
348.971207
70
0
0
VERTEX
8
Image
10
724.050549
20
346.439573
70
0
0
VERTEX
8
Image
10
730.727114
20
344.362079
70
0
0
VERTEX
8
Image
10
737.401075
20
342.760529
70
0
0
VERTEX
8
Image
10
744.009555
20
341.656722
70
0
0
VERTEX
8
Image
10
750.489679
20
341.072460
70
0
0
VERTEX
8
Image
10
754.987590
20
340.826795
70
0
0
VERTEX
8
Image
10
760.543833
20
341.057511
70
0
0
VERTEX
8
Image
10
760.543834
20
341.057511
70
0
0
SEQEND
8
Image
0
POLYLINE
8
Image
62
7
70
0
10
0.000000
20
0.000000
66
1
0
VERTEX
8
Image
10
812.137519
20
353.984719
70
0
0
VERTEX
8
Image
10
815.451062
20
355.161237
70
0
0
VERTEX
8
Image
10
818.744513
20
356.946127
70
0
0
VERTEX
8
Image
10
821.978096
20
359.314080
70
0
0
VERTEX
8
Image
10
825.112034
20
362.239788
70
0
0
VERTEX
8
Image
10
826.824878
20
364.157263
70
0
0
VERTEX
8
Image
10
828.588840
20
366.366909
70
0
0
VERTEX
8
Image
10
830.238085
20
368.650429
70
0
0
VERTEX
8
Image
10
831.606779
20
370.789523
70
0
0
VERTEX
8
Image
10
832.215029
20
371.823434
70
0
0
VERTEX
8
Image
10
828.129391
20
371.662991
70
0
0
VERTEX
8
Image
10
824.364455
20
371.393675
70
0
0
VERTEX
8
Image
10
821.455100
20
370.833867
70
0
0
VERTEX
8
Image
10
818.479871
20
369.925674
70
0
0
VERTEX
8
Image
10
815.725517
20
368.790850
70
0
0
VERTEX
8
Image
10
813.179198
20
367.419475
70
0
0
VERTEX
8
Image
10
810.828074
20
365.801627
70
0
0
VERTEX
8
Image
10
808.659305
20
363.927388
70
0
0
VERTEX
8
Image
10
806.660051
20
361.786836
70
0
0
VERTEX
8
Image
10
804.817473
20
359.370052
70
0
0
VERTEX
8
Image
10
803.118731
20
356.667114
70
0
0
VERTEX
8
Image
10
801.950291
20
354.554603
70
0
0
VERTEX
8
Image
10
801.737254
20
353.928957
70
0
0
VERTEX
8
Image
10
801.820663
20
353.529960
70
0
0
VERTEX
8
Image
10
802.237265
20
353.312299
70
0
0
VERTEX
8
Image
10
803.023805
20
353.230655
70
0
0
VERTEX
8
Image
10
805.853672
20
353.294157
70
0
0
VERTEX
8
Image
10
809.550099
20
353.527430
70
0
0
VERTEX
8
Image
10
812.137519
20
353.984719
70
0
0
VERTEX
8
Image
10
812.137519
20
353.984719
70
0
0
SEQEND
8
Image
0
POLYLINE
8
Image
62
7
70
0
10
0.000000
20
0.000000
66
1
0
VERTEX
8
Image
10
796.620413
20
357.187946
70
0
0
VERTEX
8
Image
10
798.691844
20
361.464728
70
0
0
VERTEX
8
Image
10
800.245809
20
365.270798
70
0
0
VERTEX
8
Image
10
800.985380
20
368.292395
70
0
0
VERTEX
8
Image
10
801.375913
20
371.807265
70
0
0
VERTEX
8
Image
10
801.394936
20
375.424067
70
0
0
VERTEX
8
Image
10
801.019979
20
378.751461
70
0
0
VERTEX
8
Image
10
800.241493
20
381.868052
70
0
0
VERTEX
8
Image
10
799.114191
20
385.348771
70
0
0
VERTEX
8
Image
10
797.940718
20
388.342030
70
0
0
VERTEX
8
Image
10
797.023717
20
389.996238
70
0
0
VERTEX
8
Image
10
796.612588
20
390.215984
70
0
0
VERTEX
8
Image
10
796.115695
20
389.731655
70
0
0
VERTEX
8
Image
10
795.054013
20
388.088501
70
0
0
VERTEX
8
Image
10
793.877439
20
385.817622
70
0
0
VERTEX
8
Image
10
792.762077
20
383.287878
70
0
0
VERTEX
8
Image
10
791.884034
20
380.868125
70
0
0
VERTEX
8
Image
10
791.217219
20
378.510253
70
0
0
VERTEX
8
Image
10
790.790119
20
376.379752
70
0
0
VERTEX
8
Image
10
790.562334
20
374.211408
70
0
0
VERTEX
8
Image
10
790.493465
20
371.740011
70
0
0
VERTEX
8
Image
10
790.648967
20
368.349909
70
0
0
VERTEX
8
Image
10
791.145189
20
365.035865
70
0
0
VERTEX
8
Image
10
792.015391
20
361.634315
70
0
0
VERTEX
8
Image
10
793.292832
20
357.981695
70
0
0
VERTEX
8
Image
10
794.547683
20
354.958748
70
0
0
VERTEX
8
Image
10
794.864054
20
354.457792
70
0
0
VERTEX
8
Image
10
795.067999
20
354.441151
70
0
0
VERTEX
8
Image
10
796.620413
20
357.187946
70
0
0
VERTEX
8
Image
10
796.620413
20
357.187946
70
0
0
SEQEND
8
Image
0
POLYLINE
8
Image
62
7
70
0
10
0.000000
20
0.000000
66
1
0
VERTEX
8
Image
10
669.841897
20
357.121800
70
0
0
VERTEX
8
Image
10
663.190228
20
374.385841
70
0
0
VERTEX
8
Image
10
662.046972
20
376.833925
70
0
0
VERTEX
8
Image
10
660.726169
20
379.303743
70
0
0
VERTEX
8
Image
10
657.648318
20
384.170699
70
0
0
VERTEX
8
Image
10
654.149474
20
388.710943
70
0
0
VERTEX
8
Image
10
652.302427
20
390.772371
70
0
0
VERTEX
8
Image
10
650.422431
20
392.648709
70
0
0
VERTEX
8
Image
10
647.182045
20
395.326670
70
0
0
VERTEX
8
Image
10
643.167443
20
398.220810
70
0
0
VERTEX
8
Image
10
639.641011
20
400.470105
70
0
0
VERTEX
8
Image
10
638.455355
20
401.083863
70
0
0
VERTEX
8
Image
10
637.865137
20
401.213525
70
0
0
VERTEX
8
Image
10
637.709681
20
397.991989
70
0
0
VERTEX
8
Image
10
637.645030
20
390.437615
70
0
0
VERTEX
8
Image
10
637.645030
20
379.797754
70
0
0
VERTEX
8
Image
10
638.637216
20
378.083971
70
0
0
VERTEX
8
Image
10
640.205238
20
375.980430
70
0
0
VERTEX
8
Image
10
642.804399
20
373.178866
70
0
0
VERTEX
8
Image
10
645.176833
20
370.932450
70
0
0
VERTEX
8
Image
10
647.748311
20
368.757668
70
0
0
VERTEX
8
Image
10
650.498528
20
366.667724
70
0
0
VERTEX
8
Image
10
653.407179
20
364.675820
70
0
0
VERTEX
8
Image
10
656.453956
20
362.795162
70
0
0
VERTEX
8
Image
10
659.618555
20
361.038953
70
0
0
VERTEX
8
Image
10
662.880669
20
359.420396
70
0
0
VERTEX
8
Image
10
666.219994
20
357.952697
70
0
0
VERTEX
8
Image
10
669.392096
20
356.757301
70
0
0
VERTEX
8
Image
10
669.845134
20
356.770292
70
0
0
VERTEX
8
Image
10
669.841897
20
357.121800
70
0
0
VERTEX
8
Image
10
669.841897
20
357.121800
70
0
0
SEQEND
8
Image
0
POLYLINE
8
Image
62
7
70
0
10
0.000000
20
0.000000
66
1
0
VERTEX
8
Image
10
871.685997
20
396.975461
70
0
0
VERTEX
8
Image
10
873.022311
20
397.721141
70
0
0
VERTEX
8
Image
10
874.203157
20
398.691051
70
0
0
VERTEX
8
Image
10
875.373421
20
400.027305
70
0
0
VERTEX
8
Image
10
876.677991
20
401.872019
70
0
0
VERTEX
8
Image
10
877.976669
20
403.951640
70
0
0
VERTEX
8
Image
10
879.040237
20
405.939530
70
0
0
VERTEX
8
Image
10
879.952492
20
408.007723
70
0
0
VERTEX
8
Image
10
880.797230
20
410.328251
70
0
0
VERTEX
8
Image
10
881.585980
20
412.896753
70
0
0
VERTEX
8
Image
10
882.094802
20
415.197107
70
0
0
VERTEX
8
Image
10
882.395825
20
417.652937
70
0
0
VERTEX
8
Image
10
882.561179
20
420.687866
70
0
0
VERTEX
8
Image
10
882.581892
20
424.923502
70
0
0
VERTEX
8
Image
10
882.147768
20
428.712615
70
0
0
VERTEX
8
Image
10
880.857403
20
435.926782
70
0
0
VERTEX
8
Image
10
879.883863
20
440.209832
70
0
0
VERTEX
8
Image
10
879.578222
20
440.155255
70
0
0
VERTEX
8
Image
10
878.966485
20
439.611394
70
0
0
VERTEX
8
Image
10
876.603193
20
436.827429
70
0
0
VERTEX
8
Image
10
872.141371
20
431.334845
70
0
0
VERTEX
8
Image
10
868.858276
20
427.044064
70
0
0
VERTEX
8
Image
10
866.391235
20
423.105143
70
0
0
VERTEX
8
Image
10
864.582757
20
419.230267
70
0
0
VERTEX
8
Image
10
863.275353
20
415.131623
70
0
0
VERTEX
8
Image
10
862.823733
20
412.382407
70
0
0
VERTEX
8
Image
10
862.655085
20
409.126657
70
0
0
VERTEX
8
Image
10
862.774041
20
405.962977
70
0
0
VERTEX
8
Image
10
863.185236
20
403.489971
70
0
0
VERTEX
8
Image
10
863.891114
20
401.432336
70
0
0
VERTEX
8
Image
10
864.712478
20
399.719540
70
0
0
VERTEX
8
Image
10
865.642545
20
398.356780
70
0
0
VERTEX
8
Image
10
866.674531
20
397.349254
70
0
0
VERTEX
8
Image
10
867.801652
20
396.702162
70
0
0
VERTEX
8
Image
10
869.017126
20
396.420700
70
0
0
VERTEX
8
Image
10
870.314169
20
396.510067
70
0
0
VERTEX
8
Image
10
871.685997
20
396.975461
70
0
0
VERTEX
8
Image
10
871.685997
20
396.975461
70
0
0
SEQEND
8
Image
0
POLYLINE
8
Image
62
7
70
0
10
0.000000
20
0.000000
66
1
0
VERTEX
8
Image
10
890.690359
20
401.262658
70
0
0
VERTEX
8
Image
10
890.850961
20
413.565027
70
0
0
VERTEX
8
Image
10
890.850961
20
425.448878
70
0
0
VERTEX
8
Image
10
889.631471
20
427.103263
70
0
0
VERTEX
8
Image
10
886.970190
20
431.205040
70
0
0
VERTEX
8
Image
10
885.887027
20
432.933511
70
0
0
VERTEX
8
Image
10
885.307418
20
433.652433
70
0
0
VERTEX
8
Image
10
885.216220
20
433.360978
70
0
0
VERTEX
8
Image
10
885.307365
20
432.660247
70
0
0
VERTEX
8
Image
10
886.060140
20
427.408913
70
0
0
VERTEX
8
Image
10
886.399987
20
421.746198
70
0
0
VERTEX
8
Image
10
886.332388
20
418.978463
70
0
0
VERTEX
8
Image
10
886.104699
20
416.380322
70
0
0
VERTEX
8
Image
10
885.679585
20
413.644764
70
0
0
VERTEX
8
Image
10
885.019710
20
410.464776
70
0
0
VERTEX
8
Image
10
884.288704
20
406.652720
70
0
0
VERTEX
8
Image
10
884.353836
20
405.671225
70
0
0
VERTEX
8
Image
10
884.664561
20
404.623683
70
0
0
VERTEX
8
Image
10
885.427130
20
402.932049
70
0
0
VERTEX
8
Image
10
886.411166
20
401.755937
70
0
0
VERTEX
8
Image
10
887.648010
20
401.069058
70
0
0
VERTEX
8
Image
10
889.169007
20
400.845120
70
0
0
VERTEX
8
Image
10
890.259565
20
400.938855
70
0
0
VERTEX
8
Image
10
890.690359
20
401.262658
70
0
0
VERTEX
8
Image
10
890.690359
20
401.262658
70
0
0
SEQEND
8
Image
0
POLYLINE
8
Image
62
7
70
0
10
0.000000
20
0.000000
66
1
0
VERTEX
8
Image
10
854.735382
20
412.580011
70
0
0
VERTEX
8
Image
10
856.833548
20
413.352111
70
0
0
VERTEX
8
Image
10
857.595791
20
413.828715
70
0
0
VERTEX
8
Image
10
858.192158
20
414.378884
70
0
0
VERTEX
8
Image
10
858.967674
20
415.648036
70
0
0
VERTEX
8
Image
10
860.430954
20
419.364951
70
0
0
VERTEX
8
Image
10
862.105580
20
423.273572
70
0
0
VERTEX
8
Image
10
864.125555
20
426.894854
70
0
0
VERTEX
8
Image
10
866.735785
20
430.617225
70
0
0
VERTEX
8
Image
10
870.181181
20
434.829113
70
0
0
VERTEX
8
Image
10
872.392067
20
437.485077
70
0
0
VERTEX
8
Image
10
873.250503
20
438.688717
70
0
0
VERTEX
8
Image
10
871.613501
20
438.526316
70
0
0
VERTEX
8
Image
10
867.567657
20
437.756697
70
0
0
VERTEX
8
Image
10
861.647780
20
436.576343
70
0
0
VERTEX
8
Image
10
856.713278
20
435.255713
70
0
0
VERTEX
8
Image
10
852.617362
20
433.748850
70
0
0
VERTEX
8
Image
10
849.213243
20
432.009796
70
0
0
VERTEX
8
Image
10
847.161337
20
430.531877
70
0
0
VERTEX
8
Image
10
845.114654
20
428.630046
70
0
0
VERTEX
8
Image
10
843.275477
20
426.513476
70
0
0
VERTEX
8
Image
10
841.846088
20
424.391340
70
0
0
VERTEX
8
Image
10
841.077653
20
422.923358
70
0
0
VERTEX
8
Image
10
840.853492
20
422.066899
70
0
0
VERTEX
8
Image
10
840.950785
20
421.807487
70
0
0
VERTEX
8
Image
10
841.190472
20
421.628349
70
0
0
VERTEX
8
Image
10
842.105459
20
421.414093
70
0
0
VERTEX
8
Image
10
843.637216
20
421.140957
70
0
0
VERTEX
8
Image
10
844.946621
20
420.761799
70
0
0
VERTEX
8
Image
10
846.059689
20
420.254379
70
0
0
VERTEX
8
Image
10
847.002431
20
419.596458
70
0
0
VERTEX
8
Image
10
847.800861
20
418.765796
70
0
0
VERTEX
8
Image
10
848.480991
20
417.740153
70
0
0
VERTEX
8
Image
10
849.068835
20
416.497290
70
0
0
VERTEX
8
Image
10
849.590406
20
415.014968
70
0
0
VERTEX
8
Image
10
849.961181
20
413.929937
70
0
0
VERTEX
8
Image
10
850.326546
20
413.264782
70
0
0
VERTEX
8
Image
10
850.816336
20
412.856528
70
0
0
VERTEX
8
Image
10
851.560386
20
412.542202
70
0
0
VERTEX
8
Image
10
852.974062
20
412.264086
70
0
0
VERTEX
8
Image
10
854.735382
20
412.580011
70
0
0
VERTEX
8
Image
10
854.735382
20
412.580011
70
0
0
SEQEND
8
Image
0
POLYLINE
8
Image
62
7
70
0
10
0.000000
20
0.000000
66
1
0
VERTEX
8
Image
10
645.979395
20
413.417443
70
0
0
VERTEX
8
Image
10
651.009606
20
414.238381
70
0
0
VERTEX
8
Image
10
655.947843
20
415.375809
70
0
0
VERTEX
8
Image
10
660.810436
20
416.836414
70
0
0
VERTEX
8
Image
10
665.613712
20
418.626887
70
0
0
VERTEX
8
Image
10
670.374001
20
420.753915
70
0
0
VERTEX
8
Image
10
675.107630
20
423.224188
70
0
0
VERTEX
8
Image
10
679.830929
20
426.044394
70
0
0
VERTEX
8
Image
10
684.560226
20
429.221223
70
0
0
VERTEX
8
Image
10
687.686657
20
431.559743
70
0
0
VERTEX
8
Image
10
691.315348
20
434.526235
70
0
0
VERTEX
8
Image
10
701.222684
20
443.309712
70
0
0
VERTEX
8
Image
10
709.459729
20
450.627961
70
0
0
VERTEX
8
Image
10
718.865132
20
458.655527
70
0
0
VERTEX
8
Image
10
724.615633
20
463.323521
70
0
0
VERTEX
8
Image
10
730.529508
20
467.839267
70
0
0
VERTEX
8
Image
10
736.509254
20
472.138992
70
0
0
VERTEX
8
Image
10
742.457366
20
476.158922
70
0
0
VERTEX
8
Image
10
748.276342
20
479.835286
70
0
0
VERTEX
8
Image
10
753.868678
20
483.104310
70
0
0
VERTEX
8
Image
10
759.136869
20
485.902222
70
0
0
VERTEX
8
Image
10
763.983412
20
488.165249
70
0
0
VERTEX
8
Image
10
770.524358
20
490.838266
70
0
0
VERTEX
8
Image
10
776.286558
20
492.840381
70
0
0
VERTEX
8
Image
10
782.181032
20
494.454195
70
0
0
VERTEX
8
Image
10
789.118797
20
495.962309
70
0
0
VERTEX
8
Image
10
792.651855
20
496.752952
70
0
0
VERTEX
8
Image
10
795.378348
20
497.605275
70
0
0
VERTEX
8
Image
10
797.728040
20
498.682650
70
0
0
VERTEX
8
Image
10
800.130689
20
500.148446
70
0
0
VERTEX
8
Image
10
802.734901
20
502.002021
70
0
0
VERTEX
8
Image
10
805.182850
20
503.980952
70
0
0
VERTEX
8
Image
10
807.453557
20
506.061865
70
0
0
VERTEX
8
Image
10
809.526045
20
508.221384
70
0
0
VERTEX
8
Image
10
811.379333
20
510.436133
70
0
0
VERTEX
8
Image
10
812.992444
20
512.682739
70
0
0
VERTEX
8
Image
10
814.344399
20
514.937825
70
0
0
VERTEX
8
Image
10
815.414220
20
517.178016
70
0
0
VERTEX
8
Image
10
817.588960
20
522.661715
70
0
0
VERTEX
8
Image
10
819.536248
20
527.268422
70
0
0
VERTEX
8
Image
10
821.538157
20
531.220094
70
0
0
VERTEX
8
Image
10
823.648961
20
534.575459
70
0
0
VERTEX
8
Image
10
825.922931
20
537.393248
70
0
0
VERTEX
8
Image
10
828.414340
20
539.732192
70
0
0
VERTEX
8
Image
10
831.177461
20
541.651020
70
0
0
VERTEX
8
Image
10
834.266564
20
543.208461
70
0
0
VERTEX
8
Image
10
837.735924
20
544.463246
70
0
0
VERTEX
8
Image
10
840.315608
20
545.126347
70
0
0
VERTEX
8
Image
10
839.162105
20
543.500426
70
0
0
VERTEX
8
Image
10
836.224903
20
539.221546
70
0
0
VERTEX
8
Image
10
832.322900
20
532.865266
70
0
0
VERTEX
8
Image
10
829.956951
20
529.010086
70
0
0
VERTEX
8
Image
10
827.584628
20
525.770265
70
0
0
VERTEX
8
Image
10
824.128381
20
521.815757
70
0
0
VERTEX
8
Image
10
818.510662
20
515.816517
70
0
0
VERTEX
8
Image
10
809.623980
20
506.539848
70
0
0
VERTEX
8
Image
10
804.133139
20
500.623837
70
0
0
VERTEX
8
Image
10
802.851003
20
498.996913
70
0
0
VERTEX
8
Image
10
802.585665
20
498.527815
70
0
0
VERTEX
8
Image
10
802.574589
20
498.292711
70
0
0
VERTEX
8
Image
10
803.212483
20
498.273317
70
0
0
VERTEX
8
Image
10
804.783394
20
498.699024
70
0
0
VERTEX
8
Image
10
811.331662
20
501.125128
70
0
0
VERTEX
8
Image
10
823.434183
20
506.049806
70
0
0
VERTEX
8
Image
10
842.305748
20
513.951839
70
0
0
VERTEX
8
Image
10
848.783082
20
516.764991
70
0
0
VERTEX
8
Image
10
854.660108
20
519.483364
70
0
0
VERTEX
8
Image
10
859.716318
20
522.001346
70
0
0
VERTEX
8
Image
10
863.731203
20
524.213331
70
0
0
VERTEX
8
Image
10
865.414269
20
525.057721
70
0
0
VERTEX
8
Image
10
865.087594
20
524.212979
70
0
0
VERTEX
8
Image
10
864.077675
20
522.338507
70
0
0
VERTEX
8
Image
10
861.377976
20
517.922119
70
0
0
VERTEX
8
Image
10
859.468050
20
515.462992
70
0
0
VERTEX
8
Image
10
857.003430
20
512.808580
70
0
0
VERTEX
8
Image
10
854.320514
20
510.296527
70
0
0
VERTEX
8
Image
10
851.755701
20
508.264474
70
0
0
VERTEX
8
Image
10
849.052656
20
506.504241
70
0
0
VERTEX
8
Image
10
846.151926
20
504.874664
70
0
0
VERTEX
8
Image
10
843.069676
20
503.381947
70
0
0
VERTEX
8
Image
10
839.822071
20
502.032293
70
0
0
VERTEX
8
Image
10
836.425278
20
500.831907
70
0
0
VERTEX
8
Image
10
832.895462
20
499.786992
70
0
0
VERTEX
8
Image
10
829.248787
20
498.903753
70
0
0
VERTEX
8
Image
10
825.501421
20
498.188394
70
0
0
VERTEX
8
Image
10
821.265632
20
497.678225
70
0
0
VERTEX
8
Image
10
820.310348
20
497.602478
70
0
0
VERTEX
8
Image
10
819.685542
20
497.427117
70
0
0
VERTEX
8
Image
10
819.457223
20
497.245209
70
0
0
VERTEX
8
Image
10
819.640143
20
497.090212
70
0
0
VERTEX
8
Image
10
822.191672
20
496.514158
70
0
0
VERTEX
8
Image
10
825.643460
20
495.683676
70
0
0
VERTEX
8
Image
10
829.984869
20
494.430106
70
0
0
VERTEX
8
Image
10
841.638523
20
490.561260
70
0
0
VERTEX
8
Image
10
846.413575
20
488.948540
70
0
0
VERTEX
8
Image
10
854.916965
20
486.337142
70
0
0
VERTEX
8
Image
10
863.280366
20
484.000733
70
0
0
VERTEX
8
Image
10
870.872113
20
482.307026
70
0
0
VERTEX
8
Image
10
877.617705
20
481.270209
70
0
0
VERTEX
8
Image
10
880.649910
20
481.002569
70
0
0
VERTEX
8
Image
10
883.442637
20
480.904472
70
0
0
VERTEX
8
Image
10
886.895521
20
480.990637
70
0
0
VERTEX
8
Image
10
887.872594
20
481.172938
70
0
0
VERTEX
8
Image
10
888.801528
20
481.498062
70
0
0
VERTEX
8
Image
10
889.953085
20
482.072869
70
0
0
VERTEX
8
Image
10
890.583864
20
482.595602
70
0
0
VERTEX
8
Image
10
890.779510
20
497.047472
70
0
0
VERTEX
8
Image
10
890.854665
20
537.675600
70
0
0
VERTEX
8
Image
10
890.865566
20
592.269942
70
0
0
VERTEX
8
Image
10
764.321444
20
592.269942
70
0
0
VERTEX
8
Image
10
637.777322
20
592.269942
70
0
0
VERTEX
8
Image
10
637.706678
20
548.485572
70
0
0
VERTEX
8
Image
10
637.772982
20
504.344306
70
0
0
VERTEX
8
Image
10
638.001104
20
504.264135
70
0
0
VERTEX
8
Image
10
638.576065
20
504.433491
70
0
0
VERTEX
8
Image
10
641.016135
20
505.618895
70
0
0
VERTEX
8
Image
10
643.986292
20
507.271107
70
0
0
VERTEX
8
Image
10
646.849535
20
509.056135
70
0
0
VERTEX
8
Image
10
649.657464
20
511.007976
70
0
0
VERTEX
8
Image
10
652.461678
20
513.160627
70
0
0
VERTEX
8
Image
10
655.442196
20
515.733134
70
0
0
VERTEX
8
Image
10
658.773061
20
518.868465
70
0
0
VERTEX
8
Image
10
661.787170
20
521.916508
70
0
0
VERTEX
8
Image
10
663.817422
20
524.227153
70
0
0
VERTEX
8
Image
10
664.986746
20
525.760128
70
0
0
VERTEX
8
Image
10
665.020084
20
530.175489
70
0
0
VERTEX
8
Image
10
665.212824
20
534.186333
70
0
0
VERTEX
8
Image
10
665.807790
20
537.425845
70
0
0
VERTEX
8
Image
10
666.933204
20
540.353684
70
0
0
VERTEX
8
Image
10
668.717287
20
543.429507
70
0
0
VERTEX
8
Image
10
669.958552
20
545.330973
70
0
0
VERTEX
8
Image
10
669.560778
20
546.575486
70
0
0
VERTEX
8
Image
10
668.937876
20
548.916964
70
0
0
VERTEX
8
Image
10
668.513247
20
551.393250
70
0
0
VERTEX
8
Image
10
668.285834
20
553.962483
70
0
0
VERTEX
8
Image
10
668.254581
20
556.582800
70
0
0
VERTEX
8
Image
10
668.418430
20
559.212341
70
0
0
VERTEX
8
Image
10
668.776324
20
561.809242
70
0
0
VERTEX
8
Image
10
669.327207
20
564.331643
70
0
0
VERTEX
8
Image
10
670.070021
20
566.737682
70
0
0
VERTEX
8
Image
10
671.023262
20
569.056833
70
0
0
VERTEX
8
Image
10
672.186112
20
571.312262
70
0
0
VERTEX
8
Image
10
673.537584
20
573.477894
70
0
0
VERTEX
8
Image
10
675.056696
20
575.527654
70
0
0
VERTEX
8
Image
10
676.722462
20
577.435466
70
0
0
VERTEX
8
Image
10
678.513900
20
579.175254
70
0
0
VERTEX
8
Image
10
680.410025
20
580.720944
70
0
0
VERTEX
8
Image
10
682.389852
20
582.046460
70
0
0
VERTEX
8
Image
10
683.801886
20
582.804914
70
0
0
VERTEX
8
Image
10
684.317676
20
582.949217
70
0
0
VERTEX
8
Image
10
684.762880
20
582.921252
70
0
0
VERTEX
8
Image
10
685.179671
20
582.709279
70
0
0
VERTEX
8
Image
10
685.610224
20
582.301560
70
0
0
VERTEX
8
Image
10
686.681309
20
580.851926
70
0
0
VERTEX
8
Image
10
688.261301
20
578.022453
70
0
0
VERTEX
8
Image
10
689.486973
20
574.773353
70
0
0
VERTEX
8
Image
10
690.279894
20
571.363361
70
0
0
VERTEX
8
Image
10
690.561630
20
568.051215
70
0
0
VERTEX
8
Image
10
690.636590
20
566.749809
70
0
0
VERTEX
8
Image
10
690.816820
20
566.208516
70
0
0
VERTEX
8
Image
10
694.190254
20
567.773363
70
0
0
VERTEX
8
Image
10
699.010876
20
569.891678
70
0
0
VERTEX
8
Image
10
702.261607
20
570.800358
70
0
0
VERTEX
8
Image
10
705.645196
20
571.494380
70
0
0
VERTEX
8
Image
10
708.789043
20
571.910379
70
0
0
VERTEX
8
Image
10
711.320548
20
571.984995
70
0
0
VERTEX
8
Image
10
712.418960
20
571.854490
70
0
0
VERTEX
8
Image
10
712.762674
20
571.688426
70
0
0
VERTEX
8
Image
10
712.998001
20
571.399919
70
0
0
VERTEX
8
Image
10
713.229314
20
570.289859
70
0
0
VERTEX
8
Image
10
713.284547
20
568.192888
70
0
0
VERTEX
8
Image
10
713.195690
20
565.726295
70
0
0
VERTEX
8
Image
10
712.897919
20
563.086729
70
0
0
VERTEX
8
Image
10
712.407951
20
560.387486
70
0
0
VERTEX
8
Image
10
711.742505
20
557.741860
70
0
0
VERTEX
8
Image
10
710.936161
20
554.792630
70
0
0
VERTEX
8
Image
10
713.249622
20
554.300723
70
0
0
VERTEX
8
Image
10
715.146515
20
553.916126
70
0
0
VERTEX
8
Image
10
717.093603
20
553.320326
70
0
0
VERTEX
8
Image
10
718.819672
20
552.609778
70
0
0
VERTEX
8
Image
10
720.053506
20
551.880936
70
0
0
VERTEX
8
Image
10
720.527844
20
551.310000
70
0
0
VERTEX
8
Image
10
720.722056
20
550.564261
70
0
0
VERTEX
8
Image
10
720.636385
20
549.644285
70
0
0
VERTEX
8
Image
10
720.271073
20
548.550637
70
0
0
VERTEX
8
Image
10
719.626361
20
547.283882
70
0
0
VERTEX
8
Image
10
718.702491
20
545.844585
70
0
0
VERTEX
8
Image
10
716.018245
20
542.450624
70
0
0
VERTEX
8
Image
10
714.672311
20
540.712597
70
0
0
VERTEX
8
Image
10
716.490764
20
539.912154
70
0
0
VERTEX
8
Image
10
718.836630
20
538.727110
70
0
0
VERTEX
8
Image
10
720.964575
20
537.327882
70
0
0
VERTEX
8
Image
10
722.509258
20
535.987042
70
0
0
VERTEX
8
Image
10
722.948707
20
535.423696
70
0
0
VERTEX
8
Image
10
723.105339
20
534.977162
70
0
0
VERTEX
8
Image
10
722.695392
20
534.123473
70
0
0
VERTEX
8
Image
10
721.636103
20
532.768196
70
0
0
VERTEX
8
Image
10
720.183303
20
531.208223
70
0
0
VERTEX
8
Image
10
718.592823
20
529.740441
70
0
0
VERTEX
8
Image
10
716.187807
20
527.926792
70
0
0
VERTEX
8
Image
10
713.649487
20
526.438721
70
0
0
VERTEX
8
Image
10
710.874509
20
525.223650
70
0
0
VERTEX
8
Image
10
707.759525
20
524.229002
70
0
0
VERTEX
8
Image
10
704.993743
20
523.849545
70
0
0
VERTEX
8
Image
10
701.134793
20
523.724003
70
0
0
VERTEX
8
Image
10
697.247849
20
523.852032
70
0
0
VERTEX
8
Image
10
694.398084
20
524.233288
70
0
0
VERTEX
8
Image
10
690.750694
20
525.278852
70
0
0
VERTEX
8
Image
10
687.824625
20
526.467496
70
0
0
VERTEX
8
Image
10
685.977220
20
527.213017
70
0
0
VERTEX
8
Image
10
685.525828
20
527.220300
70
0
0
VERTEX
8
Image
10
685.136488
20
527.037545
70
0
0
VERTEX
8
Image
10
682.285161
20
525.323451
70
0
0
VERTEX
8
Image
10
680.044039
20
524.178520
70
0
0
VERTEX
8
Image
10
678.100960
20
523.464029
70
0
0
VERTEX
8
Image
10
676.143761
20
523.041255
70
0
0
VERTEX
8
Image
10
672.701762
20
522.892290
70
0
0
VERTEX
8
Image
10
669.236822
20
523.226611
70
0
0
VERTEX
8
Image
10
668.692893
20
523.229807
70
0
0
VERTEX
8
Image
10
667.979167
20
522.768621
70
0
0
VERTEX
8
Image
10
664.474328
20
519.091753
70
0
0
VERTEX
8
Image
10
661.559529
20
516.013520
70
0
0
VERTEX
8
Image
10
658.712647
20
513.230904
70
0
0
VERTEX
8
Image
10
655.870101
20
510.695371
70
0
0
VERTEX
8
Image
10
652.968311
20
508.358386
70
0
0
VERTEX
8
Image
10
649.943698
20
506.171416
70
0
0
VERTEX
8
Image
10
646.732680
20
504.085927
70
0
0
VERTEX
8
Image
10
643.271678
20
502.053384
70
0
0
VERTEX
8
Image
10
639.497111
20
500.025253
70
0
0
VERTEX
8
Image
10
638.108143
20
499.177948
70
0
0
VERTEX
8
Image
10
637.813235
20
498.828523
70
0
0
VERTEX
8
Image
10
637.697788
20
498.452609
70
0
0
VERTEX
8
Image
10
637.733936
20
497.864582
70
0
0
VERTEX
8
Image
10
638.110835
20
497.451038
70
0
0
VERTEX
8
Image
10
638.984889
20
497.118729
70
0
0
VERTEX
8
Image
10
640.512501
20
496.774407
70
0
0
VERTEX
8
Image
10
642.974959
20
496.196673
70
0
0
VERTEX
8
Image
10
645.335459
20
495.457236
70
0
0
VERTEX
8
Image
10
647.708987
20
494.515254
70
0
0
VERTEX
8
Image
10
650.210526
20
493.329885
70
0
0
VERTEX
8
Image
10
653.506260
20
491.526086
70
0
0
VERTEX
8
Image
10
656.510836
20
489.593192
70
0
0
VERTEX
8
Image
10
659.320776
20
487.463771
70
0
0
VERTEX
8
Image
10
662.032598
20
485.070393
70
0
0
VERTEX
8
Image
10
664.363921
20
482.954592
70
0
0
VERTEX
8
Image
10
665.514087
20
482.079425
70
0
0
VERTEX
8
Image
10
665.824190
20
482.215857
70
0
0
VERTEX
8
Image
10
666.292245
20
482.779513
70
0
0
VERTEX
8
Image
10
668.420055
20
486.208475
70
0
0
VERTEX
8
Image
10
670.229178
20
488.934255
70
0
0
VERTEX
8
Image
10
672.216818
20
491.368211
70
0
0
VERTEX
8
Image
10
674.391581
20
493.516369
70
0
0
VERTEX
8
Image
10
676.762072
20
495.384757
70
0
0
VERTEX
8
Image
10
679.336896
20
496.979400
70
0
0
VERTEX
8
Image
10
682.124659
20
498.306326
70
0
0
VERTEX
8
Image
10
685.133966
20
499.371560
70
0
0
VERTEX
8
Image
10
688.373423
20
500.181130
70
0
0
VERTEX
8
Image
10
692.633536
20
500.788698
70
0
0
VERTEX
8
Image
10
695.548146
20
500.965140
70
0
0
VERTEX
8
Image
10
695.291924
20
500.079675
70
0
0
VERTEX
8
Image
10
694.421079
20
498.171855
70
0
0
VERTEX
8
Image
10
692.251522
20
494.196498
70
0
0
VERTEX
8
Image
10
690.531254
20
491.876310
70
0
0
VERTEX
8
Image
10
688.613124
20
489.798617
70
0
0
VERTEX
8
Image
10
686.490360
20
487.959290
70
0
0
VERTEX
8
Image
10
684.156188
20
486.354198
70
0
0
VERTEX
8
Image
10
681.603837
20
484.979210
70
0
0
VERTEX
8
Image
10
678.826535
20
483.830198
70
0
0
VERTEX
8
Image
10
675.817508
20
482.903031
70
0
0
VERTEX
8
Image
10
672.569986
20
482.193579
70
0
0
VERTEX
8
Image
10
670.039316
20
481.693259
70
0
0
VERTEX
8
Image
10
668.356194
20
481.234819
70
0
0
VERTEX
8
Image
10
667.402661
20
480.777281
70
0
0
VERTEX
8
Image
10
667.060759
20
480.279665
70
0
0
VERTEX
8
Image
10
667.087531
20
479.927232
70
0
0
VERTEX
8
Image
10
667.294510
20
479.625607
70
0
0
VERTEX
8
Image
10
668.361390
20
479.144958
70
0
0
VERTEX
8
Image
10
670.485990
20
478.778076
70
0
0
VERTEX
8
Image
10
673.892901
20
478.465316
70
0
0
VERTEX
8
Image
10
680.647791
20
477.827767
70
0
0
VERTEX
8
Image
10
682.795074
20
477.444944
70
0
0
VERTEX
8
Image
10
684.817083
20
476.921210
70
0
0
VERTEX
8
Image
10
687.565991
20
475.951051
70
0
0
VERTEX
8
Image
10
690.238817
20
474.665053
70
0
0
VERTEX
8
Image
10
692.814524
20
473.080805
70
0
0
VERTEX
8
Image
10
695.272077
20
471.215892
70
0
0
VERTEX
8
Image
10
697.590440
20
469.087903
70
0
0
VERTEX
8
Image
10
699.748577
20
466.714424
70
0
0
VERTEX
8
Image
10
701.725452
20
464.113043
70
0
0
VERTEX
8
Image
10
703.500030
20
461.301346
70
0
0
VERTEX
8
Image
10
704.863188
20
458.920099
70
0
0
VERTEX
8
Image
10
702.144174
20
458.840965
70
0
0
VERTEX
8
Image
10
699.481727
20
458.875839
70
0
0
VERTEX
8
Image
10
696.733014
20
459.120923
70
0
0
VERTEX
8
Image
10
693.960308
20
459.560027
70
0
0
VERTEX
8
Image
10
691.225882
20
460.176964
70
0
0
VERTEX
8
Image
10
688.592011
20
460.955545
70
0
0
VERTEX
8
Image
10
686.120968
20
461.879581
70
0
0
VERTEX
8
Image
10
683.875026
20
462.932885
70
0
0
VERTEX
8
Image
10
681.916460
20
464.099266
70
0
0
VERTEX
8
Image
10
679.487919
20
465.906059
70
0
0
VERTEX
8
Image
10
677.169391
20
468.050608
70
0
0
VERTEX
8
Image
10
674.546084
20
470.956854
70
0
0
VERTEX
8
Image
10
671.203203
20
475.048743
70
0
0
VERTEX
8
Image
10
669.945246
20
476.486544
70
0
0
VERTEX
8
Image
10
668.698356
20
477.683079
70
0
0
VERTEX
8
Image
10
667.686615
20
478.444139
70
0
0
VERTEX
8
Image
10
667.134102
20
478.575512
70
0
0
VERTEX
8
Image
10
667.800371
20
476.925253
70
0
0
VERTEX
8
Image
10
669.614700
20
473.170068
70
0
0
VERTEX
8
Image
10
671.997585
20
468.072358
70
0
0
VERTEX
8
Image
10
673.517474
20
463.880623
70
0
0
VERTEX
8
Image
10
673.997934
20
461.972871
70
0
0
VERTEX
8
Image
10
674.315612
20
460.109661
70
0
0
VERTEX
8
Image
10
674.533245
20
456.274269
70
0
0
VERTEX
8
Image
10
674.425498
20
453.497486
70
0
0
VERTEX
8
Image
10
674.139324
20
450.914474
70
0
0
VERTEX
8
Image
10
673.675553
20
448.530893
70
0
0
VERTEX
8
Image
10
673.035017
20
446.352406
70
0
0
VERTEX
8
Image
10
671.554225
20
442.758850
70
0
0
VERTEX
8
Image
10
670.904634
20
441.532171
70
0
0
VERTEX
8
Image
10
670.495629
20
441.060746
70
0
0
VERTEX
8
Image
10
669.982154
20
441.362296
70
0
0
VERTEX
8
Image
10
669.242059
20
442.194939
70
0
0
VERTEX
8
Image
10
667.343314
20
445.021465
70
0
0
VERTEX
8
Image
10
665.322005
20
448.676251
70
0
0
VERTEX
8
Image
10
663.700741
20
452.295221
70
0
0
VERTEX
8
Image
10
662.927195
20
454.707541
70
0
0
VERTEX
8
Image
10
662.370831
20
457.243588
70
0
0
VERTEX
8
Image
10
662.031746
20
459.882651
70
0
0
VERTEX
8
Image
10
661.910039
20
462.604022
70
0
0
VERTEX
8
Image
10
662.005809
20
465.386988
70
0
0
VERTEX
8
Image
10
662.319152
20
468.210841
70
0
0
VERTEX
8
Image
10
662.850168
20
471.054870
70
0
0
VERTEX
8
Image
10
663.598955
20
473.898365
70
0
0
VERTEX
8
Image
10
664.157633
20
475.938082
70
0
0
VERTEX
8
Image
10
664.321442
20
477.322979
70
0
0
VERTEX
8
Image
10
664.078877
20
478.414837
70
0
0
VERTEX
8
Image
10
663.418430
20
479.575440
70
0
0
VERTEX
8
Image
10
662.420991
20
480.848448
70
0
0
VERTEX
8
Image
10
661.075483
20
482.218118
70
0
0
VERTEX
8
Image
10
657.584091
20
485.070122
70
0
0
VERTEX
8
Image
10
653.431912
20
487.776806
70
0
0
VERTEX
8
Image
10
649.106607
20
489.983527
70
0
0
VERTEX
8
Image
10
645.629032
20
491.325947
70
0
0
VERTEX
8
Image
10
642.044645
20
492.468641
70
0
0
VERTEX
8
Image
10
639.159606
20
493.180510
70
0
0
VERTEX
8
Image
10
638.231266
20
493.302667
70
0
0
VERTEX
8
Image
10
637.780073
20
493.230455
70
0
0
VERTEX
8
Image
10
637.645030
20
452.885061
70
0
0
VERTEX
8
Image
10
637.645030
20
412.674721
70
0
0
VERTEX
8
Image
10
640.357006
20
412.855669
70
0
0
VERTEX
8
Image
10
645.979395
20
413.417432
70
0
0
VERTEX
8
Image
10
645.979395
20
413.417443
70
0
0
SEQEND
8
Image
0
POLYLINE
8
Image
62
7
70
0
10
0.000000
20
0.000000
66
1
0
VERTEX
8
Image
10
890.850961
20
436.127713
70
0
0
VERTEX
8
Image
10
890.850961
20
439.396742
70
0
0
VERTEX
8
Image
10
889.081747
20
439.561947
70
0
0
VERTEX
8
Image
10
887.213447
20
439.628119
70
0
0
VERTEX
8
Image
10
887.632878
20
438.481958
70
0
0
VERTEX
8
Image
10
888.783953
20
436.164791
70
0
0
VERTEX
8
Image
10
890.034176
20
433.886929
70
0
0
VERTEX
8
Image
10
890.751054
20
432.858684
70
0
0
VERTEX
8
Image
10
890.850961
20
436.127713
70
0
0
VERTEX
8
Image
10
890.850961
20
436.127713
70
0
0
SEQEND
8
Image
0
POLYLINE
8
Image
62
7
70
0
10
0.000000
20
0.000000
66
1
0
VERTEX
8
Image
10
872.859317
20
443.354004
70
0
0
VERTEX
8
Image
10
877.489520
20
444.780635
70
0
0
VERTEX
8
Image
10
881.418498
20
445.942684
70
0
0
VERTEX
8
Image
10
883.362971
20
446.449149
70
0
0
VERTEX
8
Image
10
883.249818
20
446.998266
70
0
0
VERTEX
8
Image
10
882.687639
20
448.035614
70
0
0
VERTEX
8
Image
10
881.897421
20
449.201223
70
0
0
VERTEX
8
Image
10
881.100151
20
450.135123
70
0
0
VERTEX
8
Image
10
879.991291
20
451.010874
70
0
0
VERTEX
8
Image
10
878.680143
20
451.815736
70
0
0
VERTEX
8
Image
10
877.065562
20
452.443124
70
0
0
VERTEX
8
Image
10
874.822946
20
452.570118
70
0
0
VERTEX
8
Image
10
872.591113
20
452.446049
70
0
0
VERTEX
8
Image
10
871.893614
20
452.204525
70
0
0
VERTEX
8
Image
10
871.121139
20
451.766510
70
0
0
VERTEX
8
Image
10
869.939081
20
450.814191
70
0
0
VERTEX
8
Image
10
869.076547
20
449.458307
70
0
0
VERTEX
8
Image
10
868.555625
20
448.060763
70
0
0
VERTEX
8
Image
10
868.217972
20
446.439284
70
0
0
VERTEX
8
Image
10
868.092285
20
444.796042
70
0
0
VERTEX
8
Image
10
868.207260
20
443.333207
70
0
0
VERTEX
8
Image
10
868.328699
20
442.784128
70
0
0
VERTEX
8
Image
10
868.494045
20
442.515719
70
0
0
VERTEX
8
Image
10
868.806021
20
442.457742
70
0
0
VERTEX
8
Image
10
869.367351
20
442.539961
70
0
0
VERTEX
8
Image
10
872.859317
20
443.354004
70
0
0
VERTEX
8
Image
10
872.859317
20
443.354004
70
0
0
SEQEND
8
Image
0
POLYLINE
8
Image
62
7
70
0
10
0.000000
20
0.000000
66
1
0
VERTEX
8
Image
10
889.396707
20
447.866078
70
0
0
VERTEX
8
Image
10
890.864561
20
448.585987
70
0
0
VERTEX
8
Image
10
890.791615
20
462.309360
70
0
0
VERTEX
8
Image
10
890.718669
20
476.032729
70
0
0
VERTEX
8
Image
10
890.094042
20
476.538387
70
0
0
VERTEX
8
Image
10
889.664208
20
476.798785
70
0
0
VERTEX
8
Image
10
889.048268
20
476.952879
70
0
0
VERTEX
8
Image
10
886.522171
20
477.046924
70
0
0
VERTEX
8
Image
10
883.576001
20
477.175211
70
0
0
VERTEX
8
Image
10
879.765089
20
477.506164
70
0
0
VERTEX
8
Image
10
872.462442
20
478.479265
70
0
0
VERTEX
8
Image
10
863.603205
20
480.422256
70
0
0
VERTEX
8
Image
10
855.050077
20
482.644711
70
0
0
VERTEX
8
Image
10
852.025205
20
483.344012
70
0
0
VERTEX
8
Image
10
851.996409
20
483.198452
70
0
0
VERTEX
8
Image
10
852.303113
20
482.851675
70
0
0
VERTEX
8
Image
10
853.847944
20
481.625249
70
0
0
VERTEX
8
Image
10
856.977842
20
479.119638
70
0
0
VERTEX
8
Image
10
859.989596
20
476.230220
70
0
0
VERTEX
8
Image
10
862.913730
20
472.925146
70
0
0
VERTEX
8
Image
10
865.780769
20
469.172566
70
0
0
VERTEX
8
Image
10
868.440751
20
465.201732
70
0
0
VERTEX
8
Image
10
871.435437
20
459.981032
70
0
0
VERTEX
8
Image
10
873.335619
20
456.538862
70
0
0
VERTEX
8
Image
10
875.693953
20
456.386965
70
0
0
VERTEX
8
Image
10
878.034511
20
456.071919
70
0
0
VERTEX
8
Image
10
880.308096
20
455.143211
70
0
0
VERTEX
8
Image
10
882.252981
20
453.993798
70
0
0
VERTEX
8
Image
10
883.963819
20
452.552624
70
0
0
VERTEX
8
Image
10
885.408325
20
450.851837
70
0
0
VERTEX
8
Image
10
886.554212
20
448.923587
70
0
0
VERTEX
8
Image
10
887.238619
20
447.668284
70
0
0
VERTEX
8
Image
10
887.672816
20
447.146166
70
0
0
VERTEX
8
Image
10
889.396707
20
447.866078
70
0
0
VERTEX
8
Image
10
889.396707
20
447.866078
70
0
0
SEQEND
8
Image
0
POLYLINE
8
Image
62
7
70
0
10
0.000000
20
0.000000
66
1
0
VERTEX
8
Image
10
817.142847
20
469.335951
70
0
0
VERTEX
8
Image
10
816.045490
20
470.705622
70
0
0
VERTEX
8
Image
10
813.225530
20
473.523148
70
0
0
VERTEX
8
Image
10
809.877915
20
476.638965
70
0
0
VERTEX
8
Image
10
807.197595
20
478.903508
70
0
0
VERTEX
8
Image
10
804.446081
20
480.825002
70
0
0
VERTEX
8
Image
10
801.687010
20
482.475655
70
0
0
VERTEX
8
Image
10
798.890456
20
483.865956
70
0
0
VERTEX
8
Image
10
796.026491
20
485.006392
70
0
0
VERTEX
8
Image
10
793.065187
20
485.907452
70
0
0
VERTEX
8
Image
10
789.976618
20
486.579624
70
0
0
VERTEX
8
Image
10
786.730855
20
487.033397
70
0
0
VERTEX
8
Image
10
783.297972
20
487.279258
70
0
0
VERTEX
8
Image
10
779.739244
20
487.300086
70
0
0
VERTEX
8
Image
10
776.683397
20
486.866300
70
0
0
VERTEX
8
Image
10
772.596012
20
485.946848
70
0
0
VERTEX
8
Image
10
771.793624
20
485.632222
70
0
0
VERTEX
8
Image
10
771.361888
20
485.318740
70
0
0
VERTEX
8
Image
10
771.356391
20
485.076984
70
0
0
VERTEX
8
Image
10
771.832717
20
484.977537
70
0
0
VERTEX
8
Image
10
775.562520
20
484.063299
70
0
0
VERTEX
8
Image
10
780.387558
20
482.469616
70
0
0
VERTEX
8
Image
10
785.884313
20
479.897719
70
0
0
VERTEX
8
Image
10
792.161502
20
476.371790
70
0
0
VERTEX
8
Image
10
798.300088
20
472.916943
70
0
0
VERTEX
8
Image
10
800.977230
20
471.665633
70
0
0
VERTEX
8
Image
10
803.495255
20
470.697020
70
0
0
VERTEX
8
Image
10
805.930904
20
469.985069
70
0
0
VERTEX
8
Image
10
808.360913
20
469.503748
70
0
0
VERTEX
8
Image
10
810.862022
20
469.227022
70
0
0
VERTEX
8
Image
10
813.510969
20
469.128857
70
0
0
VERTEX
8
Image
10
816.017499
20
469.180487
70
0
0
VERTEX
8
Image
10
817.142847
20
469.335951
70
0
0
VERTEX
8
Image
10
817.142847
20
469.335951
70
0
0
SEQEND
8
Image
0
POLYLINE
8
Image
62
7
70
0
10
0.000000
20
0.000000
66
1
0
VERTEX
8
Image
10
676.154213
20
526.883211
70
0
0
VERTEX
8
Image
10
679.058246
20
527.840610
70
0
0
VERTEX
8
Image
10
680.463112
20
528.504877
70
0
0
VERTEX
8
Image
10
681.604516
20
529.194460
70
0
0
VERTEX
8
Image
10
682.410410
20
529.768301
70
0
0
VERTEX
8
Image
10
679.778179
20
532.444156
70
0
0
VERTEX
8
Image
10
675.188696
20
537.478374
70
0
0
VERTEX
8
Image
10
672.537945
20
540.647250
70
0
0
VERTEX
8
Image
10
671.844446
20
541.457766
70
0
0
VERTEX
8
Image
10
671.041464
20
539.867061
70
0
0
VERTEX
8
Image
10
669.946335
20
537.159892
70
0
0
VERTEX
8
Image
10
669.146679
20
534.153312
70
0
0
VERTEX
8
Image
10
668.742489
20
531.331455
70
0
0
VERTEX
8
Image
10
668.719941
20
530.141090
70
0
0
VERTEX
8
Image
10
668.833757
20
529.178456
70
0
0
VERTEX
8
Image
10
669.095279
20
528.378494
70
0
0
VERTEX
8
Image
10
669.501356
20
527.799232
70
0
0
VERTEX
8
Image
10
670.110816
20
527.382999
70
0
0
VERTEX
8
Image
10
670.982488
20
527.072124
70
0
0
VERTEX
8
Image
10
672.429641
20
526.728647
70
0
0
VERTEX
8
Image
10
673.622375
20
526.588207
70
0
0
VERTEX
8
Image
10
674.788096
20
526.642497
70
0
0
VERTEX
8
Image
10
676.154213
20
526.883211
70
0
0
VERTEX
8
Image
10
676.154213
20
526.883211
70
0
0
SEQEND
8
Image
0
POLYLINE
8
Image
62
7
70
0
10
0.000000
20
0.000000
66
1
0
VERTEX
8
Image
10
707.627233
20
527.951423
70
0
0
VERTEX
8
Image
10
710.119359
20
528.805204
70
0
0
VERTEX
8
Image
10
712.378909
20
529.850602
70
0
0
VERTEX
8
Image
10
714.401550
20
531.085312
70
0
0
VERTEX
8
Image
10
716.182948
20
532.507026
70
0
0
VERTEX
8
Image
10
717.521517
20
533.836769
70
0
0
VERTEX
8
Image
10
718.078262
20
534.604717
70
0
0
VERTEX
8
Image
10
717.458313
20
535.162833
70
0
0
VERTEX
8
Image
10
715.917948
20
536.005658
70
0
0
VERTEX
8
Image
10
713.936388
20
536.897201
70
0
0
VERTEX
8
Image
10
711.992853
20
537.601469
70
0
0
VERTEX
8
Image
10
709.770384
20
538.210033
70
0
0
VERTEX
8
Image
10
707.746096
20
538.617074
70
0
0
VERTEX
8
Image
10
705.841628
20
538.817633
70
0
0
VERTEX
8
Image
10
703.978617
20
538.806749
70
0
0
VERTEX
8
Image
10
702.078701
20
538.579463
70
0
0
VERTEX
8
Image
10
700.063516
20
538.130816
70
0
0
VERTEX
8
Image
10
695.373892
20
536.549595
70
0
0
VERTEX
8
Image
10
690.151321
20
534.713915
70
0
0
VERTEX
8
Image
10
685.600699
20
533.468598
70
0
0
VERTEX
8
Image
10
685.150517
20
533.311930
70
0
0
VERTEX
8
Image
10
685.070997
20
533.067692
70
0
0
VERTEX
8
Image
10
686.129865
20
532.028123
70
0
0
VERTEX
8
Image
10
688.335432
20
530.472852
70
0
0
VERTEX
8
Image
10
690.718339
20
529.235213
70
0
0
VERTEX
8
Image
10
693.337085
20
528.289676
70
0
0
VERTEX
8
Image
10
696.250164
20
527.610711
70
0
0
VERTEX
8
Image
10
698.366828
20
527.201478
70
0
0
VERTEX
8
Image
10
702.070990
20
527.168847
70
0
0
VERTEX
8
Image
10
705.077861
20
527.387025
70
0
0
VERTEX
8
Image
10
707.627233
20
527.951423
70
0
0
VERTEX
8
Image
10
707.627233
20
527.951423
70
0
0
SEQEND
8
Image
0
POLYLINE
8
Image
62
7
70
0
10
0.000000
20
0.000000
66
1
0
VERTEX
8
Image
10
687.614440
20
537.936836
70
0
0
VERTEX
8
Image
10
689.648673
20
538.601049
70
0
0
VERTEX
8
Image
10
691.927341
20
539.561913
70
0
0
VERTEX
8
Image
10
694.183527
20
540.696116
70
0
0
VERTEX
8
Image
10
696.150311
20
541.880345
70
0
0
VERTEX
8
Image
10
698.021067
20
543.316874
70
0
0
VERTEX
8
Image
10
699.983834
20
545.118523
70
0
0
VERTEX
8
Image
10
701.808459
20
547.057954
70
0
0
VERTEX
8
Image
10
703.264789
20
548.907831
70
0
0
VERTEX
8
Image
10
705.213656
20
552.112998
70
0
0
VERTEX
8
Image
10
706.850768
20
555.595256
70
0
0
VERTEX
8
Image
10
708.109927
20
559.192786
70
0
0
VERTEX
8
Image
10
708.924934
20
562.743770
70
0
0
VERTEX
8
Image
10
709.472554
20
566.795899
70
0
0
VERTEX
8
Image
10
709.431812
20
567.646968
70
0
0
VERTEX
8
Image
10
709.194676
20
567.972607
70
0
0
VERTEX
8
Image
10
708.015355
20
567.963915
70
0
0
VERTEX
8
Image
10
705.859511
20
567.654927
70
0
0
VERTEX
8
Image
10
703.393129
20
567.161290
70
0
0
VERTEX
8
Image
10
701.282189
20
566.598646
70
0
0
VERTEX
8
Image
10
698.974913
20
565.696525
70
0
0
VERTEX
8
Image
10
696.379542
20
564.451951
70
0
0
VERTEX
8
Image
10
693.886084
20
563.066492
70
0
0
VERTEX
8
Image
10
691.884545
20
561.741712
70
0
0
VERTEX
8
Image
10
689.777111
20
559.936753
70
0
0
VERTEX
8
Image
10
687.439666
20
557.609992
70
0
0
VERTEX
8
Image
10
685.270591
20
555.181777
70
0
0
VERTEX
8
Image
10
683.668264
20
553.072457
70
0
0
VERTEX
8
Image
10
681.908691
20
550.027167
70
0
0
VERTEX
8
Image
10
680.386710
20
546.729174
70
0
0
VERTEX
8
Image
10
679.276273
20
543.602991
70
0
0
VERTEX
8
Image
10
678.751333
20
541.073131
70
0
0
VERTEX
8
Image
10
678.782547
20
539.688997
70
0
0
VERTEX
8
Image
10
679.043631
20
539.220158
70
0
0
VERTEX
8
Image
10
679.551352
20
538.648635
70
0
0
VERTEX
8
Image
10
680.953060
20
537.383881
70
0
0
VERTEX
8
Image
10
681.908247
20
537.207127
70
0
0
VERTEX
8
Image
10
683.566231
20
537.259407
70
0
0
VERTEX
8
Image
10
685.582975
20
537.512163
70
0
0
VERTEX
8
Image
10
687.614440
20
537.936836
70
0
0
VERTEX
8
Image
10
687.614440
20
537.936836
70
0
0
SEQEND
8
Image
0
POLYLINE
8
Image
62
7
70
0
10
0.000000
20
0.000000
66
1
0
VERTEX
8
Image
10
711.307186
20
543.295189
70
0
0
VERTEX
8
Image
10
712.511258
20
544.197672
70
0
0
VERTEX
8
Image
10
713.648739
20
545.307015
70
0
0
VERTEX
8
Image
10
714.670422
20
546.569174
70
0
0
VERTEX
8
Image
10
715.527100
20
547.930104
70
0
0
VERTEX
8
Image
10
716.265075
20
549.285959
70
0
0
VERTEX
8
Image
10
715.301543
20
549.688546
70
0
0
VERTEX
8
Image
10
714.082592
20
549.963964
70
0
0
VERTEX
8
Image
10
712.338517
20
550.125392
70
0
0
VERTEX
8
Image
10
710.620398
20
550.144149
70
0
0
VERTEX
8
Image
10
709.479315
20
549.991555
70
0
0
VERTEX
8
Image
10
708.872427
20
549.529170
70
0
0
VERTEX
8
Image
10
708.156400
20
548.692804
70
0
0
VERTEX
8
Image
10
705.709007
20
545.369358
70
0
0
VERTEX
8
Image
10
704.055363
20
542.904614
70
0
0
VERTEX
8
Image
10
704.385678
20
542.726539
70
0
0
VERTEX
8
Image
10
705.179841
20
542.641018
70
0
0
VERTEX
8
Image
10
707.494942
20
542.404663
70
0
0
VERTEX
8
Image
10
708.530414
20
542.276601
70
0
0
VERTEX
8
Image
10
709.387134
20
542.353412
70
0
0
VERTEX
8
Image
10
710.250819
20
542.678481
70
0
0
VERTEX
8
Image
10
711.307186
20
543.295189
70
0
0
VERTEX
8
Image
10
711.307186
20
543.295189
70
0
0
SEQEND
8
Image
0
POLYLINE
8
Image
62
7
70
0
10
0.000000
20
0.000000
66
1
0
VERTEX
8
Image
10
676.496715
20
547.826128
70
0
0
VERTEX
8
Image
10
678.105398
20
551.280073
70
0
0
VERTEX
8
Image
10
679.831543
20
554.307708
70
0
0
VERTEX
8
Image
10
681.868931
20
557.214598
70
0
0
VERTEX
8
Image
10
684.411345
20
560.306310
70
0
0
VERTEX
8
Image
10
686.527850
20
562.738470
70
0
0
VERTEX
8
Image
10
686.717292
20
564.760115
70
0
0
VERTEX
8
Image
10
686.792419
20
566.505507
70
0
0
VERTEX
8
Image
10
686.717586
20
568.369223
70
0
0
VERTEX
8
Image
10
686.183549
20
572.137097
70
0
0
VERTEX
8
Image
10
685.246187
20
575.434681
70
0
0
VERTEX
8
Image
10
684.667200
20
576.710535
70
0
0
VERTEX
8
Image
10
684.036511
20
577.632922
70
0
0
VERTEX
8
Image
10
683.556607
20
577.960853
70
0
0
VERTEX
8
Image
10
682.791647
20
577.667675
70
0
0
VERTEX
8
Image
10
681.587967
20
576.865271
70
0
0
VERTEX
8
Image
10
680.299036
20
575.689614
70
0
0
VERTEX
8
Image
10
678.976856
20
574.213710
70
0
0
VERTEX
8
Image
10
677.673425
20
572.510561
70
0
0
VERTEX
8
Image
10
675.330810
20
568.714546
70
0
0
VERTEX
8
Image
10
674.395625
20
566.767688
70
0
0
VERTEX
8
Image
10
673.687188
20
564.885601
70
0
0
VERTEX
8
Image
10
673.024333
20
562.625584
70
0
0
VERTEX
8
Image
10
672.648451
20
560.725974
70
0
0
VERTEX
8
Image
10
672.483493
20
558.624150
70
0
0
VERTEX
8
Image
10
672.453411
20
555.757488
70
0
0
VERTEX
8
Image
10
672.579144
20
551.599579
70
0
0
VERTEX
8
Image
10
672.796679
20
550.315148
70
0
0
VERTEX
8
Image
10
673.185274
20
548.925793
70
0
0
VERTEX
8
Image
10
674.303325
20
545.667754
70
0
0
VERTEX
8
Image
10
674.675752
20
544.981279
70
0
0
VERTEX
8
Image
10
674.965864
20
544.826265
70
0
0
VERTEX
8
Image
10
675.533825
20
545.746900
70
0
0
VERTEX
8
Image
10
676.496715
20
547.826128
70
0
0
VERTEX
8
Image
10
676.496715
20
547.826128
70
0
0
SEQEND
8
Image
 0 
ENDSEC
 0 
EOF