<svg 
 xmlns="http://www.w3.org/2000/svg"
 xmlns:xlink="http://www.w3.org/1999/xlink"
 width="1455px" height="1682px">
<path fill-rule="evenodd"  fill="rgb(255, 255, 255)"
 d="M1426.649,997.500 C1393.769,1110.196 1293.161,1205.856 1293.161,1205.856 L1199.598,1111.035 L1266.967,1034.929 L1122.251,1032.434 L746.752,615.722 L1002.493,19.350 C1002.493,19.350 1131.393,39.098 1251.997,71.751 C1355.952,99.896 1454.094,141.619 1454.094,141.619 L1454.094,766.686 C1454.094,766.686 1457.979,890.116 1426.649,997.500 ZM602.040,238.934 L557.129,358.708 L491.011,127.895 L508.476,369.937 L212.814,68.008 C212.814,68.008 363.534,28.274 492.258,13.112 C642.548,-4.591 774.197,1.883 774.197,1.883 L594.555,422.338 L602.040,238.934 ZM880.236,1032.434 L562.119,1032.434 L655.683,817.839 L880.236,1032.434 ZM207.824,557.083 L391.209,604.493 L149.191,718.028 L148.890,718.332 L416.160,644.417 L237.765,837.802 L496.001,644.417 L310.121,1074.853 C310.121,1074.853 285.356,1147.346 322.596,1198.370 C353.522,1240.743 417.407,1244.532 417.407,1244.532 L1104.789,1244.532 L1212.076,1345.591 C1212.076,1345.591 1111.892,1448.334 993.760,1530.242 C870.004,1616.050 728.039,1681.206 728.039,1681.206 C728.039,1681.206 411.762,1535.371 230.280,1334.363 C16.661,1097.760 2.938,890.851 2.058,866.422 L1.984,866.497 L0.736,194.019 L387.518,553.340 L207.824,557.083 Z"/>
<path fill-rule="evenodd"  fill="rgb(249, 115, 22)"
 d="M29.460,149.583 C43.527,141.061 64.199,128.816 84.341,117.913 C107.189,105.546 134.238,94.557 148.326,89.106 L1273.343,1274.476 L29.460,149.583 Z"/>
</svg>